<?xml version="1.0" encoding="UTF-8"?>
<svg width="90px" height="84px" viewBox="0 0 90 84" version="1.1" xmlns="http://www.w3.org/2000/svg" xmlns:xlink="http://www.w3.org/1999/xlink">
    <!-- Generator: Sketch 49.3 (51167) - http://www.bohemiancoding.com/sketch -->
    <title>Shape</title>
    <desc>Created with Sketch.</desc>
    <defs></defs>
    <g id="Page-1" stroke="none" stroke-width="1" fill="none" fill-rule="evenodd">
        <path d="M84.503,66.446 L73.81,62.417 C70.112,61.022 67.503,58.603 65.838,55.02 L61.844,46.429 C60.035,42.537 57.571,39.714 54.087,37.543 C53.048,36.897 51.999,36.401 50.917,36.035 C53.287,24.197 58.072,14.258 61.7,7.972 L59.102,6.472 C55.368,12.941 50.443,23.171 47.989,35.382 C47.381,35.312 46.76,35.271 46.115,35.271 C44.499,35.271 42.913,35.483 41.38,35.688 C39.859,35.891 38.284,36.102 36.687,36.102 C33.823,36.102 31.267,35.397 28.647,33.884 C26.412,32.594 26.127,29.254 25.853,26.025 C25.761,24.937 25.331,23.968 24.66,23.205 L36.504,1.668 L33.875,0.223 L22.075,21.678 C20.285,21.264 18.387,21.876 17.2,23.299 L1.791,41.784 C0.403,43.449 -0.136,45.458 0.231,47.592 C0.597,49.726 1.776,51.439 3.639,52.546 L47.826,78.775 C49.954,80.038 51.977,80.85 54.386,81.408 L62.655,83.326 C63.999,83.639 65.211,83.777 66.584,83.777 L81.574,83.777 C86.155,83.777 89.882,80.049 89.882,75.468 L89.882,74.22 C89.881,70.729 87.77,67.678 84.503,66.446 Z M19.505,25.221 C19.877,24.775 20.385,24.529 20.937,24.529 C21.136,24.529 21.338,24.561 21.539,24.625 C22.302,24.865 22.797,25.484 22.865,26.28 C23.173,29.902 23.555,34.411 27.147,36.483 C30.243,38.27 33.274,39.103 36.688,39.103 C38.485,39.103 40.159,38.878 41.778,38.663 C43.28,38.462 44.699,38.272 46.115,38.272 C48.511,38.272 50.481,38.833 52.501,40.09 C52.877,40.324 53.238,40.567 53.585,40.817 L49.607,43.432 L51.21,45.967 L55.921,42.87 C56.807,43.808 57.58,44.859 58.266,46.055 L53.318,49.302 L54.921,51.838 L59.618,48.756 L61.283,52.337 L57.288,55 L58.952,57.496 L62.562,55.09 L63.117,56.283 C65.102,60.554 68.344,63.561 72.751,65.223 L83.444,69.252 C85.364,69.977 86.614,71.61 86.835,73.594 L69.078,73.594 C67.848,73.594 66.811,73.467 65.614,73.17 L56.864,71 C54.849,70.5 53.228,69.834 51.444,68.774 L5.809,41.648 L19.505,25.221 Z M81.573,80.777 L66.583,80.777 C65.432,80.777 64.46,80.666 63.332,80.404 L55.063,78.486 C52.939,77.994 51.233,77.308 49.357,76.195 L5.17,49.966 C4.07,49.314 3.403,48.344 3.188,47.083 C2.992,45.945 3.245,44.915 3.895,44 L49.912,71.354 C51.934,72.555 53.856,73.344 56.141,73.913 L64.891,76.083 C66.319,76.437 67.61,76.595 69.078,76.595 L86.755,76.595 C86.236,78.981 84.113,80.777 81.573,80.777 Z" id="Shape" fill="#000000" fill-rule="nonzero"></path>
    </g>
</svg>