<?xml version="1.0" encoding="UTF-8"?>
<svg width="74px" height="74px" viewBox="0 0 74 74" version="1.1" xmlns="http://www.w3.org/2000/svg" xmlns:xlink="http://www.w3.org/1999/xlink">
    <!-- Generator: Sketch 49.3 (51167) - http://www.bohemiancoding.com/sketch -->
    <title>Shape</title>
    <desc>Created with Sketch.</desc>
    <defs></defs>
    <g id="Page-1" stroke="none" stroke-width="1" fill="none" fill-rule="evenodd">
        <path d="M63.4,1.4 C62.5,0.5 61.2,0 59.9,0 C58.6,0 57.3,0.5 56.4,1.4 L42.6,15.3 C29.7,2.8 21.9,5.4 21.6,5.5 C21.6,5.5 21.6,5.5 21.6,5.5 L21,5 C19.8,3.8 17.8,3.8 16.7,5 L4.9,16.7 C3.7,17.9 3.7,19.8 4.9,21 L5.6,21.7 C5.2,23.8 4.9,31.1 15.6,42.1 L1.8,56 C0.9,56.9 0.4,58.2 0.4,59.5 C0.4,60.8 0.9,62.1 1.8,63 L10.9,72.1 C11.9,73.1 13.1,73.5 14.4,73.5 C15.7,73.5 16.9,73 17.9,72.1 L72.5,17.5 C73.4,16.6 73.9,15.3 73.9,14 C73.9,12.7 73.4,11.4 72.5,10.5 L63.4,1.4 Z M55.4,31.7 L42.2,18.5 L44,16.7 L57.2,29.9 L55.4,31.7 Z M54.1,33.2 L33.5,53.7 L20.3,40.4 L40.8,19.9 L54.1,33.2 Z M18.9,41.9 L32,55 L30.2,56.8 L17,43.7 L18.9,41.9 Z M6.4,18.1 L18.1,6.4 C18.3,6.2 18.6,6.1 18.9,6.1 C19.2,6.1 19.4,6.2 19.7,6.4 L20.1,6.8 L6.8,20.1 L6.4,19.7 C5.9,19.2 5.9,18.6 6.4,18.1 Z M7.7,22 L22.2,7.5 C22.3,7.4 22.3,7.4 22.4,7.3 C23.2,7.1 30,5.7 41.3,16.7 L17.1,40.8 C6.6,30 7.4,23.2 7.7,22 Z M16.5,70.7 C15.4,71.8 13.5,71.8 12.4,70.7 L3.3,61.6 C2.2,60.5 2.2,58.6 3.3,57.5 L15.7,45.1 L29,58.4 L16.5,70.7 Z M71.1,16.1 L58.7,28.5 L45.5,15.2 L57.9,2.8 C58.5,2.2 59.2,1.9 60,1.9 C60.8,1.9 61.5,2.2 62.1,2.8 L71.2,11.9 C72.2,13.1 72.2,15 71.1,16.1 Z" id="Shape" fill="#000000" fill-rule="nonzero"></path>
    </g>
</svg>