<?xml version="1.0" encoding="UTF-8"?>
<svg width="24px" height="22px" viewBox="0 0 24 22" version="1.1" xmlns="http://www.w3.org/2000/svg" xmlns:xlink="http://www.w3.org/1999/xlink">
    <!-- Generator: Sketch 49.3 (51167) - http://www.bohemiancoding.com/sketch -->
    <title>Group</title>
    <desc>Created with Sketch.</desc>
    <defs></defs>
    <g id="Page-1" stroke="none" stroke-width="1" fill="none" fill-rule="evenodd">
        <g id="Group" fill="#000000" fill-rule="nonzero">
            <path d="M21.511,8.995 C20.911,8.41 20.29,7.805 19.843,6.639 C19.758,6.417 19.524,6.288 19.294,6.331 C19.06,6.374 18.891,6.578 18.891,6.815 L18.891,16.995 C18.33,16.677 17.6,16.578 16.826,16.731 C15.223,17.049 13.968,18.313 13.968,19.609 C13.968,20.173 14.21,20.683 14.648,21.043 C15.079,21.397 15.661,21.582 16.306,21.582 C16.536,21.582 16.774,21.558 17.016,21.51 C18.619,21.192 19.874,19.928 19.874,18.632 C19.874,18.631 19.874,18.629 19.874,18.628 L19.874,8.684 C20.188,9.083 20.515,9.401 20.822,9.701 C21.668,10.525 22.335,11.176 22.335,13.215 L23.32,13.215 C23.322,10.76 22.401,9.863 21.511,8.995 Z M16.827,20.546 C16.204,20.669 15.625,20.571 15.274,20.283 C15.061,20.109 14.953,19.882 14.953,19.61 C14.953,18.795 15.899,17.92 17.018,17.697 C17.195,17.662 17.368,17.645 17.534,17.645 C17.951,17.645 18.32,17.754 18.571,17.96 C18.784,18.134 18.892,18.361 18.892,18.633 C18.892,19.448 17.946,20.324 16.827,20.546 Z" id="Shape"></path>
            <path d="M15.446,12.234 C15.446,12.233 15.446,12.231 15.446,12.23 L15.446,0.909 C15.446,0.751 15.37,0.602 15.242,0.51 C15.113,0.417 14.948,0.393 14.798,0.442 L5.937,3.395 C5.736,3.462 5.601,3.65 5.601,3.862 L5.601,13.55 C5.04,13.232 4.31,13.133 3.536,13.286 C1.933,13.604 0.678,14.868 0.678,16.164 C0.678,16.728 0.92,17.238 1.358,17.598 C1.789,17.952 2.371,18.137 3.016,18.137 C3.246,18.137 3.484,18.113 3.726,18.065 C5.329,17.747 6.584,16.483 6.584,15.187 C6.584,15.186 6.584,15.184 6.584,15.183 L6.584,7.171 L14.46,4.546 L14.46,10.597 C13.899,10.279 13.169,10.18 12.395,10.333 C10.792,10.651 9.537,11.915 9.537,13.211 C9.537,13.775 9.779,14.285 10.217,14.645 C10.648,14.999 11.23,15.184 11.875,15.184 C12.105,15.184 12.343,15.16 12.585,15.112 C14.191,14.795 15.446,13.53 15.446,12.234 Z M3.536,17.1 C2.913,17.223 2.334,17.125 1.983,16.837 C1.77,16.663 1.662,16.436 1.662,16.164 C1.662,15.349 2.608,14.474 3.727,14.251 C3.904,14.216 4.077,14.199 4.243,14.199 C4.66,14.199 5.029,14.308 5.28,14.514 C5.493,14.688 5.601,14.915 5.601,15.187 C5.601,16.002 4.655,16.878 3.536,17.1 Z M12.397,14.147 C11.774,14.27 11.195,14.172 10.844,13.884 C10.631,13.71 10.523,13.483 10.523,13.211 C10.523,12.396 11.469,11.521 12.588,11.298 C12.765,11.263 12.938,11.246 13.104,11.246 C13.521,11.246 13.89,11.355 14.141,11.561 C14.354,11.735 14.462,11.962 14.462,12.234 C14.461,13.049 13.516,13.925 12.397,14.147 Z M14.461,3.507 L6.585,6.133 L6.585,4.217 L14.461,1.592 L14.461,3.507 Z" id="Shape"></path>
        </g>
    </g>
</svg>