<?xml version="1.0" encoding="UTF-8"?>
<svg width="42px" height="90px" viewBox="0 0 42 90" version="1.1" xmlns="http://www.w3.org/2000/svg" xmlns:xlink="http://www.w3.org/1999/xlink">
    <!-- Generator: Sketch 49.3 (51167) - http://www.bohemiancoding.com/sketch -->
    <title>Group</title>
    <desc>Created with Sketch.</desc>
    <defs></defs>
    <g id="Page-1" stroke="none" stroke-width="1" fill="none" fill-rule="evenodd">
        <g id="Group" fill="#000000" fill-rule="nonzero">
            <path d="M3.758,10.394 C4.553,9.05 9.457,0.588 16.573,0.195 C23.691,-0.198 27.473,6.444 28.059,6.96 C28.646,7.477 29.176,8.372 28.375,8.761 C27.578,9.152 24.469,11.189 23.932,11.657 C23.392,12.123 22.153,12.096 21.28,11.384 C20.412,10.67 18.764,8.235 16.169,8.693 C13.575,9.154 11.465,13.33 10.981,14.116 C10.502,14.901 9.458,15.298 8.218,14.605 C6.982,13.915 4.378,12.516 4.097,12.319 C3.815,12.12 3.107,11.497 3.758,10.394 Z" id="Shape"></path>
            <path d="M2.918,16.149 C3.613,16.461 6.538,17.709 7.324,17.941 C8.109,18.174 10.11,19.678 9.404,21.29 C8.699,22.903 6.946,22.841 5.375,22.003 C3.802,21.166 2.272,20.219 1.86,19.974 C1.445,19.726 1.722,15.617 2.918,16.149 Z" id="Shape"></path>
            <path d="M0.952,24.647 C0.882,25.651 0.275,29.229 0.798,29.382 C1.322,29.537 5.14,30.845 6.885,30.535 C8.632,30.228 8.65,28.239 8.564,27.758 C8.481,27.276 7.532,25.462 5.971,25.369 C4.409,25.274 0.952,24.647 0.952,24.647 Z" id="Shape"></path>
            <path d="M1.199,32.287 C0.485,32.362 1.127,38.248 1.513,38.303 C1.894,38.358 6.522,37.91 7.649,37.96 C8.77,38.007 9.324,35.68 8.191,34.455 C7.058,33.23 2.911,32.106 1.199,32.287 Z" id="Shape"></path>
            <path d="M2.057,42.171 C2.299,42.876 3.542,46.866 3.838,47.185 C4.136,47.504 7.759,46.987 8.516,46.358 C9.274,45.727 10.362,44.419 10.024,42.742 C9.685,41.068 8.583,41.14 7.72,41.168 C6.855,41.197 4.788,41.39 2.057,42.171 Z" id="Shape"></path>
            <path d="M5.294,51.264 C4.909,51.446 6.791,56.576 7.015,56.785 C7.237,56.994 11.926,53.377 12.519,52.526 C13.113,51.68 12.324,47.789 11.012,48.333 C9.704,48.872 6.152,50.867 5.294,51.264 Z" id="Shape"></path>
            <path d="M15.666,15.722 C16.265,16 16.5,17.62 15.692,18.32 C14.887,19.019 12.428,20.509 12.092,20.382 C11.763,20.257 11.514,18.505 12.197,17.823 C12.886,17.144 14.993,15.407 15.666,15.722 Z" id="Shape"></path>
            <path d="M11.861,25.009 C11.778,25.717 11.649,28.019 11.873,28.228 C12.096,28.436 15.886,26.404 16.592,24.791 C17.299,23.176 16.6,21.689 16.04,21.664 C15.478,21.641 11.926,24.461 11.861,25.009 Z" id="Shape"></path>
            <path d="M16.028,29.661 C16.943,29.602 17.786,31.909 16.615,32.975 C15.441,34.038 11.857,36.533 11.413,36.488 C10.97,36.444 10.739,33.384 11.216,32.927 C11.695,32.472 14.37,29.766 16.028,29.661 Z" id="Shape"></path>
            <path d="M11.737,39.468 C11.468,39.804 12.372,43.416 13.526,42.885 C14.683,42.352 17.831,39.872 17.411,37.47 C16.988,35.064 15.296,36.916 14.895,37.173 C14.491,37.428 12.027,39.106 11.737,39.468 Z" id="Shape"></path>
            <path d="M17.618,44.062 C18.046,43.986 19.167,49.488 15.466,50.27 C12.647,50.766 14.824,44.557 17.618,44.062 Z" id="Shape"></path>
            <path d="M31.13,11.154 C30.579,11.684 28.263,13.861 27.606,14.347 C26.949,14.838 25.585,16.938 26.801,18.207 C28.018,19.48 29.642,18.82 30.828,17.494 C32.018,16.169 33.125,14.753 33.435,14.379 C33.741,14.008 32.068,10.244 31.13,11.154 Z" id="Shape"></path>
            <path d="M35.892,18.461 C36.303,19.377 38.101,22.53 37.66,22.853 C37.223,23.179 34.086,25.719 32.34,26.028 C30.595,26.338 29.897,24.477 29.808,23.997 C29.724,23.517 29.991,21.486 31.426,20.861 C32.861,20.235 35.892,18.461 35.892,18.461 Z" id="Shape"></path>
            <path d="M38.287,25.719 C38.977,25.544 40.394,31.292 40.058,31.477 C39.717,31.661 35.214,32.831 34.175,33.263 C33.14,33.694 31.821,31.698 32.463,30.159 C33.107,28.617 36.613,26.139 38.287,25.719 Z" id="Shape"></path>
            <path d="M40.874,35.298 C40.89,36.043 41.088,40.216 40.923,40.616 C40.752,41.02 37.173,41.776 36.24,41.447 C35.316,41.115 33.847,40.259 33.588,38.57 C33.328,36.882 34.39,36.572 35.211,36.301 C36.03,36.032 38.041,35.499 40.874,35.298 Z" id="Shape"></path>
            <path d="M40.954,44.947 C41.377,44.987 41.37,50.451 41.233,50.724 C41.093,51 35.448,49.209 34.602,48.616 C33.754,48.023 33.16,44.099 34.576,44.158 C35.993,44.217 40.013,44.868 40.954,44.947 Z" id="Shape"></path>
            <path d="M19.006,15.129 C18.542,15.595 18.877,17.197 19.873,17.577 C20.872,17.96 23.695,18.511 23.964,18.277 C24.232,18.044 23.861,16.313 22.985,15.909 C22.11,15.508 19.533,14.604 19.006,15.129 Z" id="Shape"></path>
            <path d="M25.772,22.542 C26.093,23.181 27.001,25.298 26.865,25.571 C26.728,25.844 22.467,25.235 21.25,23.964 C20.037,22.693 20.182,21.054 20.697,20.839 C21.221,20.625 25.523,22.054 25.772,22.542 Z" id="Shape"></path>
            <path d="M23.457,28.346 C22.573,28.602 22.577,31.059 24.044,31.657 C25.51,32.255 29.732,33.367 30.133,33.174 C30.534,32.979 29.702,30.027 29.095,29.762 C28.49,29.497 25.048,27.876 23.457,28.346 Z" id="Shape"></path>
            <path d="M30.851,36.082 C31.218,36.304 31.619,40.01 30.345,39.907 C29.075,39.805 25.267,38.558 24.84,36.156 C24.407,33.751 26.634,34.908 27.1,35.012 C27.563,35.113 30.458,35.844 30.851,36.082 Z" id="Shape"></path>
            <path d="M26.91,42.417 C26.475,42.496 27.314,48.048 31.062,47.504 C33.877,47.008 29.706,41.922 26.91,42.417 Z" id="Shape"></path>
            <path d="M11.627,65.734 C11.565,66.324 12.564,71.021 12.606,71.262 C12.648,71.5 14.815,70.212 16.034,70.078 C17.247,69.943 19.613,69.731 19.213,67.265 C18.815,64.793 18.095,64.672 17.017,64.778 C15.936,64.889 11.627,65.734 11.627,65.734 Z" id="Shape"></path>
            <path d="M12.944,73.598 C13.034,74.16 13.792,77.496 14.154,77.678 C14.518,77.863 21.001,76.219 20.763,73.948 C20.527,71.674 12.944,73.598 12.944,73.598 Z" id="Shape"></path>
            <path d="M15.198,80.3 L16.953,83.213 C16.953,83.213 23.225,80.372 22.025,78.267 C20.825,76.166 15.198,80.3 15.198,80.3 Z" id="Shape"></path>
            <path d="M39.595,60.287 C39.855,60.813 40.532,65.57 40.576,65.808 C40.618,66.049 38.139,65.579 36.949,65.875 C35.762,66.164 33.47,66.778 32.997,64.323 C32.52,61.862 33.156,61.507 34.206,61.233 C35.257,60.975 39.595,60.287 39.595,60.287 Z" id="Shape"></path>
            <path d="M41.056,68.123 C41.166,68.682 41.601,72.074 41.321,72.373 C41.046,72.666 34.392,73.352 33.837,71.137 C33.281,68.922 41.056,68.123 41.056,68.123 Z" id="Shape"></path>
            <path d="M41.245,75.195 L40.595,78.528 C40.595,78.528 33.73,78.013 34.134,75.63 C34.538,73.243 41.245,75.195 41.245,75.195 Z" id="Shape"></path>
            <path d="M23.593,81.049 C23.593,81.049 26.216,82.812 28.46,82.416 C30.708,82.019 33.745,78.667 33.745,78.667 C33.745,78.667 39.405,80.64 40.039,81.275 C40.678,81.901 38.34,88.267 30.886,89.584 C23.439,90.905 19.08,86.308 19.005,85.903 C18.927,85.506 22.879,82.167 23.593,81.049 Z" id="Shape"></path>
            <circle id="Oval" cx="21.591" cy="64.629" r="1.626"></circle>
            <circle id="Oval" cx="22.778" cy="69.005" r="1"></circle>
            <circle id="Oval" cx="23.551" cy="73.366" r="1"></circle>
            <circle id="Oval" cx="24.852" cy="78.015" r="1.569"></circle>
            <circle id="Oval" cx="28.244" cy="63.451" r="1.626"></circle>
            <path d="M28.629,67.031 C29.149,67.031 29.57,67.45 29.57,67.969 C29.57,68.487 29.148,68.907 28.629,68.907 C28.112,68.907 27.692,68.486 27.692,67.969 C27.692,67.45 28.112,67.031 28.629,67.031 Z" id="Shape"></path>
            <circle id="Oval" cx="29.404" cy="72.332" r="1"></circle>
            <circle id="Oval" cx="29.782" cy="77.143" r="1.569"></circle>
        </g>
    </g>
</svg>