<?xml version="1.0" encoding="UTF-8"?>
<svg width="42px" height="48px" viewBox="0 0 42 48" version="1.1" xmlns="http://www.w3.org/2000/svg" xmlns:xlink="http://www.w3.org/1999/xlink">
    <!-- Generator: Sketch 49.3 (51167) - http://www.bohemiancoding.com/sketch -->
    <title>Group</title>
    <desc>Created with Sketch.</desc>
    <defs></defs>
    <g id="Page-1" stroke="none" stroke-width="1" fill="none" fill-rule="evenodd">
        <g id="Group" fill="#000000" fill-rule="nonzero">
            <path d="M38.2,12.5 C37.6,12.3 35.9,11.9 34.2,13.4 C34.2,13.2 34.2,12.9 34.2,12.7 C34.3,1.5 26.1,0 17.2,0 C8.3,0 0.2,1.5 0.2,12.7 C0.2,17.4 0.8,29.2 5.9,36.6 L5.9,47 C5.9,47.6 6.3,48 6.9,48 L28.8,48 C29.4,48 29.8,47.6 29.8,47 L29.8,37.2 C36.6,36.8 41,22.9 41.5,21.2 C42.7,17.3 40.7,13.4 38.2,12.5 Z M17.2,2 C26.5,2 32.2,3.8 32.2,12.7 C32.2,18.4 32.2,28.9 27.9,35.3 L23.2,35.3 L24.2,32.5 C24.4,32 24.1,31.4 23.6,31.2 C23.1,31 22.5,31.3 22.3,31.8 L21.1,35.3 L18.7,35.3 L18.7,31.2 C18.7,30.6 18.3,30.2 17.7,30.2 C17.1,30.2 16.7,30.6 16.7,31.2 L16.7,35.3 L14.3,35.3 L13.1,31.8 C12.9,31.3 12.3,31 11.8,31.2 C11.3,31.4 11,32 11.2,32.5 L12.2,35.3 L7.3,35.3 C2.4,28.1 2.1,16.2 2.1,12.7 C2.2,3.8 7.9,2 17.2,2 Z M27.8,46 L7.9,46 L7.9,37.3 L27.8,37.3 L27.8,46 Z M39.5,20.7 C38,25.5 34.5,33.9 30.4,35.1 C33.4,29.7 34,22.4 34.2,16.9 C34.7,15.9 35.9,13.8 37.5,14.4 C39.2,15 40.4,17.9 39.5,20.7 Z" id="Shape"></path>
            <path d="M10.5,41.6 C10.5,42.2 10.9,42.6 11.5,42.6 L24.2,42.6 C24.8,42.6 25.2,42.2 25.2,41.6 C25.2,41 24.8,40.6 24.2,40.6 L11.5,40.6 C10.9,40.6 10.5,41.1 10.5,41.6 Z" id="Shape"></path>
        </g>
    </g>
</svg>