<?xml version="1.0" encoding="UTF-8"?>
<svg width="78px" height="72px" viewBox="0 0 78 72" version="1.1" xmlns="http://www.w3.org/2000/svg" xmlns:xlink="http://www.w3.org/1999/xlink">
    <!-- Generator: Sketch 49.3 (51167) - http://www.bohemiancoding.com/sketch -->
    <title>Group</title>
    <desc>Created with Sketch.</desc>
    <defs></defs>
    <g id="Page-1" stroke="none" stroke-width="1" fill="none" fill-rule="evenodd">
        <g id="Group" fill="#000000" fill-rule="nonzero">
            <path d="M10.501,36.625 C10.069,36.625 9.644,36.422 9.376,36.042 C3.363,27.513 2.912,16.439 8.253,8.488 C13.024,1.386 21.16,-1.443 30.576,0.723 C34.151,1.546 37.503,3.308 41.053,6.241 L43.175,4.649 C48.865,-0.013 57.049,-0.602 63.974,3.184 C71.534,7.317 75.574,15.517 74.518,24.584 C74.055,28.557 72.51,32.095 69.794,35.401 C69.313,35.986 68.444,36.072 67.858,35.59 C67.271,35.108 67.186,34.241 67.669,33.654 C70.039,30.769 71.386,27.698 71.785,24.265 C72.723,16.214 69.309,9.235 62.654,5.596 C56.716,2.349 49.737,2.827 44.871,6.812 L41.825,9.1 C41.307,9.489 40.589,9.463 40.096,9.037 C36.581,5.976 33.361,4.186 29.958,3.403 C21.719,1.507 14.635,3.917 10.535,10.022 C5.825,17.033 6.263,26.854 11.623,34.458 C12.061,35.079 11.912,35.937 11.291,36.374 C11.052,36.543 10.775,36.625 10.501,36.625 Z" id="Shape"></path>
            <path d="M39.25,71.375 C39.232,71.375 39.214,71.375 39.196,71.374 C38.776,71.357 38.387,71.15 38.139,70.812 C35.997,67.882 33.111,64.776 30.054,61.487 C25.268,56.337 20.318,51.011 17.289,45.404 C16.929,44.736 17.178,43.902 17.846,43.541 C18.515,43.182 19.348,43.429 19.709,44.098 C22.571,49.397 27.399,54.592 32.068,59.616 C34.718,62.467 37.243,65.184 39.315,67.817 C41.636,65.127 46.957,58.989 49.377,56.42 L49.963,55.799 C53.46,52.092 58.249,47.017 61.055,43.188 C61.504,42.576 62.365,42.443 62.977,42.892 C63.59,43.341 63.722,44.201 63.274,44.814 C60.367,48.78 55.51,53.927 51.963,57.686 L51.378,58.306 C48.343,61.526 40.371,70.804 40.291,70.897 C40.031,71.201 39.65,71.375 39.25,71.375 Z" id="Shape"></path>
            <path d="M36.5,51.875 C35.964,51.875 35.472,51.562 35.248,51.068 C33.226,46.607 29.286,37.895 27.171,33.216 C26.064,36.693 24.841,41.06 24.824,41.12 C24.652,41.735 24.08,42.148 23.44,42.123 C15.596,41.782 8.59,41.625 2.001,41.624 L2,41.624 C1.241,41.624 0.626,41.009 0.625,40.25 C0.624,39.491 1.239,38.875 1.999,38.874 C8.318,38.847 15.026,39.018 22.473,39.329 C23.139,36.991 24.758,31.412 25.723,28.99 C25.927,28.478 26.417,28.136 26.969,28.124 C27.503,28.091 28.026,28.429 28.253,28.932 C28.253,28.932 32.987,39.407 36.178,46.454 C38.05,39.59 42.03,24.985 43.673,18.891 C43.825,18.323 44.323,17.915 44.91,17.877 C45.495,17.834 46.043,18.177 46.269,18.72 L47.519,21.72 C47.544,21.781 47.565,21.843 47.581,21.907 C48.191,24.284 52.705,34.051 54.843,38.57 C60.636,38.253 69.368,38.373 76.102,38.878 C76.86,38.935 77.427,39.595 77.371,40.352 C77.315,41.108 76.659,41.669 75.897,41.62 C68.903,41.097 59.734,40.991 54.092,41.371 C53.516,41.402 53,41.099 52.758,40.59 C52.496,40.042 46.832,28.14 45.241,23.619 C42.551,33.541 37.825,50.86 37.825,50.86 C37.673,51.419 37.186,51.823 36.608,51.869 C36.572,51.874 36.536,51.875 36.5,51.875 Z" id="Shape"></path>
            <path d="M67.639,23.892 C67.49,23.892 67.337,23.874 67.183,23.838 C66.445,23.663 65.988,22.922 66.162,22.183 C66.232,21.886 66.393,21.635 66.609,21.452 C66.473,20.744 66.055,19.463 65.47,18.174 C64.386,15.789 62.169,13.004 59.2,12.341 C58.459,12.176 57.992,11.441 58.157,10.7 C58.322,9.96 59.056,9.489 59.798,9.658 C63.157,10.407 66.213,13.165 67.974,17.037 C70.151,21.83 69.255,22.918 68.96,23.275 C68.632,23.676 68.157,23.892 67.639,23.892 Z" id="Shape"></path>
        </g>
    </g>
</svg>