<?xml version="1.0" encoding="UTF-8"?>
<svg width="86px" height="52px" viewBox="0 0 86 52" version="1.1" xmlns="http://www.w3.org/2000/svg" xmlns:xlink="http://www.w3.org/1999/xlink">
    <!-- Generator: Sketch 49.3 (51167) - http://www.bohemiancoding.com/sketch -->
    <title>Group</title>
    <desc>Created with Sketch.</desc>
    <defs></defs>
    <g id="Page-1" stroke="none" stroke-width="1" fill="none" fill-rule="evenodd">
        <g id="Group" fill="#000000" fill-rule="nonzero">
            <path d="M75.178,22.216 C79.532,22.216 83.081,18.666 83.081,14.313 C83.081,9.96 79.532,6.41 75.178,6.41 C70.825,6.41 67.276,9.96 67.276,14.313 C67.276,18.666 70.825,22.216 75.178,22.216 Z" id="Shape"></path>
            <path d="M20.367,8.624 L40.649,8.624 L47.573,15.577 L22.599,25.304 C24.189,25.766 25.703,26.418 27.187,27.065 C29.505,28.077 31.696,29.034 33.813,29.034 C35.931,29.034 38.122,28.077 40.44,27.065 C43.14,25.888 45.931,24.669 49.121,24.669 C52.311,24.669 55.103,25.888 57.803,27.065 C60.122,28.079 62.313,29.034 64.43,29.034 C66.321,29.034 68.27,28.27 70.315,27.388 L45.078,2.024 C44.296,1.238 43.339,0.844 42.232,0.844 L20.367,0.844 C18.264,0.844 16.551,2.559 16.551,4.66 L16.551,4.805 C16.551,6.908 18.264,8.624 20.367,8.624 Z" id="Shape"></path>
            <path d="M2.973,38.52 C6.168,38.325 8.871,37.202 11.485,36.116 C13.898,35.114 16.178,34.167 18.506,34.167 C20.624,34.167 22.814,35.122 25.132,36.134 C27.832,37.312 30.623,38.53 33.812,38.53 C37.002,38.53 39.792,37.311 42.492,36.134 C44.811,35.122 47.001,34.167 49.119,34.167 C51.239,34.167 53.43,35.124 55.749,36.136 C58.447,37.314 61.239,38.531 64.428,38.531 C67.617,38.531 70.408,37.312 73.109,36.135 C75.427,35.123 77.618,34.168 79.736,34.168 C80.56,34.168 81.45,34.313 82.456,34.609 C83.819,35.013 85.243,34.234 85.644,32.875 C86.045,31.516 85.268,30.088 83.91,29.686 C82.424,29.248 81.058,29.036 79.736,29.036 C76.547,29.036 73.756,30.255 71.055,31.432 C68.737,32.444 66.546,33.399 64.428,33.399 C62.311,33.399 60.12,32.444 57.801,31.432 C55.102,30.254 52.31,29.036 49.119,29.036 C45.93,29.036 43.138,30.255 40.438,31.432 C38.12,32.444 35.929,33.399 33.811,33.399 C31.693,33.399 29.503,32.444 27.185,31.432 C24.485,30.254 21.694,29.036 18.505,29.036 C15.152,29.036 12.287,30.227 9.514,31.378 C7.188,32.343 4.993,33.255 2.657,33.399 C1.242,33.485 0.165,34.704 0.252,36.118 C0.34,37.531 1.57,38.609 2.973,38.52 Z" id="Shape"></path>
            <path d="M83.913,42.311 C82.428,41.872 81.061,41.659 79.737,41.659 C76.548,41.659 73.757,42.878 71.056,44.055 C68.738,45.067 66.547,46.022 64.429,46.022 C62.312,46.022 60.121,45.067 57.802,44.055 C55.103,42.877 52.311,41.659 49.12,41.659 C45.931,41.659 43.139,42.878 40.439,44.055 C38.121,45.067 35.93,46.022 33.812,46.022 C31.694,46.022 29.504,45.067 27.186,44.055 C24.486,42.877 21.695,41.659 18.506,41.659 C15.153,41.659 12.288,42.85 9.516,44.001 C7.19,44.966 4.994,45.88 2.658,46.022 C1.243,46.108 0.167,47.327 0.253,48.741 C0.339,50.157 1.546,51.235 2.972,51.145 C6.168,50.95 8.871,49.827 11.485,48.741 C13.898,47.739 16.177,46.792 18.506,46.792 C20.624,46.792 22.814,47.749 25.132,48.761 C27.832,49.939 30.623,51.157 33.812,51.157 C37.002,51.157 39.792,49.938 42.492,48.761 C44.811,47.749 47.001,46.792 49.119,46.792 C51.238,46.792 53.43,47.749 55.749,48.761 C58.447,49.939 61.238,51.157 64.428,51.157 C67.618,51.157 70.408,49.938 73.109,48.761 C75.427,47.749 77.618,46.792 79.736,46.792 C80.56,46.792 81.45,46.937 82.454,47.233 C83.812,47.639 85.241,46.86 85.643,45.501 C86.045,44.142 85.271,42.713 83.913,42.311 Z" id="Shape"></path>
        </g>
    </g>
</svg>