<?xml version="1.0" encoding="UTF-8"?>
<svg width="76px" height="80px" viewBox="0 0 76 80" version="1.1" xmlns="http://www.w3.org/2000/svg" xmlns:xlink="http://www.w3.org/1999/xlink">
    <!-- Generator: Sketch 49.3 (51167) - http://www.bohemiancoding.com/sketch -->
    <title>Shape</title>
    <desc>Created with Sketch.</desc>
    <defs></defs>
    <g id="Page-1" stroke="none" stroke-width="1" fill="none" fill-rule="evenodd">
        <path d="M74.4,48.6 C72,40.4 65,30.8 59.7,24.3 L59.7,2 C59.7,1.2 59,0.5 58.2,0.5 C57.4,0.5 56.7,1.2 56.7,2 L56.7,26.5 L47.7,26.5 L47.7,2 C47.7,1.2 47,0.5 46.2,0.5 C45.4,0.5 44.7,1.2 44.7,2 L44.7,24.3 C43.3,26.1 41.7,28.1 40.1,30.2 C37.3,25.8 34.1,21.6 31.4,18.3 L31.4,2 C31.4,1.2 30.7,0.5 29.9,0.5 C29.1,0.5 28.4,1.2 28.4,2 L28.4,20.5 L19.4,20.5 L19.4,2 C19.4,1.2 18.7,0.5 17.9,0.5 C17.1,0.5 16.4,1.2 16.4,2 L16.4,18.3 C11.1,24.8 4.1,34.4 1.7,42.6 C1.2,42.8 0.8,43.4 0.8,44 L0.8,52 C0.8,52.4 1,52.8 1.3,53.1 C3.4,64.7 12.8,73.5 23.9,73.5 C27.8,73.5 31.4,72.4 34.6,70.6 C38.8,76.1 45.1,79.5 52.1,79.5 C63.3,79.5 72.6,70.7 74.7,59.1 C75,58.8 75.2,58.4 75.2,58 L75.2,50 C75.2,49.4 74.9,48.9 74.4,48.6 Z M35.4,66.4 C34.2,64.3 33.2,62 32.7,59.5 L41.2,59.5 C39.7,62.2 37.7,64.6 35.4,66.4 Z M32,56.5 L32,51.5 L72.2,51.5 L72.2,56.5 L32,56.5 Z M3.8,50.5 L3.8,45.5 L31,45.5 C30.6,46.6 30.2,47.6 29.9,48.6 C29.4,48.9 29,49.4 29,50 L29,50.5 L3.8,50.5 Z M44,45.5 L44,48.5 L33.1,48.5 C33.4,47.5 33.8,46.5 34.3,45.5 L44,45.5 Z M35.7,42.5 C36.9,40.2 38.3,37.9 39.8,35.7 C41.1,38 42.1,40.3 42.9,42.5 L35.7,42.5 Z M44.9,28.8 C45.2,29.2 45.6,29.5 46.1,29.5 L58.1,29.5 C58.6,29.5 59.1,29.2 59.3,28.8 C63.8,34.6 69,42.1 71.1,48.5 L47,48.5 L47,44 C47,43.4 46.6,42.9 46.1,42.6 C45.2,39.5 43.6,36.2 41.8,33 C42.8,31.6 43.9,30.2 44.9,28.8 Z M16.6,22.8 C16.9,23.2 17.3,23.5 17.8,23.5 L29.8,23.5 C30.3,23.5 30.8,23.2 31,22.8 C33.4,25.8 35.9,29.3 38.1,32.8 C36,36 34,39.2 32.4,42.5 L4.8,42.5 C7,36.1 12.1,28.6 16.6,22.8 Z M23.9,70.5 C14.5,70.5 6.6,63.3 4.4,53.5 L29,53.5 L29,58 C29,58.4 29.2,58.8 29.5,59.1 C30.1,62.4 31.3,65.4 32.9,68.1 C30.2,69.6 27.1,70.5 23.9,70.5 Z M52.1,76.5 C46.1,76.5 40.7,73.6 37.1,68.9 C40.2,66.5 42.8,63.3 44.5,59.5 L71.6,59.5 C69.4,69.3 61.5,76.5 52.1,76.5 Z" id="Shape" fill="#000000" fill-rule="nonzero"></path>
    </g>
</svg>