<?xml version="1.0" encoding="UTF-8"?>
<svg width="84px" height="50px" viewBox="0 0 84 50" version="1.1" xmlns="http://www.w3.org/2000/svg" xmlns:xlink="http://www.w3.org/1999/xlink">
    <!-- Generator: Sketch 49.3 (51167) - http://www.bohemiancoding.com/sketch -->
    <title>Shape</title>
    <desc>Created with Sketch.</desc>
    <defs></defs>
    <g id="Page-1" stroke="none" stroke-width="1" fill="none" fill-rule="evenodd">
        <path d="M80.499,17.65 L77.358,17.65 C77.048,17.65 76.754,17.716 76.474,17.812 L76.474,9.596 C76.474,7.914 75.18,6.546 73.59,6.546 L70.45,6.546 C70.14,6.546 69.846,6.612 69.566,6.708 L69.566,3.479 C69.566,1.889 68.272,0.595 66.682,0.595 L63.541,0.595 C61.951,0.595 60.657,1.889 60.657,3.479 L60.657,19.28 L23.343,19.28 L23.343,3.479 C23.343,1.889 22.049,0.595 20.459,0.595 L17.318,0.595 C15.728,0.595 14.434,1.889 14.434,3.479 L14.434,6.708 C14.154,6.612 13.86,6.546 13.55,6.546 L10.409,6.546 C8.819,6.546 7.525,7.914 7.525,9.596 L7.525,17.812 C7.245,17.716 6.951,17.65 6.641,17.65 L3.5,17.65 C1.91,17.65 0.616,19.018 0.616,20.7 L0.616,29.753 C0.616,31.435 1.91,32.803 3.5,32.803 L6.64,32.803 C6.95,32.803 7.244,32.737 7.524,32.641 L7.524,40.856 C7.524,42.538 8.818,43.906 10.408,43.906 L13.549,43.906 C13.859,43.906 14.153,43.84 14.433,43.744 L14.433,46.973 C14.433,48.563 15.726,49.857 17.317,49.857 L20.458,49.857 C22.048,49.857 23.342,48.563 23.342,46.973 L23.342,31.172 L60.656,31.172 L60.656,46.973 C60.656,48.563 61.95,49.857 63.54,49.857 L66.681,49.857 C68.271,49.857 69.565,48.563 69.565,46.973 L69.565,43.744 C69.845,43.84 70.139,43.906 70.449,43.906 L73.59,43.906 C75.18,43.906 76.474,42.538 76.474,40.856 L76.474,32.64 C76.754,32.736 77.048,32.802 77.358,32.802 L80.499,32.802 C82.09,32.802 83.384,31.434 83.384,29.752 L83.384,20.699 C83.384,19.018 82.09,17.65 80.499,17.65 Z M7.525,29.753 C7.525,30.322 7.12,30.803 6.641,30.803 L3.5,30.803 C3.021,30.803 2.616,30.322 2.616,29.753 L2.616,20.7 C2.616,20.131 3.021,19.65 3.5,19.65 L6.64,19.65 C7.119,19.65 7.524,20.131 7.524,20.7 L7.524,29.753 L7.525,29.753 Z M14.434,40.856 C14.434,41.425 14.029,41.906 13.55,41.906 L10.409,41.906 C9.93,41.906 9.525,41.425 9.525,40.856 L9.525,29.753 L9.525,20.7 L9.525,9.596 C9.525,9.027 9.93,8.546 10.409,8.546 L13.55,8.546 C14.029,8.546 14.434,9.027 14.434,9.596 L14.434,40.856 Z M21.343,20.28 L21.343,30.172 L21.343,46.973 C21.343,47.461 20.947,47.857 20.459,47.857 L17.318,47.857 C16.831,47.857 16.434,47.461 16.434,46.973 L16.434,40.856 L16.434,9.596 L16.434,3.479 C16.434,2.991 16.83,2.595 17.318,2.595 L20.459,2.595 C20.947,2.595 21.343,2.991 21.343,3.479 L21.343,20.28 Z M60.657,29.172 L23.343,29.172 L23.343,21.28 L60.657,21.28 L60.657,29.172 Z M67.566,9.596 L67.566,40.856 L67.566,46.973 C67.566,47.461 67.17,47.857 66.682,47.857 L63.541,47.857 C63.053,47.857 62.657,47.461 62.657,46.973 L62.657,30.172 L62.657,20.28 L62.657,3.479 C62.657,2.991 63.053,2.595 63.541,2.595 L66.682,2.595 C67.17,2.595 67.566,2.991 67.566,3.479 L67.566,9.596 Z M74.475,20.699 L74.475,29.752 L74.475,40.855 C74.475,41.424 74.07,41.905 73.591,41.905 L70.45,41.905 C69.971,41.905 69.566,41.424 69.566,40.855 L69.566,9.595 C69.566,9.026 69.971,8.545 70.45,8.545 L73.591,8.545 C74.07,8.545 74.475,9.026 74.475,9.595 L74.475,20.699 Z M81.384,29.753 C81.384,30.322 80.979,30.803 80.499,30.803 L77.358,30.803 C76.879,30.803 76.474,30.322 76.474,29.753 L76.474,20.7 C76.474,20.131 76.878,19.65 77.358,19.65 L80.499,19.65 C80.978,19.65 81.384,20.131 81.384,20.7 L81.384,29.753 Z" id="Shape" fill="#000000" fill-rule="nonzero"></path>
    </g>
</svg>