<?xml version="1.0" encoding="UTF-8"?>
<svg width="14px" height="13px" viewBox="0 0 14 13" version="1.1" xmlns="http://www.w3.org/2000/svg" xmlns:xlink="http://www.w3.org/1999/xlink">
    <!-- Generator: Sketch 46.2 (44496) - http://www.bohemiancoding.com/sketch -->
    <title>Page 1</title>
    <desc>Created with Sketch.</desc>
    <defs></defs>
    <g id="Page-1" stroke="none" stroke-width="1" fill="none" fill-rule="evenodd">
        <g transform="translate(0.000000, -1.000000)" fill="#CCD3DE">
            <path d="M9.27,5.2446 C9.085,5.2556 8.957,5.3176 8.861,5.4226 L5.966,8.5356 L4.3,7.1256 C4.196,7.0316 4.067,6.9826 3.933,6.9826 C3.781,6.9826 3.636,7.0456 3.535,7.1546 C3.439,7.2586 3.39,7.3926 3.396,7.5336 C3.402,7.6736 3.464,7.8026 3.569,7.8976 L5.664,9.6686 C5.762,9.7506 5.887,9.7966 6.016,9.7966 C6.166,9.7966 6.311,9.7346 6.412,9.6246 L9.655,6.1376 C9.755,6.0326 9.808,5.8996 9.805,5.7596 C9.801,5.6196 9.743,5.4886 9.639,5.3906 C9.54,5.2966 9.409,5.2446 9.27,5.2446" id="Fill-1"></path>
            <g id="Group-5" transform="translate(0.000000, 0.971700)">
                <path d="M6.6001,11.9883 C3.5171,11.9883 1.0291,9.5433 1.0291,6.5143 C1.0291,3.4853 3.5171,1.0403 6.6001,1.0403 C9.6821,1.0403 12.1711,3.4853 12.1711,6.5143 C12.1711,9.5433 9.6821,11.9883 6.6001,11.9883 M6.6001,0.0283 C2.9611,0.0283 0.0001,2.9383 0.0001,6.5143 C0.0001,10.0913 2.9611,13.0003 6.6001,13.0003 C10.2401,13.0003 13.2001,10.0913 13.2001,6.5143 C13.2001,2.9383 10.2401,0.0283 6.6001,0.0283" id="Fill-3"></path>
            </g>
        </g>
    </g>
</svg>