<?xml version="1.0" encoding="UTF-8"?>
<svg width="13px" height="16px" viewBox="0 0 13 16" version="1.1" xmlns="http://www.w3.org/2000/svg" xmlns:xlink="http://www.w3.org/1999/xlink">
    <!-- Generator: Sketch 46.2 (44496) - http://www.bohemiancoding.com/sketch -->
    <title>Group 10 Copy 2</title>
    <desc>Created with Sketch.</desc>
    <defs>
        <polygon id="path-1" points="1.00675916e-19 0.215341176 1.00675916e-19 14.9542484 12.2562143 14.9542484 12.2562143 0.215341176"></polygon>
    </defs>
    <g id="Page-1" stroke="none" stroke-width="1" fill="none" fill-rule="evenodd">
        <g id="Group-10-Copy-2">
            <g id="Page-1">
                <g id="Group-3" transform="translate(0.000000, 0.719206)">
                    <mask id="mask-2" fill="white">
                        <use xlink:href="#path-1"></use>
                    </mask>
                    <g id="Clip-2"></g>
                    <path d="M6.1282,13.4582627 C3.56534286,13.4582627 1.48534286,11.364668 1.48534286,8.78506013 C1.48534286,6.20451765 3.56534286,4.11185752 6.1282,4.11185752 C8.69105714,4.11185752 10.7710571,6.20451765 10.7710571,8.78506013 C10.7710571,11.364668 8.69105714,13.4582627 6.1282,13.4582627 M10.9512,4.99135425 L11.6662,4.27261569 C11.8277714,4.10905359 11.9159857,3.89221699 11.9159857,3.66042614 C11.9159857,3.42863529 11.8268429,3.20992941 11.6652714,3.04730196 C11.3421286,2.72485098 10.7738429,2.7229817 10.4488429,3.04730196 L9.71155714,3.79034118 C8.9232,3.21553725 7.99555714,2.8267268 6.98805714,2.6837268 L6.98805714,1.94536078 L7.11248571,1.94536078 C7.58512857,1.94536078 7.97048571,1.55748497 7.97048571,1.0808183 C7.97048571,0.603216993 7.58512857,0.215341176 7.11248571,0.215341176 L5.14298571,0.215341176 C4.67034286,0.215341176 4.28498571,0.603216993 4.28498571,1.0808183 C4.28498571,1.55748497 4.67034286,1.94536078 5.14298571,1.94536078 L5.26834286,1.94536078 L5.26834286,2.6837268 C2.29505714,3.10711895 -0.000371428571,5.67738039 -0.000371428571,8.78506013 C-0.000371428571,12.1871516 2.74727143,14.9546222 6.1282,14.9546222 C9.5082,14.9546222 12.2567714,12.1871516 12.2567714,8.78506013 C12.2567714,7.35506013 11.7655571,6.04002092 10.9512,4.99135425" id="Fill-1" fill="#8B96AA" mask="url(#mask-2)"></path>
                </g>
                <path d="M8.56022143,7.75452549 L7.16922143,9.50136863 C7.26207857,10.1780484 6.79407857,10.8033229 6.12272143,10.8967869 C5.45136429,10.9911856 4.83015,10.5201268 4.73729286,9.8443817 C4.64257857,9.1686366 5.11057857,8.54336209 5.78286429,8.4489634 C5.89707857,8.43400915 6.01315,8.43400915 6.12736429,8.44989804 L7.86379286,7.04980654 C8.07643571,6.87876732 8.38750714,6.91147974 8.56022143,7.12457778 C8.70507857,7.30683268 8.70507857,7.56853203 8.56022143,7.74985229 L8.56022143,7.75452549 Z" id="Fill-4" fill="#8B96AA"></path>
            </g>
        </g>
    </g>
</svg>