<?xml version="1.0" encoding="UTF-8"?>
<svg width="50px" height="39px" viewBox="0 0 50 39" version="1.1" xmlns="http://www.w3.org/2000/svg" xmlns:xlink="http://www.w3.org/1999/xlink">
    <!-- Generator: Sketch 52.1 (67048) - http://www.bohemiancoding.com/sketch -->
    <title>Path</title>
    <desc>Created with Sketch.</desc>
    <g id="Page-2" stroke="none" stroke-width="1" fill="none" fill-rule="evenodd">
        <g id="Artboard" transform="translate(-1205.000000, -1046.000000)" fill="#000000">
            <path d="M1252.53325,1063.18157 L1213.37969,1063.18157 L1225.55929,1050.8848 C1226.20599,1050.26446 1226.4654,1049.3422 1226.23691,1048.4757 C1226.00843,1047.60919 1225.328,1046.93475 1224.45951,1046.71394 C1223.59102,1046.49313 1222.67109,1046.76069 1222.0565,1047.41284 L1205.71425,1063.90926 C1204.76192,1064.87066 1204.76192,1066.41981 1205.71425,1067.38121 L1222.0565,1083.87763 C1223.02217,1084.80394 1224.55027,1084.79143 1225.50063,1083.84943 C1226.451,1082.90743 1226.47702,1081.37949 1225.55929,1080.40568 L1213.37969,1068.11507 L1252.53325,1068.11507 C1253.8956,1068.11507 1255,1067.01067 1255,1065.64832 C1255,1064.28597 1253.8956,1063.18157 1252.53325,1063.18157 Z" id="Path"></path>
        </g>
    </g>
</svg>