<?xml version="1.0" encoding="UTF-8"?>
<svg width="42px" height="40px" viewBox="0 0 42 40" version="1.1" xmlns="http://www.w3.org/2000/svg" xmlns:xlink="http://www.w3.org/1999/xlink">
    <!-- Generator: Sketch 52.1 (67048) - http://www.bohemiancoding.com/sketch -->
    <title>Group 33</title>
    <desc>Created with Sketch.</desc>
    <g id="Page-2" stroke="none" stroke-width="1" fill="none" fill-rule="evenodd">
        <g id="Artboard" transform="translate(-1136.000000, -964.000000)" fill-rule="nonzero">
            <g id="Group-33" transform="translate(1136.000000, 964.000000)">
                <g id="Group-32">
                    <path d="M1.40625,5.41365829e-14 C0.6539625,0.0023809521 0.0154171875,0.826561806 0,1.42856173 L0,37.6190479 C0.000121875,38.1678097 0.122882812,38.8668097 0.659179688,39.3898572 C1.19547656,39.9129048 1.84881563,39.9998571 2.34375,40 C2.59558594,39.9952381 2.84640938,39.9247143 3.06152344,39.7916667 L15,32.6041437 L26.9384766,39.7916667 C27.1535906,39.9247143 27.4044141,39.9975238 27.65625,40 C28.1511844,39.9998571 28.8045234,39.9129048 29.3408203,39.3898572 C29.8771172,38.8668097 29.9998781,38.1678097 30,37.6190479 L30,1.42856173 C29.999925,0.680609443 29.3300391,7.61904671e-05 28.59375,0 L1.40625,0 Z M2.8125,2.85713299 L27.1875,2.85713299 L27.1875,36.6220004 L15.7177734,29.7172393 C15.2859141,29.456906 14.7140859,29.456906 14.2822266,29.7172393 L2.8125,36.6220004 L2.8125,2.85713299 Z" id="Shape" fill="#000000"></path>
                    <g id="Group-30" transform="translate(19.000000, 4.000000)">
                        <path d="M21.9238056,9.27851459 L21.8078066,8.81167109 L19.1398303,8.34482759 C18.9078323,8.34482759 18.6758344,8.11140584 18.5598354,7.87798408 C18.4438364,7.64456233 18.4438364,7.41114058 18.6758344,7.17771883 L20.29982,4.9602122 L20.067822,4.61007958 C19.3718282,3.67639257 18.5598354,2.74270557 17.5158447,2.04244032 L17.1678478,1.80901857 L14.9638673,3.44297082 C14.7318694,3.5596817 14.4998714,3.67639257 14.2678735,3.5596817 C14.0358755,3.44297082 13.8038776,3.20954907 13.8038776,2.97612732 L13.3398817,0.291777188 L12.8758858,0.175066313 C11.5998971,-0.0583554377 10.5559064,-0.0583554377 9.27991771,0.175066313 L8.81592182,0.175066313 L8.35192594,2.85941645 C8.35192594,3.0928382 8.11992799,3.32625995 7.88793005,3.44297082 C7.65593211,3.5596817 7.42393417,3.5596817 7.19193622,3.32625995 L4.98795577,1.80901857 L4.63995885,2.04244032 C3.59596811,2.74270557 2.78397531,3.5596817 2.08798148,4.61007958 L1.85598354,4.9602122 L3.47996914,7.17771883 C3.59596811,7.41114058 3.71196708,7.64456233 3.59596811,7.87798408 C3.47996914,8.11140584 3.13197223,8.34482759 2.89997428,8.34482759 L0.231997943,8.81167109 L0.115998971,9.27851459 C0,9.86206897 0,10.4456233 0,11.0291777 C0,11.6127321 0,12.1962865 0.115998971,12.7798408 L0.231997943,13.2466844 L2.89997428,13.7135279 C3.13197223,13.7135279 3.36397017,13.9469496 3.47996914,14.1803714 C3.59596811,14.4137931 3.59596811,14.6472149 3.36397017,14.8806366 L1.73998457,17.0981432 L1.97198251,17.4482759 C2.66797634,18.3819629 3.47996914,19.3156499 4.52395988,20.0159151 L4.8719568,20.2493369 L7.07593725,18.6153846 C7.30793519,18.4986737 7.53993314,18.3819629 7.77193108,18.4986737 C8.00392902,18.6153846 8.23592696,18.8488064 8.23592696,19.0822281 L8.69992285,21.7665782 L9.16391874,21.8832891 C9.85991256,22 10.4399074,22 10.9039033,22 C11.3678992,22 12.063893,22 12.6438879,21.8832891 L13.1078838,21.7665782 L13.5718796,19.0822281 C13.5718796,18.8488064 13.8038776,18.6153846 14.0358755,18.4986737 C14.2678735,18.3819629 14.4998714,18.3819629 14.7318694,18.6153846 L16.9358498,20.2493369 L17.2838467,20.0159151 C18.2118385,19.3156499 19.1398303,18.4986737 19.8358241,17.4482759 L20.067822,17.0981432 L18.4438364,14.8806366 C18.3278375,14.6472149 18.2118385,14.4137931 18.3278375,14.1803714 C18.4438364,13.9469496 18.6758344,13.7135279 18.9078323,13.7135279 L21.5758087,13.2466844 L21.6918076,12.7798408 C21.8078066,12.0795756 21.8078066,11.4960212 21.8078066,11.0291777 C22.0398046,10.4456233 22.0398046,9.86206897 21.9238056,9.27851459 Z" id="Path" stroke="#000000" fill="#FFFFFF"></path>
                        <path d="M20.7660819,12.179941 L18.8947368,12.5339233 C18.1929825,12.6519174 17.7251462,13.1238938 17.4912281,13.7138643 C17.2573099,14.3038348 17.2573099,15.0117994 17.7251462,15.6017699 L18.7777778,17.1356932 C18.3099415,17.7256637 17.7251462,18.3156342 17.0233918,18.9056047 L15.502924,17.8436578 C14.9181287,17.4896755 14.2163743,17.3716814 13.6315789,17.6076696 C13.0467836,17.8436578 12.5789474,18.4336283 12.4619883,19.0235988 L12.1111111,20.9115044 C11.2923977,21.0294985 10.5906433,21.0294985 9.65497076,20.9115044 L9.30409357,19.0235988 C9.1871345,18.3156342 8.71929825,17.8436578 8.13450292,17.6076696 C7.5497076,17.3716814 6.84795322,17.3716814 6.26315789,17.8436578 L4.74269006,18.9056047 C4.15789474,18.4336283 3.57309942,17.8436578 2.98830409,17.1356932 L4.04093567,15.6017699 C4.39181287,15.0117994 4.50877193,14.3038348 4.2748538,13.7138643 C4.04093567,13.1238938 3.45614035,12.6519174 2.87134503,12.5339233 L1.11695906,12.179941 C1.11695906,11.7079646 1,11.3539823 1,11 C1,10.6460177 1,10.1740413 1.11695906,9.820059 L2.98830409,9.4660767 C3.69005848,9.3480826 4.15789474,8.87610619 4.39181287,8.28613569 C4.62573099,7.69616519 4.62573099,6.98820059 4.15789474,6.39823009 L3.10526316,4.86430678 C3.57309942,4.27433628 4.15789474,3.68436578 4.85964912,3.09439528 L6.38011696,4.15634218 C6.96491228,4.51032448 7.66666667,4.62831858 8.25146199,4.39233038 C8.83625731,4.15634218 9.30409357,3.56637168 9.42105263,2.97640118 L9.77192982,1.08849558 C10.5906433,0.970501475 11.2923977,0.970501475 12.2280702,1.08849558 L12.5789474,2.97640118 C12.6959064,3.68436578 13.1637427,4.15634218 13.748538,4.39233038 C14.3333333,4.62831858 15.0350877,4.62831858 15.619883,4.15634218 L17.1403509,3.09439528 C17.7251462,3.56637168 18.3099415,4.15634218 18.8947368,4.86430678 L17.8421053,6.39823009 C17.4912281,6.98820059 17.374269,7.69616519 17.6081871,8.28613569 C17.8421053,8.87610619 18.4269006,9.3480826 19.0116959,9.4660767 L20.8830409,9.820059 C20.8830409,10.2920354 21,10.6460177 21,11 C21,11.3539823 20.8830409,11.8259587 20.7660819,12.179941 Z" id="Path" stroke="#FFFFFF" fill="#FFFFFF"></path>
                        <path d="M11,8 C9.32,8 8,9.32 8,11 C8,12.68 9.32,14 11,14 C12.68,14 14,12.68 14,11 C14,9.32 12.68,8 11,8 Z M11,12.8 C10.04,12.8 9.2,11.96 9.2,11 C9.2,10.04 10.04,9.2 11,9.2 C11.96,9.2 12.8,10.04 12.8,11 C12.8,11.96 11.96,12.8 11,12.8 Z" id="Shape" fill="#000000"></path>
                    </g>
                </g>
            </g>
        </g>
    </g>
</svg>