<?xml version="1.0" encoding="UTF-8"?>
<svg width="40px" height="33px" viewBox="0 0 40 33" version="1.1" xmlns="http://www.w3.org/2000/svg" xmlns:xlink="http://www.w3.org/1999/xlink">
    <!-- Generator: Sketch 52.1 (67048) - http://www.bohemiancoding.com/sketch -->
    <title>Group</title>
    <desc>Created with Sketch.</desc>
    <g id="Page-2" stroke="none" stroke-width="1" fill="none" fill-rule="evenodd">
        <g id="Artboard" transform="translate(-470.000000, -164.000000)" fill="#000000" fill-rule="nonzero">
            <g id="Group" transform="translate(470.000000, 164.000000)">
                <g id="Shape">
                    <path d="M0,30.4166667 C0,29.4897747 0.746710417,28.75 1.66782442,28.75 L38.3321756,28.75 C39.254218,28.75 40,29.4961921 40,30.4166667 C40,31.3435587 39.2532896,32.0833333 38.3321756,32.0833333 L1.66782442,32.0833333 C0.745782,32.0833333 0,31.3371412 0,30.4166667 Z M0,16.25 C0,15.323108 0.746710417,14.5833333 1.66782442,14.5833333 L38.3321756,14.5833333 C39.254218,14.5833333 40,15.3295254 40,16.25 C40,17.176892 39.2532896,17.9166667 38.3321756,17.9166667 L1.66782442,17.9166667 C0.745782,17.9166667 0,17.1704746 0,16.25 Z M0,2.08333333 C0,1.15644133 0.746710417,0.416666667 1.66782442,0.416666667 L38.3321756,0.416666667 C39.254218,0.416666667 40,1.16285875 40,2.08333333 C40,3.01022533 39.2532896,3.75 38.3321756,3.75 L1.66782442,3.75 C0.745782,3.75 0,3.00380792 0,2.08333333 Z"></path>
                </g>
            </g>
        </g>
    </g>
</svg>