<?xml version="1.0" encoding="UTF-8"?>
<svg width="30px" height="40px" viewBox="0 0 30 40" version="1.1" xmlns="http://www.w3.org/2000/svg" xmlns:xlink="http://www.w3.org/1999/xlink">
    <!-- Generator: Sketch 52.1 (67048) - http://www.bohemiancoding.com/sketch -->
    <title>Group 19</title>
    <desc>Created with Sketch.</desc>
    <g id="Page-2" stroke="none" stroke-width="1" fill="none" fill-rule="evenodd">
        <g id="Artboard" transform="translate(-662.000000, -1024.000000)">
            <g id="Group-19" transform="translate(662.000000, 1024.000000)">
                <g id="Group-17" transform="translate(7.500000, 7.529412)" stroke="#000000" stroke-linecap="round" stroke-linejoin="round" stroke-width="2">
                    <path d="M7.2515625,15.0588235 L7.2515625,0.470588235" id="Path"></path>
                    <path d="M7.7625,15.0162132 L7.7625,0.484963235" id="Path" transform="translate(7.762500, 7.750588) rotate(90.000000) translate(-7.762500, -7.750588) "></path>
                </g>
                <path d="M1.40625,0.300150588 C0.6539625,0.302503529 0.0154171875,1.11698824 0,1.71190588 L0,37.4766259 C0.000121875,38.0189318 0.122882812,38.7097082 0.659179688,39.2266024 C1.19547656,39.7434965 1.84881563,39.8294259 2.34375,39.8295671 C2.59558594,39.8248612 2.84640938,39.7551671 3.06152344,39.6236847 L15,32.52072 L26.9384766,39.6236847 C27.1535906,39.7551671 27.4044141,39.82712 27.65625,39.8295671 C28.1511844,39.8294259 28.8045234,39.7434965 29.3408203,39.2266024 C29.8771172,38.7097082 29.9998781,38.0189318 30,37.4766259 L30,1.71190588 C29.999925,0.972752941 29.3300391,0.300225882 28.59375,0.300150588 L1.40625,0.300150588 Z M2.8125,3.12367059 L27.1875,3.12367059 L27.1875,36.4913082 L15.7177734,29.6677788 C15.2859141,29.4105082 14.7140859,29.4105082 14.2822266,29.6677788 L2.8125,36.4913082 L2.8125,3.12367059 Z" id="Shape" fill="#000000" fill-rule="nonzero"></path>
            </g>
        </g>
    </g>
</svg>