<?xml version="1.0" encoding="UTF-8"?>
<svg width="30px" height="40px" viewBox="0 0 30 40" version="1.1" xmlns="http://www.w3.org/2000/svg" xmlns:xlink="http://www.w3.org/1999/xlink">
    <!-- Generator: Sketch 52.1 (67048) - http://www.bohemiancoding.com/sketch -->
    <title>Shape</title>
    <desc>Created with Sketch.</desc>
    <g id="Page-2" stroke="none" stroke-width="1" fill="none" fill-rule="evenodd">
        <g id="Artboard" transform="translate(-937.000000, -852.000000)" fill="#000000" fill-rule="nonzero">
            <path d="M938.40625,852 C937.653963,852.002381 937.015417,852.826562 937,853.428562 L937,889.619048 C937.000122,890.16781 937.122883,890.86681 937.65918,891.389857 C938.195477,891.912905 938.848816,891.999857 939.34375,892 C939.595586,891.995238 939.846409,891.924714 940.061523,891.791667 L952,884.604144 L963.938477,891.791667 C964.153591,891.924714 964.404414,891.997524 964.65625,892 C965.151184,891.999857 965.804523,891.912905 966.34082,891.389857 C966.877117,890.86681 966.999878,890.16781 967,889.619048 L967,853.428562 C966.999925,852.680609 966.330039,852.000076 965.59375,852 L938.40625,852 Z M939.8125,854.857133 L964.1875,854.857133 L964.1875,888.622 L952.717773,881.717239 C952.285914,881.456906 951.714086,881.456906 951.282227,881.717239 L939.8125,888.622 L939.8125,854.857133 Z" id="Shape"></path>
        </g>
    </g>
</svg>