<?xml version="1.0" encoding="UTF-8"?>
<svg width="321px" height="367px" viewBox="0 0 321 367" version="1.1" xmlns="http://www.w3.org/2000/svg" xmlns:xlink="http://www.w3.org/1999/xlink">
    <!-- Generator: Sketch 51.3 (57544) - http://www.bohemiancoding.com/sketch -->
    <title>Shape</title>
    <desc>Created with Sketch.</desc>
    <defs></defs>
    <g id="Page-1" stroke="none" stroke-width="1" fill="none" fill-rule="evenodd">
        <path d="M224.7,218 C204.135938,218 194.247991,229.461538 160.5,229.461538 C126.752009,229.461538 116.935714,218 96.3,218 C43.134375,218 0,261.124038 0,314.276923 L0,332.615385 C0,351.598558 15.4051339,367 34.3928571,367 L286.607143,367 C305.594866,367 321,351.598558 321,332.615385 L321,314.276923 C321,261.124038 277.865625,218 224.7,218 Z M286,332 L34,332 L34,313.714286 C34,279.714286 61.7772727,252 95.8545455,252 C106.306818,252 123.273864,263.428571 160,263.428571 C197.0125,263.428571 213.621591,252 224.145455,252 C258.222727,252 286,279.714286 286,313.714286 L286,332 Z M160,206 C216.864583,206 263,159.864583 263,103 C263,46.1354167 216.864583,0 160,0 C103.135417,0 57,46.1354167 57,103 C57,159.864583 103.135417,206 160,206 Z M161,34 C199.021875,34 230,64.978125 230,103 C230,141.021875 199.021875,172 161,172 C122.978125,172 92,141.021875 92,103 C92,64.978125 122.978125,34 161,34 Z" id="Shape" fill="#000000" fill-rule="nonzero"></path>
    </g>
</svg>