<?xml version="1.0" encoding="UTF-8"?>
<svg width="78px" height="75px" viewBox="0 0 78 75" version="1.1" xmlns="http://www.w3.org/2000/svg" xmlns:xlink="http://www.w3.org/1999/xlink">
    <!-- Generator: Sketch 52.1 (67048) - http://www.bohemiancoding.com/sketch -->
    <title>Group 40</title>
    <desc>Created with Sketch.</desc>
    <g id="Page-2" stroke="none" stroke-width="1" fill="none" fill-rule="evenodd">
        <g id="Artboard" transform="translate(-425.000000, -893.000000)">
            <g id="Group-40" transform="translate(425.000000, 893.000000)">
                <path d="M58.7275676,5.72540541 C47.4562162,-0.237837838 32.9827027,-0.330810811 21.0886486,3.85081081 C9.37189189,7.96540541 2.26918919,17.4918919 0.690810811,29.6648649 C-1.11027027,43.5459459 4.35783784,57.9243243 15.3372973,66.6637838 C26.6540541,75.6735135 42.2475676,77.0162162 55.3308108,71.2756757 C68.5113514,65.4897297 76.7145946,52.0064865 77.5837838,37.9243243 C78.1005405,24.1837838 70.827027,12.1254054 58.7275676,5.72540541 Z" id="Path" fill="#FFFFFF" fill-rule="nonzero"></path>
                <path d="M47.9751351,68.9448649 C33.5989189,72.9556757 18.267027,66.64 10.3989189,54.1427027 C3.41081081,43.0248649 2.46810811,25.6281081 11.5859459,15.3859459 C19.6767568,6.29405405 34.6951351,4.38918919 46.0681081,6.36324324 C61.7459459,9.08540541 73.4821622,21.7340541 72.8702703,37.9221622 C71.9621622,52.5491892 62.1243243,64.9967568 47.9751351,68.9448649 Z" id="Path" fill="#000000" fill-rule="nonzero"></path>
                <path d="M35.7286486,14.5059459 C22.3491892,18.9513514 13.2356757,33.1394595 16.7902703,45.7491892 C20.3491892,58.3632432 33.9124324,66.4886486 46.4464865,61.6237838 C54.2562162,58.5945946 61.7805405,52.8756757 64.1545946,45.5113514 C65.5318919,41.2324324 64.2454054,35.68 62.9372973,31.0508108 C59.3827027,18.4367568 48.292973,10.3264865 35.7286486,14.5059459 Z" id="Path" fill="#FFFFFF"></path>
            </g>
        </g>
    </g>
</svg>