<?xml version="1.0" encoding="UTF-8"?>
<svg width="9px" height="15px" viewBox="0 0 9 15" version="1.1" xmlns="http://www.w3.org/2000/svg" xmlns:xlink="http://www.w3.org/1999/xlink">
    <!-- Generator: Sketch 46.2 (44496) - http://www.bohemiancoding.com/sketch -->
    <title>Shape Copy 2</title>
    <desc>Created with Sketch.</desc>
    <defs></defs>
    <g id="Page-1" stroke="none" stroke-width="1" fill="none" fill-rule="evenodd">
        <path d="M2.67317702,14.8895825 C2.9752318,15.0032202 3.31574583,14.8933074 3.49435878,14.6245175 L8.88401371,6.51664698 C9.03326882,6.29225865 9.03889771,6.00169015 8.89844503,5.7716896 C8.75799235,5.54168904 8.49693466,5.413976 8.22914724,5.44425984 L6.01680737,5.69546523 L6.1640657,0.712936273 C6.17311542,0.397782385 5.96828648,0.116243394 5.66564599,0.0278544499 C5.3630055,-0.0605344948 5.03884638,0.0665086564 4.87685464,0.336994415 L0.0952899957,8.34784765 C-0.0373765043,8.57395094 -0.0310981365,8.85556225 0.111513233,9.07552838 C0.254124603,9.2954945 0.508653558,9.41615669 0.769213418,9.38731822 L2.89319829,9.14477509 L2.23140203,14.1498259 C2.18883367,14.4691169 2.37188643,14.7756405 2.67317702,14.8895825 Z M2.00445095,7.85583157 L4.70014464,3.34106438 L4.60832474,6.4594761 C4.60251936,6.66030077 4.68415623,6.85375999 4.83207731,6.98971442 C4.97999838,7.12566885 5.17964179,7.19073465 5.37926542,7.16804854 L6.90555471,6.99480345 L3.998502,11.3623123 L4.38483857,8.4517947 C4.41146186,8.2526953 4.35038327,8.05183998 4.21742736,7.90126742 C4.08447146,7.75069485 3.89272189,7.66522229 3.69185818,7.66699442 L3.61389789,7.66699442 L2.00445095,7.85583157 Z" id="Shape-Copy-2" fill="#FFD302" fill-rule="nonzero"></path>
    </g>
</svg>