<?xml version="1.0" encoding="UTF-8"?>
<svg width="19px" height="19px" viewBox="0 0 19 19" version="1.1" xmlns="http://www.w3.org/2000/svg" xmlns:xlink="http://www.w3.org/1999/xlink">
    <!-- Generator: Sketch 52.1 (67048) - http://www.bohemiancoding.com/sketch -->
    <title>Shape</title>
    <desc>Created with Sketch.</desc>
    <g id="Page-1" stroke="none" stroke-width="1" fill="none" fill-rule="evenodd">
        <g id="Menu-marca-" transform="translate(-18.000000, -173.000000)" fill="#000000" fill-rule="nonzero">
            <path d="M34.3607723,174.583646 L32.777048,174.583646 L32.777048,173 L31.7215446,173 L31.7215446,174.583646 L23.2775172,174.583646 L23.2775172,173 L22.2220137,173 L22.2220137,174.583646 L20.6392277,174.583646 C19.1840403,174.583646 18,175.767628 18,177.222743 L18,189.360903 C18,190.816018 19.1840403,192 20.6392277,192 L34.3607723,192 C35.8159597,192 37,190.816018 37,189.360903 L37,179.860903 L37,178.805451 L37,177.221805 C36.9990618,175.76669 35.8150215,174.583646 34.3607723,174.583646 Z M36,189.428971 C36,190.295039 35.2850556,191 34.4067222,191 L20.5942222,191 C19.7149444,191 19,190.295039 19,189.428971 L19,180 L36,180 L36,189.428971 Z M36,179 L19,179 L19,177.5 C19,176.67269 19.7149444,176 20.5942222,176 L22.1884444,176 L22.1884444,176.999704 L23.25,176.999704 L23.25,176.000889 L31.75,176.000889 L31.75,177.000592 L32.8125,177.000592 L32.8125,176.000889 L34.4067222,176.000889 C35.2850556,176.000889 36,176.67269 36,177.5 L36,179 Z" id="Shape"></path>
        </g>
    </g>
</svg>