<?xml version="1.0" encoding="UTF-8"?>
<svg width="20px" height="23px" viewBox="0 0 20 23" version="1.1" xmlns="http://www.w3.org/2000/svg" xmlns:xlink="http://www.w3.org/1999/xlink">
    <!-- Generator: Sketch 52.1 (67048) - http://www.bohemiancoding.com/sketch -->
    <title>address-book-solid</title>
    <desc>Created with Sketch.</desc>
    <g id="Page-1" stroke="none" stroke-width="1" fill="none" fill-rule="evenodd">
        <g id="Menu-marca-" transform="translate(-18.000000, -209.000000)" fill-rule="nonzero" stroke="#000000">
            <g id="address-book-solid" transform="translate(19.000000, 210.000000)">
                <path d="M17.5178571,6.5625 C17.7830357,6.5625 18,6.34101562 18,6.0703125 L18,4.4296875 C18,4.15898438 17.7830357,3.9375 17.5178571,3.9375 L16.7142857,3.9375 L16.7142857,1.96875 C16.7142857,0.881835938 15.8504464,0 14.7857143,0 L1.92857143,0 C0.863839286,0 0,0.881835938 0,1.96875 L0,19.03125 C0,20.1181641 0.863839286,21 1.92857143,21 L14.7857143,21 C15.8504464,21 16.7142857,20.1181641 16.7142857,19.03125 L16.7142857,17.0625 L17.5178571,17.0625 C17.7830357,17.0625 18,16.8410156 18,16.5703125 L18,14.9296875 C18,14.6589844 17.7830357,14.4375 17.5178571,14.4375 L16.7142857,14.4375 L16.7142857,11.8125 L17.5178571,11.8125 C17.7830357,11.8125 18,11.5910156 18,11.3203125 L18,9.6796875 C18,9.40898438 17.7830357,9.1875 17.5178571,9.1875 L16.7142857,9.1875 L16.7142857,6.5625 L17.5178571,6.5625 Z M8.35714286,5.25 C9.77544643,5.25 10.9285714,6.42714844 10.9285714,7.875 C10.9285714,9.32285156 9.77544643,10.5 8.35714286,10.5 C6.93883929,10.5 5.78571429,9.32285156 5.78571429,7.875 C5.78571429,6.42714844 6.93883929,5.25 8.35714286,5.25 Z M12.8571429,14.9625 C12.8571429,15.3972656 12.4553571,15.75 11.9571429,15.75 L4.75714286,15.75 C4.25892857,15.75 3.85714286,15.3972656 3.85714286,14.9625 L3.85714286,14.175 C3.85714286,12.8707031 5.06651786,11.8125 6.55714286,11.8125 L6.75803571,11.8125 C7.25223214,12.0216797 7.790625,12.140625 8.35714286,12.140625 C8.92366071,12.140625 9.46607143,12.0216797 9.95625,11.8125 L10.1571429,11.8125 C11.6477679,11.8125 12.8571429,12.8707031 12.8571429,14.175 L12.8571429,14.9625 Z" id="Shape"></path>
            </g>
        </g>
    </g>
</svg>