<?xml version="1.0" encoding="UTF-8"?>
<svg width="26px" height="18px" viewBox="0 0 26 18" version="1.1" xmlns="http://www.w3.org/2000/svg" xmlns:xlink="http://www.w3.org/1999/xlink">
    <!-- Generator: Sketch 52.1 (67048) - http://www.bohemiancoding.com/sketch -->
    <title>money-check-alt-solid</title>
    <desc>Created with Sketch.</desc>
    <g id="Page-1" stroke="none" stroke-width="1" fill="none" fill-rule="evenodd">
        <g id="Menu-marca-" transform="translate(-12.000000, -376.000000)" fill-rule="nonzero" stroke="#000000" stroke-width="0.8">
            <g id="money-check-alt-solid" transform="translate(13.000000, 377.000000)">
                <path d="M22.8,0 L1.2,0 C0.537375,0 0,0.511785714 0,1.14285714 L0,14.8571429 C0,15.4882143 0.537375,16 1.2,16 L22.8,16 C23.462625,16 24,15.4882143 24,14.8571429 L24,1.14285714 C24,0.511785714 23.462625,0 22.8,0 Z M6.6,11.1428571 C6.6,11.3007143 6.46575,11.4285714 6.3,11.4285714 L5.7,11.4285714 C5.53425,11.4285714 5.4,11.3007143 5.4,11.1428571 L5.4,10.5610714 C4.976625,10.5403571 4.564875,10.3996429 4.223625,10.1557143 C4.077375,10.0510714 4.069875,9.8425 4.20225,9.72214286 L4.642875,9.32178571 C4.74675,9.2275 4.90125,9.22321429 5.02275,9.29571429 C5.167875,9.38214286 5.3325,9.42857143 5.5035,9.42857143 L6.557625,9.42857143 C6.801375,9.42857143 7.000125,9.21714286 7.000125,8.9575 C7.000125,8.745 6.86475,8.55785714 6.67125,8.50285714 L4.98375,8.02071429 C4.286625,7.82142857 3.7995,7.18428571 3.7995,6.47107143 C3.7995,5.59535714 4.513875,4.88392857 5.399625,4.86142857 L5.399625,4.28571429 C5.399625,4.12785714 5.533875,4 5.699625,4 L6.299625,4 C6.465375,4 6.599625,4.12785714 6.599625,4.28571429 L6.599625,4.8675 C7.023,4.88821429 7.43475,5.02857143 7.776,5.27285714 C7.92225,5.3775 7.92975,5.58607143 7.797375,5.70642857 L7.35675,6.10678571 C7.252875,6.20107143 7.098375,6.20535714 6.976875,6.13285714 C6.83175,6.04607143 6.667125,6 6.496125,6 L5.442,6 C5.19825,6 4.9995,6.21142857 4.9995,6.47107143 C4.9995,6.68357143 5.134875,6.87071429 5.328375,6.92571429 L7.015875,7.40785714 C7.713,7.60714286 8.200125,8.24428571 8.200125,8.9575 C8.200125,9.83357143 7.48575,10.5446429 6.6,10.5671429 L6.6,11.1428571 Z M15.6,10 C15.6,10.1578571 15.46575,10.2857143 15.3,10.2857143 L11.1,10.2857143 C10.93425,10.2857143 10.8,10.1578571 10.8,10 L10.8,9.42857143 C10.8,9.27071429 10.93425,9.14285714 11.1,9.14285714 L15.3,9.14285714 C15.46575,9.14285714 15.6,9.27071429 15.6,9.42857143 L15.6,10 Z M21.6,10 C21.6,10.1578571 21.46575,10.2857143 21.3,10.2857143 L18.3,10.2857143 C18.13425,10.2857143 18,10.1578571 18,10 L18,9.42857143 C18,9.27071429 18.13425,9.14285714 18.3,9.14285714 L21.3,9.14285714 C21.46575,9.14285714 21.6,9.27071429 21.6,9.42857143 L21.6,10 Z M21.6,6.57142857 C21.6,6.72928571 21.46575,6.85714286 21.3,6.85714286 L11.1,6.85714286 C10.93425,6.85714286 10.8,6.72928571 10.8,6.57142857 L10.8,6 C10.8,5.84214286 10.93425,5.71428571 11.1,5.71428571 L21.3,5.71428571 C21.46575,5.71428571 21.6,5.84214286 21.6,6 L21.6,6.57142857 Z" id="Shape"></path>
            </g>
        </g>
    </g>
</svg>