<?xml version="1.0" encoding="UTF-8"?>
<svg width="18px" height="17px" viewBox="0 0 18 17" version="1.1" xmlns="http://www.w3.org/2000/svg" xmlns:xlink="http://www.w3.org/1999/xlink">
    <!-- Generator: Sketch 52.1 (67048) - http://www.bohemiancoding.com/sketch -->
    <title>chart-bar-regular (1)</title>
    <desc>Created with Sketch.</desc>
    <g id="Page-1" stroke="none" stroke-width="1" fill="none" fill-rule="evenodd">
        <g id="Menu-marca-" transform="translate(-19.000000, -250.000000)" fill="#000000" fill-rule="nonzero">
            <g id="chart-bar-regular-(1)" transform="translate(19.000000, 250.000000)">
                <path d="M13.734375,12.75 L14.19375,12.75 C14.45625,12.75 14.71875,12.4833333 14.71875,12.2166667 L14.71875,2.61666667 C14.71875,2.35 14.45625,2.08333333 14.19375,2.08333333 L13.734375,2.08333333 C13.471875,2.08333333 13.209375,2.35 13.209375,2.61666667 L13.209375,12.2166667 C13.209375,12.4833333 13.471875,12.75 13.734375,12.75 Z M8.31875,12.75 C8.58125,12.75 8.6002263,12.4261905 8.6002263,12.1595238 L8.6002263,3.89285714 C8.6002263,3.62619048 8.58125,3.41666667 8.31875,3.41666667 L7.4,3.41666667 C7.1375,3.41666667 7.00065357,3.70990991 7.00065357,3.97657658 L7.00065357,12.2432432 C7.00065357,12.5099099 7.1375,12.75 7.4,12.75 L8.31875,12.75 Z M11.25625,12.75 C11.51875,12.75 11.78125,12.4833333 11.78125,12.2166667 L11.78125,6.61666667 C11.78125,6.35 11.51875,6.08333333 11.25625,6.08333333 L10.796875,6.08333333 C10.534375,6.08333333 10.271875,6.35 10.271875,6.61666667 L10.271875,12.2166667 C10.271875,12.4833333 10.534375,12.75 10.796875,12.75 L11.25625,12.75 Z M17,15.4166667 L1.57281837,15.4166667 L1.57281837,1.41666667 C1.57281837,1.04833333 1.41828556,0.75 1.05570744,0.75 L0.65625,0.75 C0.293671875,0.75 0,1.04833333 0,1.41666667 L0,15.4166667 C0,16.1529167 0.587753906,16.75 1.3125,16.75 L17.34375,16.75 C17.7063281,16.75 18,16.4516667 18,16.0833333 L18,15.9810028 C18,15.6126695 17.3625781,15.4166667 17,15.4166667 Z M5.38125,12.75 C5.64375,12.75 5.90625,12.4833333 5.90625,12.2166667 L5.90625,9.28333333 C5.90625,9.01666667 5.64375,8.75 5.38125,8.75 L4.921875,8.75 C4.659375,8.75 4.396875,9.01666667 4.396875,9.28333333 L4.396875,12.2166667 C4.396875,12.4833333 4.659375,12.75 4.921875,12.75 L5.38125,12.75 Z" id="Shape"></path>
            </g>
        </g>
    </g>
</svg>