<?xml version="1.0" encoding="UTF-8"?>
<svg width="23px" height="19px" viewBox="0 0 23 19" version="1.1" xmlns="http://www.w3.org/2000/svg" xmlns:xlink="http://www.w3.org/1999/xlink">
    <!-- Generator: Sketch 52.1 (67048) - http://www.bohemiancoding.com/sketch -->
    <title>Group 3 Copy</title>
    <desc>Created with Sketch.</desc>
    <g id="Page-1" stroke="none" stroke-width="1" fill="none" fill-rule="evenodd">
        <g id="Menu-user-full" transform="translate(-9.000000, -172.000000)" fill="#000000" fill-rule="nonzero">
            <g id="Group-3-Copy" transform="translate(9.000000, 172.000000)">
                <g id="Group" transform="translate(16.000000, 11.000000)">
                    <path d="M2.825,1.80952381 L2.175,1.80952381 C2.1,1.80952381 2.025,1.88095238 2.025,1.97619048 L2.025,4.66666667 C2.025,4.76190476 2.1,4.83333333 2.175,4.83333333 L2.825,4.83333333 C2.9,4.83333333 2.975,4.76190476 2.975,4.66666667 L2.975,1.97619048 C2.975,1.88095238 2.9,1.80952381 2.825,1.80952381 Z" id="Shape"></path>
                    <path d="M4.825,0.214285714 L4.2,0.214285714 C4.125,0.214285714 4.05,0.285714286 4.05,0.357142857 L4.05,4.64285714 C4.05,4.71428571 4.125,4.78571429 4.2,4.78571429 L4.825,4.78571429 C4.9,4.78571429 4.975,4.71428571 4.975,4.64285714 L4.975,0.357142857 C4.975,0.285714286 4.9,0.214285714 4.825,0.214285714 Z" id="Shape"></path>
                    <path d="M0.8,3.69047619 L0.15,3.69047619 C0.075,3.69047619 0,3.76190476 0,3.85714286 L0,4.66666667 C0,4.76190476 0.075,4.83333333 0.15,4.83333333 L0.8,4.83333333 C0.875,4.83333333 0.95,4.76190476 0.95,4.66666667 L0.95,3.85714286 C0.975,3.76190476 0.9,3.69047619 0.8,3.69047619 Z" id="Shape"></path>
                </g>
                <path d="M19.4772727,9 C19.25,9 19.0681818,9.22641509 19.0681818,9.47798742 C19.0681818,9.55345912 19.0909091,9.60377358 19.0909091,9.67924528 L17.2727273,12.0440252 C17.2045455,12.0188679 17.1590909,11.9937107 17.0909091,11.9937107 C17,11.9937107 16.9090909,12.0440252 16.8409091,12.0943396 L15.9318182,11.2893082 C15.9318182,11.2641509 15.9318182,11.2138365 15.9318182,11.1886792 C15.9318182,10.9119497 15.75,10.7106918 15.5227273,10.7106918 C15.2954545,10.7106918 15.1136364,10.9371069 15.1136364,11.1886792 C15.1136364,11.2389937 15.1136364,11.3144654 15.1363636,11.3647799 L14,12.7232704 L14.25,13 L15.4090909,11.6415094 C15.4545455,11.6666667 15.5,11.6666667 15.5454545,11.6666667 C15.6136364,11.6666667 15.6818182,11.6415094 15.7272727,11.6163522 L16.6818182,12.4716981 C16.6818182,12.7484277 16.8636364,12.9496855 17.0909091,12.9496855 C17.3181818,12.9496855 17.5,12.7232704 17.5,12.4716981 C17.5,12.4465409 17.5,12.4213836 17.5,12.3710692 L19.3636364,9.93081761 C19.4090909,9.95597484 19.4318182,9.95597484 19.4772727,9.95597484 C19.5681818,9.95597484 19.6590909,9.90566038 19.7272727,9.85534591 L20.8409091,10.4842767 L21,10.1069182 L19.8863636,9.47798742 C19.8863636,9.20125786 19.7045455,9 19.4772727,9 Z" id="Shape"></path>
                <g id="Group" transform="translate(15.000000, 4.000000)">
                    <path d="M6.6137931,2.07142857 L0.362068966,2.07142857 C0.265517241,2.07142857 0.193103448,2.14285714 0.193103448,2.23809524 L0.193103448,2.78571429 C0.193103448,2.88095238 0.265517241,2.95238095 0.362068966,2.95238095 L6.58965517,2.95238095 C6.6862069,2.95238095 6.75862069,2.88095238 6.75862069,2.78571429 L6.75862069,2.23809524 C6.78275862,2.14285714 6.71034483,2.07142857 6.6137931,2.07142857 Z" id="Shape"></path>
                    <path d="M0.337931034,0.952380952 L6.6137931,0.952380952 C6.71034483,0.952380952 6.78275862,0.880952381 6.78275862,0.785714286 L6.78275862,0.285714286 C6.78275862,0.19047619 6.71034483,0.119047619 6.6137931,0.119047619 L0.337931034,0.119047619 C0.24137931,0.119047619 0.168965517,0.19047619 0.168965517,0.285714286 L0.168965517,0.785714286 C0.168965517,0.880952381 0.24137931,0.952380952 0.337931034,0.952380952 Z" id="Shape"></path>
                    <path d="M0.337931034,4.92857143 L3.62068966,4.92857143 C3.71724138,4.92857143 3.78965517,4.85714286 3.78965517,4.76190476 L3.78965517,4.21428571 C3.78965517,4.11904762 3.71724138,4.04761905 3.62068966,4.04761905 L0.337931034,4.04761905 C0.24137931,4.04761905 0.168965517,4.11904762 0.168965517,4.21428571 L0.168965517,4.76190476 C0.168965517,4.83333333 0.24137931,4.92857143 0.337931034,4.92857143 Z" id="Shape"></path>
                </g>
                <path d="M22.4788877,2.41188643 L20.6549949,2.41188643 L18.4047374,0.109959366 C18.2626159,-0.0324278753 18.0494336,-0.0324278753 17.907312,0.0862281588 L15.2780639,2.41188643 L13.430484,2.41188643 C13.1699279,2.41188643 12.9330587,2.6491985 12.9330587,2.93397298 L12.9330587,11.4060138 C12.2698249,10.9551209 11.5118435,10.6940776 10.6828012,10.622884 C10.5643666,10.622884 10.445932,10.6466152 10.3511843,10.7178088 C10.3274974,10.7178088 9.23789907,11.5246698 7.69824923,11.5484011 C6.27703399,11.5009386 5.14006179,10.7178088 5.14006179,10.6940776 C5.04531411,10.622884 4.92687951,10.5991528 4.8084449,10.5991528 C3.57672503,10.7178088 2.48712667,11.2636266 1.58702369,12.2128748 C0.592173018,13.2570479 0.0473738414,14.6571892 0.0236869207,16.1759864 L0,18.5253759 C0,18.6440319 0.0473738414,18.7626879 0.142121524,18.8576128 C0.236869207,18.9525376 0.355303811,19 0.473738414,19 L7.27188465,19 L8.31410917,19 L15.1122554,19 C15.23069,19 15.3491246,18.9525376 15.4438723,18.8576128 C15.53862,18.7626879 15.5859938,18.6440319 15.5859938,18.5253759 L15.5623069,16.9828474 L22.5025747,16.9828474 C22.7631308,16.9828474 23,16.7455354 23,16.4607609 L23,2.93397298 C22.9763131,2.6491985 22.7631308,2.41188643 22.4788877,2.41188643 Z M18.1441813,0.916820398 L19.6127703,2.41188643 L16.4624099,2.41188643 L18.1441813,0.916820398 Z M8.29042225,18.0507517 L7.24819773,18.0507517 L0.947476828,18.0507517 L0.971163749,16.1759864 C0.994850669,14.8945012 1.44490216,13.7316721 2.27394439,12.8536174 C2.96086509,12.11795 3.78990731,11.6907883 4.73738414,11.5484011 C5.09268795,11.7619819 5.9454171,12.2366061 7.08238929,12.4027245 C7.27188465,12.4501869 7.67456231,12.4501869 7.81668383,12.4501869 C7.95880536,12.4501869 8.43254377,12.4027245 8.45623069,12.4027245 C9.59320288,12.2366061 10.4696189,11.7619819 10.8249228,11.5484011 C11.7723996,11.6907883 12.6014418,12.11795 13.2883625,12.8536174 C14.1174047,13.7079409 14.5674562,14.8945012 14.5911432,16.1759864 L14.6148301,18.0507517 L8.29042225,18.0507517 Z M15.5149331,15.9624055 C15.4438723,14.5385331 14.8990731,13.2095855 13.9515963,12.2128748 C13.9515963,12.1891436 13.9515963,12.1891436 13.9515963,12.1654124 L13.9515963,3.45605953 L21.9814624,3.45605953 L21.9814624,15.9624055 L15.5149331,15.9624055 Z" id="Shape"></path>
                <path d="M7.5,10 C9.98108108,10 12,7.98108108 12,5.5 C12,3.01891892 9.98108108,1 7.5,1 C5.01891892,1 3,3.01891892 3,5.5 C3,7.98108108 5.04324324,10 7.5,10 Z M7.5,1.97297297 C9.44594595,1.97297297 11.027027,3.55405405 11.027027,5.5 C11.027027,7.44594595 9.44594595,9.02702703 7.5,9.02702703 C5.55405405,9.02702703 3.97297297,7.44594595 3.97297297,5.5 C3.97297297,3.55405405 5.55405405,1.97297297 7.5,1.97297297 Z" id="Shape"></path>
            </g>
        </g>
    </g>
</svg>