<?xml version="1.0" encoding="UTF-8"?>
<svg width="20px" height="20px" viewBox="0 0 20 20" version="1.1" xmlns="http://www.w3.org/2000/svg" xmlns:xlink="http://www.w3.org/1999/xlink">
    <!-- Generator: Sketch 52.1 (67048) - http://www.bohemiancoding.com/sketch -->
    <title>Group 3</title>
    <desc>Created with Sketch.</desc>
    <g id="Page-1" stroke="none" stroke-width="1" fill="none" fill-rule="evenodd">
        <g id="Menu-marca-" transform="translate(-15.000000, -447.000000)" fill="#000000" fill-rule="nonzero">
            <g id="Group-3" transform="translate(25.000000, 457.000000) scale(-1, 1) translate(-25.000000, -457.000000) translate(15.000000, 447.000000)">
                <path d="M9.78852927,19.2325605 C10.812091,20.2558132 12.4712846,20.2558132 13.4948463,19.2325605 L19.2325605,13.4948463 C20.2558132,12.4712846 20.2558132,10.812091 19.2325605,9.78852927 L10.0585085,0.614477259 C9.64837925,0.204181853 9.08659981,-0.0178728579 8.50678315,0.00112635282 L1.74681739,0.226545917 C0.918711026,0.253718628 0.253718628,0.918711026 0.226545917,1.74681739 L0.00112635282,8.50678315 C-0.0178728579,9.08659981 0.204181853,9.64837925 0.614477259,10.0585085 L9.78852927,19.2325605 Z M1.28549363,1.79399823 C1.29497412,1.51862904 1.51600788,1.29759527 1.79137707,1.28811479 L8.55134283,1.06269523 L8.58541788,1.06269523 C8.86260737,1.05828877 9.13026004,1.16384194 9.32982667,1.35626489 L18.5038787,10.5303169 C18.7991946,10.8253045 18.965129,11.2255907 18.965129,11.6429984 C18.965129,12.0604061 18.7991946,12.4606922 18.5038787,12.7556798 L12.7530586,18.4907729 C12.4580711,18.7860888 12.0577849,18.9520232 11.6403772,18.9520232 C11.2229695,18.9520232 10.8226833,18.7860888 10.5276957,18.4907729 L1.35364374,9.31672088 C1.14576964,9.10914372 1.03451602,8.82387801 1.04696828,8.53037357 L1.28549363,1.79399823 Z" id="Shape"></path>
                <path d="M6.49936321,8.99999994 C7.69199461,9.00025465 8.71871948,8.15799126 8.95162185,6.9883143 C9.18452422,5.81863735 8.55873589,4.64732643 7.45697135,4.19072228 C6.35520681,3.73411814 5.08433063,4.1193946 4.42157485,5.11092746 C3.75881907,6.10246032 3.88877509,7.42408684 4.73196548,8.26753751 C5.20067019,8.7363869 5.83641454,8.99985836 6.49936321,8.99999994 Z M5.43942454,5.44018253 C6.02534915,4.85490556 6.97473829,4.85525762 7.56022866,5.440969 C8.14571902,6.02668037 8.14571902,6.97607582 7.56022866,7.5617872 C6.97473829,8.14749857 6.02534915,8.14785064 5.43942454,7.56257367 C5.15777528,7.28123571 4.99952002,6.89947155 4.99952002,6.5013781 C4.99952002,6.10328464 5.15777528,5.72152048 5.43942454,5.44018253 Z" id="Shape"></path>
            </g>
        </g>
    </g>
</svg>