<?xml version="1.0" encoding="UTF-8"?>
<svg width="20px" height="15px" viewBox="0 0 20 15" version="1.1" xmlns="http://www.w3.org/2000/svg" xmlns:xlink="http://www.w3.org/1999/xlink">
    <!-- Generator: Sketch 52.1 (67048) - http://www.bohemiancoding.com/sketch -->
    <title>noun_Wallet_89088_000000 (1)</title>
    <desc>Created with Sketch.</desc>
    <g id="Page-1" stroke="none" stroke-width="1" fill="none" fill-rule="evenodd">
        <g id="Menu-user-v2.1" transform="translate(-12.000000, -609.000000)" fill="#000000" fill-rule="nonzero">
            <g id="noun_Wallet_89088_000000-(1)" transform="translate(12.000000, 609.000000)">
                <path d="M20,8.49427169 C20,7.51227496 19.3834772,6.70212766 18.5203453,6.38297872 L18.5203453,3.38788871 C18.5203453,2.87234043 18.1011097,2.4304419 17.5585697,2.4304419 L16.3008631,2.4304419 L16.3008631,1.03109656 C16.3008631,0.368248773 15.7583231,0 15.2404439,0 L1.65228113,0 C0.838471023,0 0.172626387,0.589198036 0.0246609125,1.3502455 C0.0246609125,1.3502455 0.0246609125,1.3502455 0.0246609125,1.3502455 C0,1.44844517 0,1.54664484 0,1.66939444 C0,1.76759411 0,1.84124386 0.0246609125,1.91489362 L0.0246609125,2.72504092 C0,2.77414075 0,2.82324059 0,2.87234043 L0,13.3306056 C0,14.2389525 0.739827374,15 1.67694205,15 L17.5832306,15 C18.1011097,15 18.5450062,14.5826514 18.5450062,14.0425532 L18.5450062,10.6055646 C19.3834772,10.2864157 20,9.47626841 20,8.49427169 Z M1.65228113,0.908346972 L15.2404439,0.908346972 C15.3884094,0.908346972 15.3884094,0.957446809 15.3884094,1.03109656 L15.3884094,2.4304419 L13.9827374,2.4304419 L12.8729963,2.4304419 L1.65228113,2.4304419 C1.60295931,2.4304419 1.55363748,2.4304419 1.50431566,2.40589198 C1.47965475,2.40589198 1.47965475,2.40589198 1.45499383,2.38134206 C1.43033292,2.38134206 1.40567201,2.35679214 1.3810111,2.35679214 C1.35635018,2.35679214 1.35635018,2.33224223 1.33168927,2.33224223 C1.30702836,2.33224223 1.28236745,2.30769231 1.25770654,2.30769231 C1.23304562,2.30769231 1.23304562,2.28314239 1.20838471,2.25859247 C1.1837238,2.23404255 1.1837238,2.23404255 1.15906289,2.20949264 C1.13440197,2.18494272 1.13440197,2.18494272 1.10974106,2.1603928 C1.08508015,2.13584288 1.08508015,2.13584288 1.08508015,2.11129296 C1.06041924,2.08674304 1.06041924,2.06219313 1.03575832,2.03764321 C1.03575832,2.03764321 1.01109741,2.01309329 1.01109741,2.01309329 C0.986436498,1.98854337 0.986436498,1.96399345 0.961775586,1.91489362 C0.961775586,1.91489362 0.961775586,1.91489362 0.961775586,1.91489362 C0.937114673,1.86579378 0.937114673,1.84124386 0.937114673,1.79214403 C0.937114673,1.79214403 0.937114673,1.79214403 0.937114673,1.79214403 C0.937114673,1.74304419 0.912453761,1.71849427 0.912453761,1.66939444 C0.912453761,1.6202946 0.912453761,1.59574468 0.937114673,1.54664484 C0.937114673,1.54664484 0.937114673,1.54664484 0.937114673,1.54664484 C0.937114673,1.54664484 0.937114673,1.52209493 0.937114673,1.52209493 C0.986436498,1.17839607 1.28236745,0.908346972 1.65228113,0.908346972 Z M17.6078915,14.0671031 C17.6078915,14.091653 17.5832306,14.1162029 17.5585697,14.1162029 L1.65228113,14.1162029 C1.23304562,14.1162029 0.887792848,13.7725041 0.887792848,13.3551555 L0.887792848,3.14238953 C0.912453761,3.14238953 0.912453761,3.14238953 0.937114673,3.16693944 C0.961775586,3.19148936 1.01109741,3.19148936 1.03575832,3.21603928 C1.06041924,3.21603928 1.08508015,3.2405892 1.10974106,3.2405892 C1.13440197,3.26513912 1.1837238,3.26513912 1.23304562,3.26513912 C1.25770654,3.26513912 1.28236745,3.26513912 1.30702836,3.28968903 C1.35635018,3.28968903 1.3810111,3.31423895 1.43033292,3.31423895 C1.45499383,3.31423895 1.47965475,3.31423895 1.47965475,3.31423895 C1.52897657,3.31423895 1.60295931,3.31423895 1.67694205,3.31423895 L12.8236745,3.31423895 C12.8483354,3.31423895 12.8483354,3.31423895 12.8729963,3.31423895 L13.9827374,3.31423895 C13.9827374,3.31423895 14.0073983,3.31423895 14.0073983,3.31423895 L15.8323058,3.31423895 L17.5585697,3.31423895 C17.5832306,3.31423895 17.6078915,3.33878887 17.6078915,3.36333879 L17.6078915,6.2111293 L15.3884094,6.2111293 C14.1307028,6.2111293 13.1196054,7.21767594 13.1196054,8.46972177 C13.1196054,8.46972177 13.1196054,8.46972177 13.1196054,8.46972177 C13.1196054,9.72176759 14.1307028,10.7283142 15.3884094,10.7283142 L17.6078915,10.7283142 L17.6078915,14.0671031 Z M17.9778052,9.81996727 C17.9778052,9.81996727 17.9778052,9.81996727 17.9778052,9.81996727 C17.8791615,9.84451718 17.8051788,9.84451718 17.7311961,9.84451718 L15.3884094,9.84451718 C14.648582,9.84451718 14.0320592,9.23076923 14.0320592,8.49427169 C14.0320592,7.75777414 14.648582,7.14402619 15.3884094,7.14402619 L17.7311961,7.14402619 C17.8051788,7.14402619 17.9038224,7.14402619 17.9778052,7.1685761 C17.9778052,7.1685761 17.9778052,7.1685761 17.9778052,7.1685761 C18.6189889,7.2913257 19.0875462,7.8314239 19.0875462,8.49427169 C19.0875462,9.15711948 18.6189889,9.69721768 17.9778052,9.81996727 Z M16.2268804,8.49427169 C16.2268804,8.76432079 16.0049322,8.98527005 15.7336621,8.98527005 C15.4623921,8.98527005 15.2404439,8.76432079 15.2404439,8.49427169 C15.2404439,8.22422259 15.4623921,8.00327332 15.7336621,8.00327332 C16.0049322,8.00327332 16.2268804,8.22422259 16.2268804,8.49427169 Z" id="Shape"></path>
            </g>
        </g>
    </g>
</svg>