<?xml version="1.0" encoding="UTF-8"?>
<svg width="20px" height="18px" viewBox="0 0 20 18" version="1.1" xmlns="http://www.w3.org/2000/svg" xmlns:xlink="http://www.w3.org/1999/xlink">
    <!-- Generator: Sketch 52.1 (67048) - http://www.bohemiancoding.com/sketch -->
    <title>Group</title>
    <desc>Created with Sketch.</desc>
    <g id="Page-1" stroke="none" stroke-width="1" fill="none" fill-rule="evenodd">
        <g id="Menu-user-full" transform="translate(-12.000000, -245.000000)" fill="#000000" fill-rule="nonzero">
            <g id="Group" transform="translate(12.000000, 245.000000)">
                <g id="Shape">
                    <g>
                        <path d="M6.16666667,2.18571429 C5.29166667,2.18571429 4.5625,2.91428571 4.5625,3.83571429 C4.5625,4.75714286 5.27083333,5.48571429 6.16666667,5.48571429 C7.0625,5.48571429 7.77083333,4.75714286 7.77083333,3.83571429 C7.77083333,2.91428571 7.04166667,2.18571429 6.16666667,2.18571429 Z M6.16666667,4.88571429 C5.60416667,4.88571429 5.14583333,4.41428571 5.14583333,3.83571429 C5.14583333,3.25714286 5.60416667,2.78571429 6.16666667,2.78571429 C6.72916667,2.78571429 7.1875,3.25714286 7.1875,3.83571429 C7.1875,4.41428571 6.72916667,4.88571429 6.16666667,4.88571429 Z"></path>
                        <path d="M18.2083333,0.0857142857 L1.875,0.0857142857 C0.916666667,0.0857142857 0.145833333,0.878571429 0.145833333,1.86428571 L0.145833333,7.11428571 C0.145833333,8.1 0.916666667,8.89285714 1.875,8.89285714 L18.2083333,8.89285714 C19.1666667,8.89285714 19.9375,8.1 19.9375,7.11428571 L19.9375,1.86428571 C19.9375,0.9 19.1666667,0.0857142857 18.2083333,0.0857142857 Z M6.125,6.38571429 C6.66666667,6.40714286 7.10416667,6.19285714 7.29166667,6.08571429 C7.5625,6.12857143 7.79166667,6.27857143 8,6.49285714 C8.25,6.77142857 8.39583333,7.13571429 8.39583333,7.54285714 L8.39583333,8.05714286 L6.125,8.05714286 L6.10416667,8.05714286 L3.85416667,8.05714286 L3.85416667,7.54285714 C3.85416667,7.13571429 4,6.77142857 4.25,6.49285714 C4.45833333,6.27857143 4.6875,6.15 4.95833333,6.08571429 C5.14583333,6.19285714 5.58333333,6.40714286 6.125,6.38571429 Z M19.1458333,7.11428571 C19.1458333,7.65 18.7291667,8.07857143 18.2083333,8.07857143 L8.97916667,8.07857143 L8.97916667,7.52142857 C8.97916667,6.96428571 8.77083333,6.45 8.41666667,6.06428571 C8.10416667,5.72142857 7.70833333,5.52857143 7.27083333,5.46428571 C7.20833333,5.46428571 7.125,5.48571429 7.08333333,5.52857143 C7.08333333,5.52857143 6.6875,5.82857143 6.16666667,5.78571429 C6.16666667,5.78571429 6.16666667,5.78571429 6.14583333,5.78571429 C6.14583333,5.78571429 6.14583333,5.78571429 6.125,5.78571429 C5.60416667,5.82857143 5.20833333,5.52857143 5.20833333,5.52857143 C5.14583333,5.48571429 5.08333333,5.46428571 5.02083333,5.46428571 C4.58333333,5.50714286 4.1875,5.7 3.875,6.06428571 C3.52083333,6.45 3.3125,6.96428571 3.3125,7.52142857 L3.3125,8.07857143 L1.91666667,8.07857143 C1.39583333,8.07857143 0.979166667,7.65 0.979166667,7.11428571 L0.979166667,1.86428571 C0.979166667,1.32857143 1.39583333,0.9 1.91666667,0.9 L18.25,0.9 C18.7708333,0.9 19.1875,1.32857143 19.1875,1.86428571 L19.1458333,7.11428571 Z"></path>
                    </g>
                    <g transform="translate(10.208333, 3.214286)">
                        <path d="M6.33333333,0.0428571429 L0.395833333,0.0428571429 C0.166666667,0.0428571429 0,0.235714286 0,0.45 C0,0.664285714 0.1875,0.857142857 0.395833333,0.857142857 L6.33333333,0.857142857 C6.5625,0.857142857 6.72916667,0.664285714 6.72916667,0.45 C6.72916667,0.235714286 6.54166667,0.0428571429 6.33333333,0.0428571429 Z"></path>
                        <path d="M6.33333333,2.20714286 L0.395833333,2.20714286 C0.166666667,2.20714286 0,2.4 0,2.61428571 C0,2.82857143 0.1875,3.02142857 0.395833333,3.02142857 L6.33333333,3.02142857 C6.5625,3.02142857 6.72916667,2.82857143 6.72916667,2.61428571 C6.72916667,2.4 6.54166667,2.20714286 6.33333333,2.20714286 Z"></path>
                    </g>
                </g>
                <g transform="translate(0.000000, 10.000000)" id="Shape">
                    <path d="M19.5416667,0.0864864865 L0.541666667,0.0864864865 C0.3125,0.0864864865 0.145833333,0.281081081 0.145833333,0.497297297 L0.145833333,7.48108108 C0.145833333,7.71891892 0.333333333,7.89189189 0.541666667,7.89189189 C0.75,7.89189189 0.9375,7.6972973 0.9375,7.48108108 L0.9375,0.908108108 L19.125,0.908108108 L19.125,7.2 C19.125,7.43783784 19.3125,7.61081081 19.5208333,7.61081081 C19.7291667,7.61081081 19.9166667,7.41621622 19.9166667,7.2 L19.9166667,0.497297297 C19.9375,0.281081081 19.75,0.0864864865 19.5416667,0.0864864865 Z"></path>
                    <g transform="translate(3.333333, 3.243243)">
                        <path d="M13,0.0432432432 L0.416666667,0.0432432432 C0.1875,0.0432432432 0.0208333333,0.237837838 0.0208333333,0.454054054 C0.0208333333,0.67027027 0.208333333,0.864864865 0.416666667,0.864864865 L13,0.864864865 C13.2291667,0.864864865 13.3958333,0.67027027 13.3958333,0.454054054 C13.3958333,0.237837838 13.2083333,0.0432432432 13,0.0432432432 Z"></path>
                        <path d="M13,2.35675676 L0.416666667,2.35675676 C0.1875,2.35675676 0.0208333333,2.55135135 0.0208333333,2.76756757 C0.0208333333,3.00540541 0.208333333,3.17837838 0.416666667,3.17837838 L13,3.17837838 C13.2291667,3.17837838 13.3958333,2.98378378 13.3958333,2.76756757 C13.3958333,2.52972973 13.2083333,2.35675676 13,2.35675676 Z"></path>
                    </g>
                </g>
            </g>
        </g>
    </g>
</svg>