<?xml version="1.0" encoding="UTF-8"?>
<svg width="18px" height="19px" viewBox="0 0 18 19" version="1.1" xmlns="http://www.w3.org/2000/svg" xmlns:xlink="http://www.w3.org/1999/xlink">
    <!-- Generator: Sketch 52.1 (67048) - http://www.bohemiancoding.com/sketch -->
    <title>cogs-solid</title>
    <desc>Created with Sketch.</desc>
    <g id="Page-1" stroke="none" stroke-width="1" fill="none" fill-rule="evenodd">
        <g id="Menu-marca--Copy" transform="translate(-11.000000, -296.000000)" fill-rule="nonzero" stroke="#000000">
            <g id="cogs-solid" transform="translate(12.000000, 297.000000)">
                <path d="M14.4877992,9.6486938 L15.7516536,10.2742386 C16.1304349,10.4902004 16.2954486,10.9481886 16.1454362,11.3577715 C15.8116586,12.2588538 15.1553544,13.0854665 14.5478042,13.8078218 C14.2702812,14.1392116 13.7902416,14.2211281 13.4114603,14.0051663 L12.3201201,13.3796215 C11.7200705,13.8897383 11.0225129,14.2955977 10.2612,14.5599649 L10.2612,15.8110544 C10.2612,16.2429782 9.94992426,16.6153262 9.52238893,16.6897959 C8.5998127,16.846182 7.63223275,16.853629 6.67590373,16.6897959 C6.2446181,16.6153262 5.92584176,16.2467016 5.92584176,15.8110544 L5.92584176,14.5599649 C5.16452885,14.2918743 4.46697122,13.8897383 3.86692164,13.3796215 L2.77558146,14.0014428 C2.40055047,14.2174047 1.9167605,14.1354881 1.63923757,13.8040983 C1.03168737,13.081743 0.390384379,12.2551303 0.0566067995,11.3577715 C-0.0934055956,10.9519121 0.071608039,10.4939239 0.450389337,10.2742386 L1.69924253,9.6486938 C1.55298044,8.87048633 1.55298044,8.06993798 1.69924253,7.28800702 L0.450389337,6.65873878 C0.071608039,6.4427769 -0.0971559055,5.98478877 0.0566067995,5.57892937 C0.390384379,4.67784704 1.03168737,3.85123431 1.63923757,3.12887905 C1.9167605,2.79748927 2.39680016,2.71557269 2.77558146,2.93153458 L3.86692164,3.55707934 C4.46697122,3.04696248 5.16452885,2.64110308 5.92584176,2.37673595 L5.92584176,1.12192294 C5.92584176,0.69372266 6.23336717,0.321374587 6.66090249,0.246904973 C7.58347872,0.0905187822 8.55480898,0.0830718208 9.511138,0.243181492 C9.94242364,0.317651106 10.2612,0.686275698 10.2612,1.12192294 L10.2612,2.37301247 C11.0225129,2.64110308 11.7200705,3.043239 12.3201201,3.55335586 L13.4114603,2.92781109 C13.7864913,2.71184921 14.2702812,2.79376579 14.5478042,3.12515557 C15.1553544,3.84751083 15.792907,4.67412355 16.1266846,5.57520589 C16.276697,5.98106529 16.1304349,6.43905342 15.7516536,6.65873878 L14.4877992,7.28428354 C14.6340613,8.0662145 14.6340613,8.86676285 14.4877992,9.6486938 Z M10.0774348,10.4343482 C12.2976182,7.56726808 9.00109586,4.29432852 6.11335725,6.49862911 C3.8931738,9.36570927 7.18969619,12.6386488 10.0774348,10.4343482 Z" id="Shape"></path>
            </g>
        </g>
    </g>
</svg>