<?xml version="1.0" encoding="UTF-8"?>
<svg width="188px" height="82px" viewBox="0 0 188 82" version="1.1" xmlns="http://www.w3.org/2000/svg" xmlns:xlink="http://www.w3.org/1999/xlink">
    <!-- Generator: Sketch 52.5 (67469) - http://www.bohemiancoding.com/sketch -->
    <title>Group 3</title>
    <desc>Created with Sketch.</desc>
    <g id="Page-1" stroke="none" stroke-width="1" fill="none" fill-rule="evenodd">
        <g id="Desktop-HD" transform="translate(-201.000000, -60.000000)" fill="#000000">
            <g id="Group-3" transform="translate(200.000000, 22.000000)">
                <text id="4-copy-10" font-family="OpenSans-Bold, Open Sans" font-size="110" font-weight="bold">
                    <tspan x="0" y="118">4</tspan>
                </text>
                <text id="3-copy-9" font-family="OpenSans-Bold, Open Sans" font-size="110" font-weight="bold">
                    <tspan x="130" y="118">3</tspan>
                </text>
                <path d="M119.441013,105.682867 L118.090828,105.682867 L106.494284,40.1211262 C106.276937,38.8908355 105.257006,38 104.067713,38 L88.6567767,38 C87.4665432,38 86.4475528,38.8917732 86.2302058,40.1211262 L74.6317803,105.682867 L72.5599272,105.682867 C68.9421819,105.682867 66,108.964893 66,112.998971 L66,117.403449 C66,118.836288 67.1055529,120 68.4689112,120 L123.531089,120 C124.894447,120 126,118.837225 126,117.403449 L126,112.998971 C126.000941,108.964893 123.058759,105.682867 119.441013,105.682867 Z M109,86 L83,86 L85.2567374,73 L106.745126,73 L109,86 Z M91.0216321,43 L101.978368,43 L104,55 L89,55 L91.0216321,43 Z M72.6189278,111 L76.7324123,111 C77.9196261,111 78.9360312,110.09299 79.1528268,108.841679 L80.1654779,103 L112.555297,103 L113.568887,108.841679 C113.785682,110.09299 114.803026,111 115.989301,111 L119.381072,111 C120.258578,111 121,111.989032 121,113.160229 L121,115 L71,115 L71,113.160229 C71,111.989032 71.741422,111 72.6189278,111 Z" id="Shape" fill-rule="nonzero"></path>
            </g>
        </g>
    </g>
</svg>