<?xml version="1.0" encoding="UTF-8"?>
<svg width="237px" height="95px" viewBox="0 0 237 95" version="1.1" xmlns="http://www.w3.org/2000/svg" xmlns:xlink="http://www.w3.org/1999/xlink">
    <!-- Generator: Sketch 52.5 (67469) - http://www.bohemiancoding.com/sketch -->
    <title>Group 2</title>
    <desc>Created with Sketch.</desc>
    <g id="Page-1" stroke="none" stroke-width="1" fill="none" fill-rule="evenodd">
        <g id="Desktop-HD" transform="translate(-635.000000, -367.000000)" fill="#000000">
            <g id="Group-2" transform="translate(634.000000, 335.000000)">
                <text id="4" font-family="OpenSans-Bold, Open Sans" font-size="110" font-weight="bold">
                    <tspan x="0" y="118">4</tspan>
                </text>
                <text id="4-copy-2" font-family="OpenSans-Bold, Open Sans" font-size="110" font-weight="bold">
                    <tspan x="176" y="118">4</tspan>
                </text>
                <g id="Group" transform="translate(73.000000, 32.000000)">
                    <path d="M73.1503616,24.5154036 C72.902388,24.3528374 72.6531827,24.1914997 72.402951,24.0305714 C72.1529247,23.8696432 71.9012561,23.7099434 71.6526667,23.5465582 C70.6367549,22.8784807 69.6522504,22.1629028 68.7137278,21.3899967 C67.6514236,20.5153332 66.7104377,19.5442356 65.7388656,18.5753901 C61.6333422,13.8662935 58.7594759,8.13348031 53.0618306,5.31355043 C51.7246617,4.68437418 50.3503377,4.18582417 48.9460435,3.80663952 C44.7335713,2.68771722 40.2532137,2.64410689 35.4889591,4.24008115 C33.5965181,4.7464114 31.7400005,5.37456394 29.9327491,6.12126286 C24.510995,8.36115489 19.5320216,11.6669407 15.2573507,15.9305158 C6.70821416,24.4572565 2,35.7945089 2,47.8534815 C2,59.9124542 6.70841943,71.2497066 15.2575559,79.7768568 C23.8066925,88.304007 35.1736549,93 47.2640106,93 C59.3543662,93 70.7211234,88.3038022 79.2704652,79.7768568 C83.5451361,75.5132817 86.8595251,70.5472322 89.1052463,65.1397561 C89.8538885,63.3371959 90.48306,61.4857019 90.9660748,59.6057487 C92.0138043,56.0620511 92.2469981,52.3166814 91.7483823,48.6605798 C91.2544878,45.0386703 90.067581,41.5279364 88.3993016,38.2794787 C87.6627707,36.8450469 86.8872374,35.4059061 85.8588038,34.155948 C84.6657387,32.7059558 83.2177206,31.6204066 81.7481485,30.4748677 C81.5432829,30.3151679 81.3375962,30.1560823 81.1319095,29.9972015 C80.9260175,29.8385254 80.7201255,29.6798494 80.5142335,29.5211733 C78.4659879,27.9933786 76.2079501,26.5601752 74.0913475,25.1320905 C73.7785066,24.9265282 73.4644341,24.7211707 73.1503616,24.5154036 Z M86.7146001,46.4628649 C78.8765402,46.4202782 71.0760459,46.0107916 63.4808277,45.1918183 C64.4045705,44.6457678 65.3168178,44.0657299 66.224549,43.4695174 C67.1320749,42.8733048 68.0818877,42.2637839 69.0232842,41.7111817 C72.7710112,39.5116241 76.1379509,36.9240779 80.310189,35.5711339 C81.1466894,35.299849 81.8017256,35.9783684 82.4241229,36.9996281 C83.0465203,38.0208879 83.6241674,39.3472152 84.266066,40.259142 C85.3367865,42.2156692 86.1642547,44.2870575 86.7146001,46.4628649 Z M79.8741824,34.132812 C76.0026739,36.5925984 72.3077029,39.459005 68.3163131,41.6870219 C67.3127179,42.2564131 66.2920848,42.7914075 65.2484608,43.2778776 C64.2050421,43.7643478 63.1386324,44.2022937 62.0438946,44.5775883 C60.1964091,45.1918183 57.7330951,43.9633583 55.4750572,43.758615 C55.7829715,42.83727 56.0395667,41.7111817 56.3731405,40.7386508 C56.7067142,39.76612 57.1172666,38.9471467 57.7306318,38.6424886 C63.2069893,35.9103936 69.3299668,35.1215176 74.7792279,32.6062458 C75.1197811,32.4490029 75.4576657,32.2850035 75.7926764,32.1136333 C76.2079501,31.8835018 76.6185024,31.4740152 77.3353268,31.9643754 C77.5155592,32.0966396 77.693739,32.231156 77.8696606,32.3681293 C78.5737579,32.9162272 79.2433687,33.5032263 79.8741824,34.132812 Z M53.6339353,46.1960843 C52.3959147,45.8060483 52.3959147,44.9870749 52.1906386,43.758615 C52.8064671,44.1681016 53.8328479,43.758615 54.4020787,44.1947182 L53.6339353,46.1960843 Z M54.0635783,47.3227868 L56.0681001,48.7205695 L54.1982395,49.9482106 L53.5179543,48.7408391 L54.0635783,47.3227868 Z M52.033397,43.0082306 C50.3431531,39.6637484 54.0381241,39.459005 56.5014381,38.6400317 C55.8856096,40.2779783 55.2697811,41.915925 54.651284,43.5450677 L52.033397,43.0082306 Z M52.6851489,51.9874541 C54.0381241,50.5151448 54.6539526,51.7436048 55.2697811,53.1768081 C54.4486764,52.9720648 53.4222956,53.5862948 52.6660582,53.3379411 L52.6851489,51.9874541 Z M55.5854958,53.9540138 C56.7067142,56.0432147 57.5278189,58.090648 58.7594759,59.933338 C56.0908857,58.5001347 51.5748101,58.090648 52.6479939,54.1423777 L55.5854958,53.9540138 Z M54.5999649,50.6613316 C57.1172666,47.6487382 59.9911329,51.7436048 62.4544469,52.9720648 C60.4016852,52.9720648 58.1436474,52.9720648 55.9935848,53.1475298 L54.5999649,50.6613316 Z M56.6800283,48.3297145 C54.6539526,47.6487382 53.4222956,45.6013049 55.4750572,44.5775883 C57.1172666,43.9633583 59.3753044,45.3965616 61.372231,45.4727261 L56.6800283,48.3297145 Z M76.1480094,31.1730425 C75.8355791,31.3450269 75.5206855,31.5120974 75.2020969,31.6760968 C74.8835082,31.8400962 74.5614299,32.0010245 74.2372989,32.1574484 C69.0485332,34.6614593 63.4124708,35.9556419 57.9383712,37.4117765 C59.5805806,32.4979366 61.8386184,27.78884 63.8913801,23.0797434 C65.9030865,24.7995874 68.0153783,26.3187829 70.23544,27.672341 C70.5525917,27.8656187 70.8717961,28.0556205 71.1918217,28.2439844 C72.5129791,29.2218385 73.9499122,29.8360685 75.3989567,30.7146222 C75.65042,30.8659275 75.9004464,31.0184613 76.1480094,31.1730425 Z M63.4820594,22.5570337 C61.0175137,27.3791486 59.7858567,32.9072185 56.4995906,37.6183625 C56.0908857,38.1283781 55.2697811,38.4864742 54.3203788,38.7679963 C53.3709765,39.0495184 52.2932767,39.2542617 51.3695339,39.459005 C51.1642577,38.3329167 50.8050244,37.1044567 50.5740888,35.9527755 C50.3431531,34.8010943 50.240515,33.7261918 50.548224,32.907628 C52.6011909,27.3791486 57.1172666,23.4890253 60.5069919,19.0413859 C61.488212,20.245891 62.4776431,21.425622 63.4820594,22.5570337 Z M47.8367311,40.7060966 C46.8534582,41.301695 46.0323536,40.8922083 45.2112489,40.2779783 C45.6218012,39.6637484 46.0323536,39.0495184 46.3414995,38.5374553 L47.8367311,40.7060966 Z M46.7368614,37.9332577 C47.6745629,36.5925984 48.7009437,34.9546518 49.7273246,33.5214485 C49.5220484,36.1831117 52.3959147,40.073235 48.4819141,40.4669564 L46.7368614,37.9332577 Z M44.5180313,39.8676727 C40.4898971,39.0495184 42.3373826,34.9546518 42.1321064,32.0882452 C43.3637634,33.9309351 44.5954204,35.7736251 45.8533528,37.8134829 L44.5180313,39.8676727 Z M44.1243116,40.4784221 C43.7743157,41.5064383 42.5426587,41.915925 41.9268302,41.301695 C41.3110017,41.0969517 42.1321064,40.073235 41.8861856,39.2464814 L44.1243116,40.4784221 Z M44.5438961,55.9969427 L46.3127608,58.5236802 L42.5110462,63.9659626 L41.9307305,57.2211031 L44.5438961,55.9969427 Z M41.85601,56.3513535 L41.6291798,53.7234728 C42.9532111,53.3815515 43.5690396,54.4052681 44.0660132,55.3151475 L41.85601,56.3513535 Z M45.2931541,55.6429415 C46.2376297,55.0194981 47.4692867,54.8147548 47.8798391,55.8384714 C48.0851152,56.4527014 47.0587344,57.0669314 46.8115819,57.8070785 L45.2931541,55.6429415 Z M48.9244895,56.1562331 L51.7080343,57.4643382 L51.1975125,64.0752956 L47.3130716,58.523066 L48.9244895,56.1562331 Z M49.3746601,55.4762805 C49.7273246,54.4052681 50.9589816,53.7910381 51.5748101,54.4052681 C51.9853624,54.8147548 51.7800862,55.8384714 51.7542214,56.5980692 L49.3746601,55.4762805 Z M47.1669149,52.7691642 C44.5083833,52.7630219 42.3043331,50.5626453 42.2478822,47.8520483 C42.1680297,45.1574214 44.1450445,43.0717011 46.6276545,43.2696879 C49.1102644,43.4676747 51.3044614,45.674603 51.5337548,48.1974503 C51.762843,50.7200929 49.7973237,52.7957808 47.1669149,52.7691642 Z M50.0054738,42.5942396 L48.9602075,41.1430189 L50.8380739,40.4755557 L51.2808546,42.8536494 L50.0054738,42.5942396 Z M59.9745055,18.3448491 C56.5014381,22.4653087 53.2170194,26.9696619 50.1378769,31.4740152 C49.124839,23.9961745 49.1114961,16.3230088 49.1114961,8.54276223 C52.6011909,9.7712222 55.2697811,12.2281422 57.5742113,15.173375 C58.3905946,16.2003675 59.1887084,17.2635996 59.9745055,18.3448491 Z M46.4012348,7.96026745 C47.0587344,8.13327557 48.0851152,8.13327557 48.0851152,8.3380189 C48.1877533,9.66885054 48.3096874,10.998249 48.3749652,12.3309233 C48.7009437,18.984672 49.1114961,25.7412019 49.1114961,32.2929885 C49.1114961,33.1119618 48.6496247,33.9309351 48.0594557,34.7499084 C47.4692867,35.5688818 46.7508202,36.3878551 46.2376297,37.2068284 C45.0059727,34.9546518 42.7479349,33.1119618 42.5426587,30.8597852 C41.9268302,23.0795386 43.3637634,15.5040354 44.419704,7.69532958 C45.0817196,7.75572887 45.7429142,7.84192581 46.4012348,7.96026745 Z M43.6774254,7.64312003 C42.5426587,15.0945488 42.1321064,22.4653087 41.5162779,29.8360685 C37.8551775,23.5559764 32.6894027,17.3467254 30.0208126,10.9996822 C31.2524696,9.97596553 33.7157836,9.15699222 36.5192402,8.45247042 C38.9141972,7.82861749 41.2999168,7.56224642 43.6774254,7.64312003 Z M28.7758126,11.4124447 C28.7758126,11.4124447 29.6537788,12.5833718 30.8706559,14.4078397 C34.7421644,20.213132 37.6160307,24.7174853 41.1057256,31.0645285 C42.0779135,32.8326919 41.5162779,35.5688818 41.1057256,38.0258017 C39.0529639,36.5925984 36.1790976,36.3878551 34.7421644,34.1356785 C32.6894027,31.0645285 31.4577457,27.5838919 29.8418118,24.1822862 C28.6078967,21.5513344 27.3698762,18.9195637 26.4416173,16.9456332 C25.5133585,14.9717028 24.8942456,13.6560221 24.8942456,13.6560221 C26.1429405,12.8405295 27.4378226,12.0905546 28.7758126,11.4124447 Z M39.0765707,49.0002489 L37.0767703,47.6077896 L39.2079474,46.0939174 L39.8141279,47.3709015 L39.0765707,49.0002489 Z M40.567902,51.0341692 L40.7278122,52.8248543 L38.2930315,52.6182683 L39.4107603,50.2287089 L40.567902,51.0341692 Z M36.3597406,47.1092395 L30.9045265,43.3175978 L37.6174677,42.7330556 L38.8509722,45.3414856 L36.3597406,47.1092395 Z M36.3611775,48.1077728 L38.7284223,49.7539091 L37.4210184,52.5441512 L30.7947037,51.9815166 L36.3611775,48.1077728 Z M37.9218922,53.4087823 L40.7996588,53.6532459 L41.063644,56.7221436 L35.0430993,59.5394118 L37.9218922,53.4087823 Z M40.9045549,43.8550491 L39.5082664,44.8668906 L38.4623844,42.660167 L40.975991,42.4664798 L40.9045549,43.8550491 Z M38.0893976,41.8700625 C37.0002022,39.8684917 36.1790976,37.8210584 35.3579929,35.7736251 C37.6160307,37.8210584 42.1321064,37.8210584 41.0158146,41.6513966 L38.0893976,41.8700625 Z M24.2034913,14.1158757 C24.2034913,14.1158757 24.7930444,15.3691096 25.6771689,17.2488581 C26.5612933,19.1286066 27.7401944,21.6350745 28.9182743,24.1415423 C30.4313649,27.3791486 31.8682981,30.6550418 33.5105074,33.9309351 C32.2788504,33.9309351 31.4577457,32.9072185 30.4837103,32.6965376 C28.6015332,31.8159365 26.0848474,30.6403003 23.5681616,29.4646641 C18.5347899,27.1133917 13.5014183,24.7623241 13.5014183,24.7623241 C16.3791849,20.5898598 20.0121625,16.9749115 24.2034913,14.1158757 Z M13.0379048,25.4500569 C13.0379048,25.4500569 18.3233555,27.9190567 23.6090115,30.3880565 C26.2517369,31.6226588 28.8946675,32.8570564 30.875172,33.782701 C34.7421644,34.5451651 35.7685452,38.6400317 37.2448914,41.9427464 L29.8512545,42.5856404 L10.7714506,29.3264624 C11.4562519,27.9898979 12.2147473,26.6969438 13.0379048,25.4500569 Z M10.4017482,30.0676332 L28.5725892,42.6951781 L6.44176569,44.5892586 C6.85334441,39.4203085 8.23362135,34.5195722 10.4017482,30.0676332 Z M6.3107995,47.8534815 C6.3107995,47.0349177 6.33789595,46.2227009 6.3857253,45.4160122 L29.625656,43.4269308 L35.6431215,47.6086085 L29.5158332,51.8725931 L6.36232382,49.9064429 C6.32845325,49.2264903 6.3107995,48.5420334 6.3107995,47.8534815 Z M6.41384814,50.7329917 L28.463177,52.6053695 L10.2352693,65.2904472 C8.11107148,60.8209003 6.77718695,55.9086984 6.41384814,50.7329917 Z M10.5994292,66.035713 L29.7420475,52.7140882 L37.0498791,53.3346652 L33.8812362,60.0828006 L12.8256492,69.9354592 C12.0143978,68.6812015 11.2717086,67.3788292 10.5994292,66.035713 Z M13.2821834,70.6264679 L33.337049,61.2422621 L23.8855185,81.3707836 C19.7225178,78.4734608 16.1209475,74.826982 13.2821834,70.6264679 Z M24.571962,81.8394411 L34.4987069,60.6986686 L41.1383645,57.5916885 L41.7771839,65.0162959 L28.433412,84.1184391 C27.1019908,83.4278398 25.813267,82.6666041 24.571962,81.8394411 Z M29.1732273,84.4918909 L41.8870067,66.2918469 L43.8022333,88.5531796 C38.5890398,88.1156431 33.6513269,86.7004572 29.1732273,84.4918909 Z M47.2640106,88.7003901 C46.3794756,88.7003901 45.5023305,88.6690643 44.631549,88.6135789 L42.620869,65.2411041 L46.8134294,59.2392581 L51.0887161,65.3508465 L49.0991795,88.657394 C48.4905357,88.6842154 47.8792232,88.7003901 47.2640106,88.7003901 Z M49.9270583,88.6117362 L51.822989,66.4009751 L64.6993471,84.8080146 C60.1664388,86.9443065 55.1802807,88.273705 49.9270583,88.6117362 Z M65.4475787,84.4458237 L51.9321959,65.1252194 L52.4981423,57.8351284 C55.6803334,59.319108 59.7858567,60.1380813 60.8807998,64.3185306 C61.8201435,66.3121164 63.0700701,68.9696849 64.3199967,71.6270485 C66.8200551,76.9421854 69.3201136,82.2571175 69.3201136,82.2571175 C68.0740872,83.0545928 66.7804368,83.7840932 65.4475787,84.4458237 Z M70.0129206,81.8019731 C70.0129206,81.8019731 67.6302802,76.7364183 65.2476397,71.6710684 C64.0564221,69.1383934 62.8649992,66.6055136 61.9704057,64.7057003 C61.4280661,63.6187179 61.0175137,62.5950013 60.6069614,61.5712846 C63.8913801,63.2092313 67.3810749,64.6424346 70.7030591,66.3147781 C73.2595685,67.5084317 75.8148462,68.7020853 77.7315098,69.5974279 C79.6479681,70.4927705 80.9258122,71.0895973 80.9258122,71.0895973 C77.9926211,75.3034198 74.2869757,78.9433467 70.0129206,81.8019731 Z M81.393226,70.4035024 C81.393226,70.4035024 80.0521568,69.7769878 78.0406557,68.8374207 C76.0291545,67.8978535 73.3472214,66.6450291 70.6560509,65.3919999 C66.9705226,63.8234613 63.0702754,62.5950013 59.9911329,60.1380813 C58.3489236,58.704878 57.7330951,56.0432147 56.5014381,53.9957814 C58.7594759,53.7910381 61.4280661,53.1768081 63.2755516,53.7910381 C69.6391127,56.4527014 74.9762931,60.7523113 80.616461,64.4856012 C82.436029,65.7480486 83.6473636,66.5899531 83.6473636,66.5899531 C82.9639993,67.9044053 82.2106357,69.1768851 81.393226,70.4035024 Z M84.020761,65.8512392 C77.8501594,61.5712846 71.2813221,57.476418 64.7124847,53.5862948 C72.3077029,53.1768081 79.9029211,52.3578348 87.4981392,51.7436048 C87.2928631,54.2005248 87.2928631,56.6574447 86.6109356,58.8156442 C86.0248722,61.2236305 85.1362317,63.5921013 84.020761,65.8512392 Z M63.618568,52.8385721 C61.4280661,51.5388615 59.5805806,50.1056582 57.3225427,48.8771982 C59.1700282,47.8534815 60.8122376,45.8060483 62.6597231,46.0107916 C70.6654936,46.4202782 78.6712641,46.2155349 86.8823107,47.6487382 C87.2928631,47.6487382 87.4981392,50.5151448 87.0875869,50.5151448 C80.7240257,52.5625781 73.9499122,52.1530915 67.1805201,52.682353 C65.0339472,52.7826772 63.618568,52.8385721 63.618568,52.8385721 Z" id="Shape" fill-rule="nonzero"></path>
                    <path d="M75.6974262,21.9162924 C68.3622164,17.7693154 64.8564935,9.74808333 58.2574855,4.4005953 C57.2263905,3.57790483 55.9890766,2.96088698 54.7864074,2.4386842 C53.5923994,1.90804885 52.3750886,1.46256197 51.1373622,1.10160652 C46.1862503,-0.342626592 40.9068377,-0.486186079 35.3246957,1.38954819 C33.32499,1.92285728 31.3671469,2.58553445 29.4610647,3.37284923 C23.7428181,5.73520491 18.4914513,9.22156143 13.9828854,13.7181819 C4.96575347,22.711217 0,34.6679946 0,47.3861722 C0,60.1043498 4.96595969,72.0613331 13.9828854,81.0541625 C22.999811,90.0474034 34.9885587,95 47.7405229,95 C60.492487,95 72.4812347,90.0474034 81.4979541,81.0541625 C86.0065201,76.5577478 89.5021383,71.3202946 91.8707697,65.616993 C92.6603823,63.715961 93.3246137,61.7630995 93.8550089,59.7703375 C95.7501615,53.0639705 95.2028563,46.2658735 92.8758811,40.061759 C92.1002915,37.9937208 91.1267316,35.9917036 89.9793291,34.0820333 C89.3697457,33.1402584 88.7449022,32.2025969 88.0938688,31.2838574 C87.931162,31.054121 87.7665992,30.8256188 87.5999743,30.5985562 C85.6846122,28.2586188 83.2099843,26.4075653 80.7568031,24.7414114 C80.4804696,24.5875683 80.2028988,24.4349592 79.9267716,24.2817331 C79.3745171,23.9750753 78.828243,23.6651266 78.2999099,23.3395469 C77.4399767,22.8704076 76.5703512,22.399006 75.6974262,21.9162924 Z M47.7403166,93.5602917 C22.2122607,93.5602917 1.44353298,72.8465911 1.44353298,47.3861722 C1.44353298,29.5638173 11.6202343,14.067414 26.4824375,6.37361271 C28.6056683,5.27449824 30.8243785,4.33457439 33.1228954,3.5698836 C39.0457113,1.41237785 44.5705244,1.25956309 49.7418782,2.49462716 C51.0346651,2.80334175 52.3055928,3.20193529 53.5525991,3.69328717 C56.8139525,4.81194053 59.2885805,7.28001193 61.5569895,9.74808333 C64.6502745,13.6558631 67.3311214,17.3579702 71.2492824,20.4430594 C74.3425674,22.7568763 77.3948147,24.7582766 80.3317857,26.9828316 C80.6254416,27.2053694 80.9178601,27.4299639 81.207804,27.6582605 C82.3851083,28.6699641 83.6224223,29.4926545 84.641969,30.5539252 C84.9224268,30.8120444 85.2012349,31.0750997 85.4783932,31.3437081 C86.7177694,32.5440135 87.3512742,33.4625474 88.1592402,34.4287973 C94.534913,42.0528756 94.9644671,52.7336602 91.6730057,61.96507 C90.9062835,64.2572913 89.9638627,66.4703286 88.8618283,68.5877282 C81.1475881,83.4105537 65.6100177,93.5602917 47.7403166,93.5602917 Z" id="Shape" fill-rule="nonzero"></path>
                    <path d="M46.891902,46.005847 C45.7769625,45.898247 45.7769625,47.3047826 46.5069933,47.8322335 C47.0545164,48.1838674 48.1495625,48.0080505 47.982933,47.063386 C47.9447889,46.503409 47.4563983,46.0297581 46.891902,46.005847 Z" id="Path"></path>
                </g>
            </g>
        </g>
    </g>
</svg>