<?xml version="1.0" encoding="UTF-8"?>
<svg width="107px" height="106px" viewBox="0 0 107 106" version="1.1" xmlns="http://www.w3.org/2000/svg" xmlns:xlink="http://www.w3.org/1999/xlink">
    <!-- Generator: Sketch 46.2 (44496) - http://www.bohemiancoding.com/sketch -->
    <title>Group 6</title>
    <desc>Created with Sketch.</desc>
    <defs>
        <polygon id="path-1" points="4.97959874 0.277495935 0.0481596122 0.277495935 0.0481596122 6.77844146 4.97959874 6.77844146 4.97959874 0.277495935"></polygon>
    </defs>
    <g id="Page-1" stroke="none" stroke-width="1" fill="none" fill-rule="evenodd">
        <g id="perfil-vacio" transform="translate(-587.000000, -397.000000)">
            <g id="Group-6" transform="translate(587.000000, 397.000000)">
                <g id="Page-1">
                    <path d="M15.3173952,30.9488976 C15.3169637,30.6136618 15.6094879,30.3206537 15.9455887,30.3206537 L19.8851734,30.3180683 C21.1445806,33.3291577 24.123754,35.3771984 27.4757016,35.374613 C30.8298065,35.3733203 33.8439274,33.3588894 35.0576008,30.3034179 L38.9134839,30.2995398 C39.1637258,30.2982472 39.2905726,30.4249301 39.3751371,30.5089545 C39.4592702,30.592548 39.5839597,30.7170764 39.585254,30.9691496 L39.5925887,38.5020439 L15.3148065,38.5020439 L15.3173952,30.9488976 Z M66.9375605,17.4020114 C67.1748589,17.1645886 67.5890524,17.1645886 67.8263508,17.4020114 L70.6118024,20.1851577 C69.3670645,23.2022797 70.0202823,26.7550033 72.390246,29.1223366 C74.7602097,31.4922553 78.3175282,32.1997837 81.3398468,30.8997756 L84.066621,33.6225967 C84.244379,33.7984016 84.244379,33.9776537 84.244379,34.0965805 C84.244379,34.2150764 84.244379,34.3913122 84.066621,34.5701333 L80.129625,38.5020439 L45.7532863,38.5020439 L66.9375605,17.4020114 Z M79.0717056,71.275865 C79.0717056,67.517174 82.1337177,64.4591171 85.8972702,64.4591171 L99.8832056,64.4591171 C101.932169,64.4591171 103.663153,66.1383122 103.663153,68.1255967 L103.663153,76.0006211 C103.663153,78.0568488 102.050387,79.6675317 99.9919315,79.6675317 L85.8972702,79.6675317 C82.1337177,79.6675317 79.0717056,76.6094748 79.0717056,72.8503528 L79.0717056,71.275865 Z M89.8985524,102.445898 L9.99414516,102.445898 C6.23016129,102.445898 3.16814919,99.3874098 3.16814919,95.6282878 L3.16814919,48.4875886 C3.16814919,44.7288976 6.23016129,41.6712715 9.99414516,41.6712715 L89.8985524,41.6712715 C93.6625363,41.6712715 96.7245484,44.7288976 96.7245484,48.4875886 L96.7245484,61.2898894 L86.0055645,61.2898894 C80.4920444,61.2898894 76.0066734,65.7694667 76.0066734,71.275865 L76.0066734,72.8503528 C76.0066734,78.3515805 80.4920444,82.8268488 86.0055645,82.8268488 L96.7245484,82.8268488 L96.7245484,95.6282878 C96.7245484,99.3874098 93.6625363,102.445898 89.8985524,102.445898 L89.8985524,102.445898 Z M100.378081,61.2890276 L99.8879516,61.263174 L99.8879516,48.4875886 C99.8879516,42.9816211 95.4068952,38.5020439 89.8985524,38.5020439 L84.3358468,38.5020439 L86.2005806,36.6397187 C86.9111815,35.9317593 87.2675605,35.044548 87.2675605,34.0353935 C87.2675605,33.0301171 86.9111815,32.1429057 86.2005806,31.4314992 L82.7032339,27.9399626 C82.2299315,27.465548 81.4589274,27.3474829 80.8656815,27.7029707 C78.8512339,28.9461008 76.242246,28.5901821 74.5233427,26.9338244 C72.8644113,25.2748813 72.5084637,22.6705561 73.7532016,20.5983854 C74.1091492,20.0084911 74.0500403,19.2371902 73.5159032,18.7632065 L69.9607419,15.2130683 C69.2488468,14.5025236 68.3009476,14.1470358 67.351754,14.1470358 C66.4034234,14.1470358 65.4555242,14.5025236 64.7440605,15.2130683 L42.5657218,37.3618976 L42.55925,30.9221821 C42.5601129,29.919922 42.1825927,29.0413285 41.467246,28.3286293 C40.7549194,27.6185154 39.8743266,27.2432065 38.8681815,27.2432065 L33.9233145,27.2488081 C33.2528387,27.2483772 32.6242137,27.709865 32.4572419,28.3807675 C31.9149073,30.6826049 29.8197782,32.2756211 27.4312621,32.3204341 C25.0841653,32.3212959 22.986879,30.7330195 22.3975161,28.3893854 C22.2309758,27.7210683 21.6429073,27.2182146 20.9292863,27.2604423 L15.9020121,27.2660439 C14.8954355,27.2673366 13.9738548,27.6861659 13.303379,28.3566374 C12.6333347,29.0275398 12.216121,29.948361 12.2165524,30.9536374 L12.2238871,38.5020439 L9.99414516,38.5020439 C4.48321371,38.5020439 0,42.9816211 0,48.4875886 L0,95.7368732 C0,101.243272 4.48321371,105.722418 9.99414516,105.722418 L89.8985524,105.722418 C95.4068952,105.722418 99.8879516,101.243272 99.8879516,95.7368732 L99.8879516,82.8535642 L100.378081,82.8272797 C103.994077,82.6355317 106.826988,79.6369382 106.826988,76.0006211 L106.826988,68.1255967 C106.826988,64.483678 103.994077,61.4807756 100.378081,61.2890276 L100.378081,61.2890276 Z" id="Fill-1" fill="#393A39"></path>
                    <path d="M85.4771226,74.2175805 C86.6364331,74.2175805 87.5851952,73.2765073 87.5851952,72.1122309 C87.5851952,70.9479545 86.6364331,70.0073122 85.4771226,70.0073122 C84.3178121,70.0073122 83.36905,70.9479545 83.36905,72.1122309 C83.36905,73.2765073 84.3178121,74.2175805 85.4771226,74.2175805" id="Fill-3" fill="#393A39"></path>
                    <path d="M47.649473,4.39292439 C48.5624246,4.39292439 49.3096988,3.65178618 49.3096988,2.73484309 C49.3096988,1.8179 48.5624246,1.07719268 47.649473,1.07719268 C46.7365214,1.07719268 45.9892472,1.8179 45.9892472,2.73484309 C45.9892472,3.65178618 46.7365214,4.39292439 47.649473,4.39292439" id="Fill-5" fill="#393A39"></path>
                    <path d="M24.8316367,18.4466285 L27.7797456,18.4466285 L27.7797456,21.3904984 C27.7797456,22.0644171 28.328552,22.6133764 29.0033423,22.6133764 C29.6785641,22.6133764 30.2273706,22.0644171 30.2273706,21.3904984 L30.2273706,18.4466285 L33.1763423,18.4466285 C33.8511327,18.4466285 34.4003706,17.8985309 34.4003706,17.2241813 C34.4003706,16.5502626 33.8511327,16.0017341 33.1763423,16.0017341 L30.2273706,16.0017341 L30.2273706,13.0570024 C30.2273706,12.3830837 29.6785641,11.8341244 29.0033423,11.8341244 C28.328552,11.8341244 27.7797456,12.3830837 27.7797456,13.0570024 L27.7797456,16.0017341 L24.8316367,16.0017341 C24.1568464,16.0017341 23.6076085,16.5502626 23.6076085,17.2241813 C23.6076085,17.8985309 24.1568464,18.4466285 24.8316367,18.4466285" id="Fill-7" fill="#393A39"></path>
                    <path d="M47.649473,15.5591195 C48.7388883,15.5591195 49.6255214,16.4446073 49.6255214,17.5326154 C49.6255214,18.6210545 48.7388883,19.5065423 47.649473,19.5065423 C46.5596262,19.5065423 45.6729931,18.6210545 45.6729931,17.5326154 C45.6729931,16.4446073 46.5596262,15.5591195 47.649473,15.5591195 M47.649473,21.9514366 C50.0889004,21.9514366 52.0735778,19.9688919 52.0735778,17.5326154 C52.0735778,15.096339 50.0889004,13.1142252 47.649473,13.1142252 C45.2100456,13.1142252 43.2253681,15.096339 43.2253681,17.5326154 C43.2253681,19.9688919 45.2100456,21.9514366 47.649473,21.9514366" id="Fill-9" fill="#393A39"></path>
                    <g id="Group-13" transform="translate(64.286290, 0.153398)">
                        <mask id="mask-2" fill="white">
                            <use xlink:href="#path-1"></use>
                        </mask>
                        <g id="Clip-12"></g>
                        <path d="M2.28682298,6.04807561 C2.54137944,6.49879106 3.02244798,6.77844146 3.54148427,6.77844146 C3.7882746,6.77844146 4.03290766,6.71423821 4.24863347,6.59272602 C4.93981895,6.20233577 5.18402056,5.32288049 4.79355685,4.6330187 L2.74071008,1.00747398 C2.48572218,0.557189431 2.00508508,0.27710813 1.48648024,0.27710813 C1.23925847,0.27710813 0.995056855,0.341742276 0.778899597,0.463254472 C0.0881455645,0.853213821 -0.1564875,1.73266911 0.234407661,2.42296179 L2.28682298,6.04807561 Z" id="Fill-11" fill="#393A39" mask="url(#mask-2)"></path>
                    </g>
                    <path d="M74.6828504,7.18236179 C74.9374069,7.38660569 75.257544,7.49863821 75.5832899,7.49863821 C76.0229391,7.49863821 76.4323867,7.3025813 76.7072214,6.96088211 L79.3179351,3.71323171 C79.8145359,3.09532927 79.715302,2.18872764 79.0966004,1.6919065 C78.842044,1.4876626 78.5223383,1.37519919 78.1961609,1.37519919 C77.7569431,1.37519919 77.3470641,1.57168699 77.0722294,1.91295528 L74.4615157,5.16103659 C73.9644835,5.77850813 74.0637173,6.68554065 74.6828504,7.18236179" id="Fill-14" fill="#393A39"></path>
                    <path d="M75.8316335,12.8319463 C75.7078069,13.6148813 76.2449641,14.3525724 77.0289117,14.4771008 L81.1471173,15.1281821 C81.2234843,15.1402472 81.2989883,15.1462797 81.3740609,15.1462797 L81.3740609,15.1462797 C82.0855246,15.1462797 82.6830851,14.6361008 82.794831,13.9337431 C82.9190891,13.1503772 82.3823633,12.4122553 81.5979843,12.2877268 L77.4789157,11.6370764 C76.6790044,11.508239 75.9554601,12.054613 75.8316335,12.8319463" id="Fill-16" fill="#393A39"></path>
                </g>
            </g>
        </g>
    </g>
</svg>