<?xml version="1.0" encoding="UTF-8"?>
<svg width="126px" height="101px" viewBox="0 0 126 101" version="1.1" xmlns="http://www.w3.org/2000/svg" xmlns:xlink="http://www.w3.org/1999/xlink">
    <!-- Generator: Sketch 46.2 (44496) - http://www.bohemiancoding.com/sketch -->
    <title>Group 8</title>
    <desc>Created with Sketch.</desc>
    <defs>
        <polygon id="path-1" points="0 5.36402217 0 0.291187391 7.2560917 0.291187391 7.2560917 5.36402217"></polygon>
        <polygon id="path-3" points="0.232199595 0.159404348 4.68948943 0.159404348 4.68948943 7.6329213 0.232199595 7.6329213 0.232199595 0.159404348"></polygon>
    </defs>
    <g id="Page-1" stroke="none" stroke-width="1" fill="none" fill-rule="evenodd">
        <g id="perfil-vacio" transform="translate(-577.000000, -684.000000)">
            <g id="Group-8" transform="translate(577.000000, 684.000000)">
                <g id="Page-1">
                    <path d="M95.7694829,43.8162591 L95.7694829,83.6950113 C95.7694829,87.0126417 93.1708976,89.6114157 89.8531902,89.6114157 L20.0105561,89.6114157 C16.6919707,89.6114157 14.0925073,87.0126417 14.0925073,83.6950113 L14.0925073,43.8162591 L95.7694829,43.8162591 Z M33.2348488,32.9196765 C30.9936293,32.9196765 29.2379707,31.1635939 29.2379707,28.921833 C29.2379707,26.6769983 30.9936293,24.91872 33.2348488,24.91872 C35.4765073,24.91872 37.2321659,26.6769983 37.2321659,28.921833 C37.2321659,31.1635939 35.4765073,32.9196765 33.2348488,32.9196765 L33.2348488,32.9196765 Z M76.6894829,32.9196765 C74.4478244,32.9196765 72.6921659,31.1635939 72.6921659,28.921833 C72.6921659,26.6769983 74.4478244,24.91872 76.6894829,24.91872 C78.9307024,24.91872 80.686361,26.6769983 80.686361,28.921833 C80.686361,31.1635939 78.9307024,32.9196765 76.6894829,32.9196765 L76.6894829,32.9196765 Z M20.0105561,17.3617243 L31.565678,17.3617243 L31.565678,21.7965026 L31.401922,21.8399765 C28.1606049,22.6888157 25.8969951,25.6011287 25.8969951,28.921833 C25.8969951,32.9675417 29.1888,36.2592635 33.2348488,36.2592635 C37.2813366,36.2592635 40.5731415,32.9675417 40.5731415,28.921833 C40.5731415,25.6006896 38.3095317,22.6888157 35.0682146,21.8399765 L34.9044585,21.7965026 L34.9044585,17.3617243 L75.017678,17.3617243 L75.017678,21.7965026 L74.853922,21.8399765 C71.6126049,22.6888157 69.3489951,25.6006896 69.3489951,28.921833 C69.3489951,32.9675417 72.641678,36.2592635 76.6894829,36.2592635 C80.7342146,36.2592635 84.0251415,32.9675417 84.0251415,28.921833 C84.0251415,25.5993722 81.7615317,22.6870591 78.5202146,21.8399765 L78.3560195,21.7969417 L78.3560195,17.3617243 L89.8531902,17.3617243 C93.1708976,17.3617243 95.7694829,19.9613765 95.7694829,23.2794461 L95.7694829,40.4771113 L14.0925073,40.4771113 L14.0925073,23.2794461 C14.0925073,19.9613765 16.6919707,17.3617243 20.0105561,17.3617243 L20.0105561,17.3617243 Z M81.5635317,97.5012722 L28.3006537,97.5012722 C25.6204098,97.5012722 23.3344098,95.7851504 22.6130927,93.2302896 L22.5345073,92.9514417 L87.328361,92.9514417 L87.2497756,93.2302896 C86.5288976,95.7851504 84.2437756,97.5012722 81.5635317,97.5012722 L81.5635317,97.5012722 Z M89.8531902,14.0221374 L78.3560195,14.0221374 L78.3560195,10.024733 C78.3560195,9.10255913 77.608361,8.35208522 76.6894829,8.35208522 C75.7675317,8.35208522 75.017678,9.10255913 75.017678,10.024733 L75.017678,14.0221374 L34.9044585,14.0221374 L34.9044585,10.024733 C34.9044585,9.10255913 34.1554829,8.35208522 33.2348488,8.35208522 C32.3146537,8.35208522 31.565678,9.10255913 31.565678,10.024733 L31.565678,14.0221374 L20.0105561,14.0221374 C14.9068976,14.0221374 10.7541659,18.1749939 10.7541659,23.2794461 L10.7541659,83.6950113 C10.7541659,88.4103939 14.2878732,92.3643243 18.9740195,92.8912809 L19.1390927,92.9097243 L19.1658732,93.0743983 C19.8898244,97.5017113 23.8164585,100.84042 28.3006537,100.84042 L81.5635317,100.84042 C86.0486049,100.84042 89.9765561,97.5017113 90.7009463,93.07352 L90.7277268,92.9092852 L90.8928,92.8908417 C95.5785073,92.3625678 99.1126537,88.4090765 99.1126537,83.6950113 L99.1126537,23.2794461 C99.1126537,18.1749939 94.9590439,14.0221374 89.8531902,14.0221374 L89.8531902,14.0221374 Z" id="Fill-1" fill="#393A39"></path>
                    <g id="Group-5" transform="translate(0.000000, 13.014509)">
                        <mask id="mask-2" fill="white">
                            <use xlink:href="#path-1"></use>
                        </mask>
                        <g id="Clip-4"></g>
                        <path d="M5.56946341,0.291187391 C5.33678049,0.291187391 5.10980488,0.338613478 4.89556098,0.432587391 L1.00843902,2.13553522 C0.453512195,2.37925261 0.0706829268,2.90533087 0.00834146341,3.50913522 C-0.0206341463,3.79632652 0.0254634146,4.08878739 0.141365854,4.35490043 C0.41004878,4.96748739 1.01634146,5.36402217 1.68717073,5.36402217 C1.91985366,5.36402217 2.14639024,5.31615696 2.36063415,5.22218304 L6.24731707,3.51967435 C6.80268293,3.27639609 7.18595122,2.75031783 7.24741463,2.14607435 C7.27682927,1.85800478 7.23117073,1.56598304 7.11482927,1.30030913 C6.84658537,0.686843913 6.23985366,0.291187391 5.56946341,0.291187391" id="Fill-3" fill="#393A39" mask="url(#mask-2)"></path>
                    </g>
                    <path d="M4.85521463,3.3030513 C4.53823902,2.9912687 4.11853171,2.81912957 3.67292195,2.81912957 C3.21809268,2.81912957 2.7918,2.99741652 2.47306829,3.32061652 C2.20482439,3.59243826 2.0358,3.95164696 1.99672683,4.33149478 C1.94492195,4.84220348 2.12448293,5.34237304 2.48975122,5.70377739 L5.51243415,8.68327739 C5.82897073,8.99549913 6.24867805,9.16719913 6.6942878,9.16719913 C7.1495561,9.16719913 7.57584878,8.98891217 7.89458049,8.66571217 C8.16282439,8.39389043 8.33184878,8.03424261 8.37048293,7.65483391 C8.4222878,7.14324696 8.24272683,6.64307739 7.87745854,6.2825513 L4.85521463,3.3030513 Z" id="Fill-6" fill="#393A39"></path>
                    <g id="Group-10" transform="translate(12.292683, 0.279726)">
                        <mask id="mask-4" fill="white">
                            <use xlink:href="#path-3"></use>
                        </mask>
                        <g id="Clip-9"></g>
                        <path d="M1.48750244,7.57671261 C1.62842927,7.6140387 1.77330732,7.6329213 1.91818537,7.6329213 C2.68120976,7.6329213 3.3516,7.11694304 3.54740488,6.37832565 L4.63267317,2.27684739 C4.65594146,2.18858217 4.67174634,2.10119522 4.68052683,2.01424739 C4.76525854,1.18604739 4.24150244,0.429864783 3.43589268,0.21556913 C3.29496585,0.178243043 3.1500878,0.159360435 3.00520976,0.159360435 C2.24174634,0.159360435 1.57179512,0.674899565 1.37599024,1.41351696 L0.290721951,5.51631261 C0.173941463,5.95149087 0.233209756,6.40379522 0.457112195,6.79066913 C0.682770732,7.18105609 1.04891707,7.45990391 1.48750244,7.57671261" id="Fill-8" fill="#393A39" mask="url(#mask-4)"></path>
                    </g>
                    <path d="M111.122912,23.2834861 L111.122912,20.5029122 L113.903693,20.5029122 C114.711498,20.5029122 115.368717,19.8455339 115.368717,19.0375339 C115.368717,18.2295339 114.711498,17.5721557 113.903693,17.5721557 L111.122912,17.5721557 L111.122912,14.7907035 C111.122912,13.9822643 110.465693,13.3248861 109.657888,13.3248861 C108.850083,13.3248861 108.192863,13.9822643 108.192863,14.7907035 L108.192863,17.5721557 L105.412961,17.5721557 C104.605156,17.5721557 103.947937,18.2295339 103.947937,19.0375339 C103.947937,19.8455339 104.605156,20.5029122 105.412961,20.5029122 L108.192863,20.5029122 L108.192863,23.2834861 C108.192863,24.0919252 108.850083,24.7493035 109.657888,24.7493035 C110.465693,24.7493035 111.122912,24.0919252 111.122912,23.2834861" id="Fill-11" fill="#393A39"></path>
                    <path d="M41.4329268,56.0390157 L45.1580488,56.0390157 C46.2367317,56.0390157 47.0498049,55.225307 47.0498049,54.1468026 C47.0498049,53.0682983 46.2367317,52.2554678 45.1580488,52.2554678 L41.4329268,52.2554678 C40.3546829,52.2554678 39.5416098,53.0682983 39.5416098,54.1468026 C39.5416098,55.225307 40.3546829,56.0390157 41.4329268,56.0390157" id="Fill-13" fill="#393A39"></path>
                    <path d="M53.0709366,56.0390157 L56.7956195,56.0390157 C57.8743024,56.0390157 58.6873756,55.225307 58.6873756,54.1468026 C58.6873756,53.0682983 57.8743024,52.2554678 56.7956195,52.2554678 L53.0709366,52.2554678 C51.9922537,52.2554678 51.1791805,53.0682983 51.1791805,54.1468026 C51.1791805,55.225307 51.9922537,56.0390157 53.0709366,56.0390157" id="Fill-15" fill="#393A39"></path>
                    <path d="M64.7085073,56.0390157 L68.4336293,56.0390157 C69.5118732,56.0390157 70.3249463,55.225307 70.3249463,54.1468026 C70.3249463,53.0682983 69.5118732,52.2554678 68.4336293,52.2554678 L64.7085073,52.2554678 C63.6298244,52.2554678 62.8167512,53.0682983 62.8167512,54.1468026 C62.8167512,55.225307 63.6298244,56.0390157 64.7085073,56.0390157" id="Fill-17" fill="#393A39"></path>
                    <path d="M76.346078,56.0390157 L80.070761,56.0390157 C81.1494439,56.0390157 81.9629561,55.225307 81.9629561,54.1468026 C81.9629561,53.0682983 81.1494439,52.2554678 80.070761,52.2554678 L76.346078,52.2554678 C75.2673951,52.2554678 74.454322,53.0682983 74.454322,54.1468026 C74.454322,55.225307 75.2673951,56.0390157 76.346078,56.0390157" id="Fill-19" fill="#393A39"></path>
                    <path d="M29.7957951,67.6793974 L33.520478,67.6793974 C34.599161,67.6793974 35.4122341,66.8656887 35.4122341,65.7871843 C35.4122341,64.70868 34.599161,63.8958496 33.520478,63.8958496 L29.7957951,63.8958496 C28.7171122,63.8958496 27.9036,64.70868 27.9036,65.7871843 C27.9036,66.8656887 28.7171122,67.6793974 29.7957951,67.6793974" id="Fill-21" fill="#393A39"></path>
                    <path d="M41.4329268,67.6793974 L45.1580488,67.6793974 C46.2367317,67.6793974 47.0498049,66.8656887 47.0498049,65.7871843 C47.0498049,64.70868 46.2367317,63.8958496 45.1580488,63.8958496 L41.4329268,63.8958496 C40.3546829,63.8958496 39.5416098,64.70868 39.5416098,65.7871843 C39.5416098,66.8656887 40.3546829,67.6793974 41.4329268,67.6793974" id="Fill-23" fill="#393A39"></path>
                    <path d="M53.0709366,67.6793974 L56.7956195,67.6793974 C57.8743024,67.6793974 58.6873756,66.8656887 58.6873756,65.7871843 C58.6873756,64.70868 57.8743024,63.8958496 56.7956195,63.8958496 L53.0709366,63.8958496 C51.9922537,63.8958496 51.1791805,64.70868 51.1791805,65.7871843 C51.1791805,66.8656887 51.9922537,67.6793974 53.0709366,67.6793974" id="Fill-25" fill="#393A39"></path>
                    <path d="M64.7085073,67.6793974 L68.4336293,67.6793974 C69.5118732,67.6793974 70.3249463,66.8656887 70.3249463,65.7871843 C70.3249463,64.70868 69.5118732,63.8958496 68.4336293,63.8958496 L64.7085073,63.8958496 C63.6298244,63.8958496 62.8167512,64.70868 62.8167512,65.7871843 C62.8167512,66.8656887 63.6298244,67.6793974 64.7085073,67.6793974" id="Fill-27" fill="#393A39"></path>
                    <path d="M76.346078,67.6793974 L80.070761,67.6793974 C81.1494439,67.6793974 81.9629561,66.8656887 81.9629561,65.7871843 C81.9629561,64.70868 81.1494439,63.8958496 80.070761,63.8958496 L76.346078,63.8958496 C75.2673951,63.8958496 74.454322,64.70868 74.454322,65.7871843 C74.454322,66.8656887 75.2673951,67.6793974 76.346078,67.6793974" id="Fill-29" fill="#393A39"></path>
                    <path d="M29.7957951,79.3197791 L33.520478,79.3197791 C34.599161,79.3197791 35.4122341,78.5060704 35.4122341,77.4275661 C35.4122341,76.3490617 34.599161,75.5357922 33.520478,75.5357922 L29.7957951,75.5357922 C28.7171122,75.5357922 27.9036,76.3490617 27.9036,77.4275661 C27.9036,78.5060704 28.7171122,79.3197791 29.7957951,79.3197791" id="Fill-31" fill="#393A39"></path>
                    <path d="M41.4329268,79.3197791 L45.1580488,79.3197791 C46.2367317,79.3197791 47.0498049,78.5060704 47.0498049,77.4275661 C47.0498049,76.3490617 46.2367317,75.5357922 45.1580488,75.5357922 L41.4329268,75.5357922 C40.3546829,75.5357922 39.5416098,76.3490617 39.5416098,77.4275661 C39.5416098,78.5060704 40.3546829,79.3197791 41.4329268,79.3197791" id="Fill-33" fill="#393A39"></path>
                    <path d="M53.0709366,79.3197791 L56.7956195,79.3197791 C57.8743024,79.3197791 58.6873756,78.5060704 58.6873756,77.4275661 C58.6873756,76.3490617 57.8743024,75.5357922 56.7956195,75.5357922 L53.0709366,75.5357922 C51.9922537,75.5357922 51.1791805,76.3490617 51.1791805,77.4275661 C51.1791805,78.5060704 51.9922537,79.3197791 53.0709366,79.3197791" id="Fill-35" fill="#393A39"></path>
                    <path d="M64.7085073,79.3197791 L68.4336293,79.3197791 C69.5118732,79.3197791 70.3249463,78.5060704 70.3249463,77.4275661 C70.3249463,76.3490617 69.5118732,75.5357922 68.4336293,75.5357922 L64.7085073,75.5357922 C63.6298244,75.5357922 62.8167512,76.3490617 62.8167512,77.4275661 C62.8167512,78.5060704 63.6298244,79.3197791 64.7085073,79.3197791" id="Fill-37" fill="#393A39"></path>
                    <path d="M123.952346,25.7505648 C122.900005,25.7505648 122.043468,26.6068691 122.043468,27.6599039 C122.043468,28.7124996 122.900005,29.5688039 123.952346,29.5688039 C125.004688,29.5688039 125.861224,28.7124996 125.861224,27.6599039 C125.861224,26.6068691 125.004688,25.7505648 123.952346,25.7505648" id="Fill-39" fill="#393A39"></path>
                    <path d="M114.160259,38.2212104 C113.172454,38.2212104 112.3686,37.4171626 112.3686,36.4291191 C112.3686,35.4410757 113.172454,34.637467 114.160259,34.637467 C115.148063,34.637467 115.951478,35.4410757 115.951478,36.4291191 C115.951478,37.4171626 115.148063,38.2212104 114.160259,38.2212104 M114.160259,31.7067104 C111.556844,31.7067104 109.43899,33.8250757 109.43899,36.4291191 C109.43899,39.0336017 111.556844,41.151967 114.160259,41.151967 C116.763673,41.151967 118.881527,39.0336017 118.881527,36.4291191 C118.881527,33.8250757 116.763673,31.7067104 114.160259,31.7067104" id="Fill-41" fill="#393A39"></path>
                </g>
            </g>
        </g>
    </g>
</svg>