<?xml version="1.0" encoding="UTF-8"?>
<svg width="40px" height="40px" viewBox="0 0 40 40" version="1.1" xmlns="http://www.w3.org/2000/svg" xmlns:xlink="http://www.w3.org/1999/xlink">
    <!-- Generator: Sketch 52.1 (67048) - http://www.bohemiancoding.com/sketch -->
    <title>Path</title>
    <desc>Created with Sketch.</desc>
    <g id="Page-2" stroke="none" stroke-width="1" fill="none" fill-rule="evenodd">
        <g id="Artboard" transform="translate(-1049.000000, -852.000000)" fill="#000000">
            <path d="M1071.68895,872 L1088.44186,855.247093 C1089.18503,854.504683 1089.18503,853.300549 1088.44186,852.558139 C1087.69869,851.814968 1086.49532,851.814968 1085.75291,852.558139 L1069,869.310285 L1052.24633,852.557378 C1051.50392,851.814207 1050.29903,851.814207 1049.55738,852.557378 C1048.81421,853.299788 1048.81421,854.503922 1049.55738,855.246332 L1066.31029,871.999239 L1049.55738,888.752907 C1048.81421,889.496078 1048.81421,890.699451 1049.55738,891.441861 C1049.92858,891.813066 1050.41541,891.998669 1050.90224,891.998669 C1051.38906,891.998669 1051.87589,891.813066 1052.24709,891.441861 L1069,874.688954 L1085.75291,891.441861 C1086.12411,891.813066 1086.61094,891.998669 1087.09776,891.998669 C1087.58459,891.998669 1088.07066,891.813066 1088.44262,891.441861 C1089.18579,890.698691 1089.18579,889.495317 1088.44262,888.752907 L1071.68895,872 Z" id="Path"></path>
        </g>
    </g>
</svg>