<?xml version="1.0" encoding="UTF-8"?>
<svg width="30px" height="40px" viewBox="0 0 30 40" version="1.1" xmlns="http://www.w3.org/2000/svg" xmlns:xlink="http://www.w3.org/1999/xlink">
    <!-- Generator: Sketch 52.1 (67048) - http://www.bohemiancoding.com/sketch -->
    <title>Group 26</title>
    <desc>Created with Sketch.</desc>
    <g id="Page-2" stroke="none" stroke-width="1" fill="none" fill-rule="evenodd">
        <g id="Artboard" transform="translate(-490.000000, -1026.000000)">
            <g id="Group-26" transform="translate(490.000000, 1026.000000)">
                <g id="Group-25" transform="translate(12.000000, 6.000000)" stroke="#000000" stroke-linecap="round" stroke-linejoin="round" stroke-width="3">
                    <path d="M0.34453125,8.47058824 L3.6328125,0.466631471" id="Path"></path>
                    <path d="M3.1875,19 L6.8125,9.48798062" id="Path"></path>
                    <path d="M3.5,12 L3.5,6" id="Path" transform="translate(3.500000, 9.000000) rotate(90.000000) translate(-3.500000, -9.000000) "></path>
                </g>
                <path d="M1.40625,3.12847787e-13 C0.6539625,0.00235294118 0.0154171875,0.816837647 0,1.41175529 L0,37.1764753 C0.000121875,37.7187812 0.122882812,38.4095576 0.659179688,38.9264518 C1.19547656,39.4433459 1.84881563,39.5292753 2.34375,39.5294165 C2.59558594,39.5247106 2.84640938,39.4550165 3.06152344,39.3235341 L15,32.2205694 L26.9384766,39.3235341 C27.1535906,39.4550165 27.4044141,39.5269694 27.65625,39.5294165 C28.1511844,39.5292753 28.8045234,39.4433459 29.3408203,38.9264518 C29.8771172,38.4095576 29.9998781,37.7187812 30,37.1764753 L30,1.41175529 C29.999925,0.672602353 29.3300391,7.52941179e-05 28.59375,2.59348099e-13 L1.40625,2.59348099e-13 Z M2.8125,2.82352 L27.1875,2.82352 L27.1875,36.1911576 L15.7177734,29.3676282 C15.2859141,29.1103576 14.7140859,29.1103576 14.2822266,29.3676282 L2.8125,36.1911576 L2.8125,2.82352 Z" id="Shape" fill="#000000" fill-rule="nonzero"></path>
                <path d="M1.40625,8.54741114e-14 C0.6539625,0.00235294118 0.0154171875,0.816837647 0,1.41175529 L0,37.1764753 C0.000121875,37.7187812 0.122882812,38.4095576 0.659179688,38.9264518 C1.19547656,39.4433459 1.84881563,39.5292753 2.34375,39.5294165 C2.59558594,39.5247106 2.84640938,39.4550165 3.06152344,39.3235341 L15,32.2205694 L26.9384766,39.3235341 C27.1535906,39.4550165 27.4044141,39.5269694 27.65625,39.5294165 C28.1511844,39.5292753 28.8045234,39.4433459 29.3408203,38.9264518 C29.8771172,38.4095576 29.9998781,37.7187812 30,37.1764753 L30,1.41175529 C29.999925,0.672602353 29.3300391,7.52941177e-05 28.59375,3.19744231e-14 L1.40625,3.19744231e-14 Z M2.8125,2.82352 L27.1875,2.82352 L27.1875,36.1911576 L15.7177734,29.3676282 C15.2859141,29.1103576 14.7140859,29.1103576 14.2822266,29.3676282 L2.8125,36.1911576 L2.8125,2.82352 Z" id="Shape" fill="#000000" fill-rule="nonzero"></path>
            </g>
        </g>
    </g>
</svg>