<?xml version="1.0" encoding="UTF-8"?>
<svg width="100px" height="60px" viewBox="0 0 100 60" version="1.1" xmlns="http://www.w3.org/2000/svg" xmlns:xlink="http://www.w3.org/1999/xlink">
    <!-- Generator: Sketch 49.3 (51167) - http://www.bohemiancoding.com/sketch -->
    <title>Group</title>
    <desc>Created with Sketch.</desc>
    <defs></defs>
    <g id="Welcome" stroke="none" stroke-width="1" fill="none" fill-rule="evenodd">
        <g id="Dashboard-atleta-v2" transform="translate(-471.000000, -428.000000)" fill="#FFCD00">
            <g id="Group" transform="translate(521.000000, 458.000000) scale(-1, 1) translate(-521.000000, -458.000000) translate(471.000000, 428.000000)">
                <polygon id="Shape" points="91 26.9384615 47.2101911 5 36 47.8153846 84.6942675 51"></polygon>
                <path d="M99.8967808,31.5697382 C100.956674,27.0113345 93.5374246,24.9074559 92.1242344,29.816506 L87.1780684,49.1020599 C85.7648782,54.01111 93.1841271,56.1149886 94.5973173,51.2059385 L99.8967808,31.5697382 Z" id="Shape" fill-rule="nonzero"></path>
                <path d="M43.8226866,4.90101207 C45.2298846,-0.0111170003 37.8420952,-2.11631517 36.4348972,2.79581389 L25.1773134,45.2506437 C23.7701154,50.1627727 31.1579048,51.9171046 32.5651028,47.3558418 L43.8226866,4.90101207 Z" id="Shape" fill-rule="nonzero"></path>
                <path d="M69.1521453,51.3793103 L69.1521453,54.137931 C69.1521453,54.8275862 68.4595946,55.1724138 67.767044,55.1724138 L53.9160305,54.8275862 C53.2234798,54.8275862 52.5309292,54.137931 52.5309292,53.4482759 L52.8772045,50.3448276 L48.0293498,50 L48.0293498,53.1034483 C47.6830745,56.5517241 50.4532771,59.3103448 53.5697552,59.3103448 L67.4207686,60 C70.883522,60 73.6537247,57.5862069 73.6537247,54.137931 L74,51.7241379 L69.1521453,51.3793103 Z" id="Shape" fill-rule="nonzero"></path>
                <path d="M16.7124007,23.9366314 C19.9735124,24.5866752 21.4228955,20.0363685 18.1617837,19.3863247 L4.3926451,16.1361057 C0.769187574,15.16104 -0.317849683,19.7113466 2.94326209,20.6864123 L16.7124007,23.9366314 Z" id="Shape" fill-rule="nonzero"></path>
                <path d="M19.904019,14.3993654 C22.3902478,16.4748352 25.5868278,12.6698072 23.1005989,10.5943373 L12.4453326,1.60063463 C9.60392824,-0.474835219 6.40734834,3.33019284 8.89357715,5.40566269 L19.904019,14.3993654 Z" id="Shape" fill-rule="nonzero"></path>
                <path d="M16.0481372,30.0686117 C19.2697448,29.3201899 20.343614,34.9333538 16.76405,35.3075647 L2.80375068,37.9270412 C-0.417856867,38.675463 -1.13376966,33.43651 2.08783789,32.6880882 L16.0481372,30.0686117 Z" id="Shape" fill-rule="nonzero"></path>
            </g>
        </g>
    </g>
</svg>