<?xml version="1.0" encoding="UTF-8"?>
<svg width="81px" height="77px" viewBox="0 0 81 77" version="1.1" xmlns="http://www.w3.org/2000/svg" xmlns:xlink="http://www.w3.org/1999/xlink">
    <!-- Generator: Sketch 52.1 (67048) - http://www.bohemiancoding.com/sketch -->
    <title>Group 34</title>
    <desc>Created with Sketch.</desc>
    <g id="Page-2" stroke="none" stroke-width="1" fill="none" fill-rule="evenodd">
        <g id="Artboard" transform="translate(-68.000000, -977.000000)" fill-rule="nonzero">
            <g id="Group-34" transform="translate(68.000000, 977.000000)">
                <path d="M40.2986226,76.344 L5.90262264,41.771 C-2.54437736,31.581 -1.85337736,16.833 7.51362264,7.468 C12.3276226,2.653 18.7306226,0.001 25.5396226,0.001 C30.8396226,0.001 36.0076226,1.657 40.2986226,4.698 C44.5896226,1.656 49.7576226,2.84217094e-14 55.0586226,2.84217094e-14 C61.8676226,2.84217094e-14 68.2696226,2.652 73.0836226,7.468 C82.4506226,16.834 83.1436226,31.582 74.6926226,41.772 L74.5406226,41.94 L40.2986226,76.344 Z" id="Path" fill="#FFFFFF"></path>
                <path d="M9.67424939,38.496 L40.2912494,69.257 L70.9072494,38.495 C77.6252494,30.307 77.0462494,18.508 69.5412494,11.003 C65.6702494,7.132 60.5242494,5 55.0512494,5 C50.2422494,5 45.5712494,6.694 41.8962494,9.77 L40.2912494,11.112 L38.6872494,9.77 C35.0122494,6.695 30.3402494,5.001 25.5332494,5.001 C20.0592494,5.001 14.9132494,7.133 11.0422494,11.003 C3.53724939,18.508 2.95724939,30.308 9.67424939,38.496 Z" id="Path" stroke="#FFFFFF" fill="#000000"></path>
            </g>
        </g>
    </g>
</svg>