<?xml version="1.0" encoding="UTF-8"?>
<svg width="70px" height="58px" viewBox="0 0 70 58" version="1.1" xmlns="http://www.w3.org/2000/svg" xmlns:xlink="http://www.w3.org/1999/xlink">
    <!-- Generator: Sketch 49.3 (51167) - http://www.bohemiancoding.com/sketch -->
    <title>Group</title>
    <desc>Created with Sketch.</desc>
    <defs></defs>
    <g id="Welcome" stroke="none" stroke-width="1" fill="none" fill-rule="evenodd">
        <g id="Dashboard-atleta-v1" transform="translate(-486.000000, -448.000000)" fill="#FFCD00" fill-rule="nonzero">
            <g id="Group" transform="translate(479.000000, 448.000000)">
                <path d="M30.80593,31.8174213 C24.6016455,25.674726 22.5701541,16.8683839 24.7114559,9.04052438 C20.8131886,10.1277271 17.1345421,12.1934123 14.0598525,15.2375799 C4.39654215,24.8049638 4.39654215,40.2976025 14.0598525,49.8649864 C23.7231628,59.4323704 39.3711368,59.4323704 48.979542,49.8649864 C52.6032833,46.2772175 54.8543954,41.9284066 55.7328782,37.307795 C47.387292,40.3519627 37.5592662,38.503718 30.80593,31.8174213 Z" id="Shape" transform="translate(31.272624, 33.040524) rotate(18.000000) translate(-31.272624, -33.040524) "></path>
                <path d="M47.9100695,28.367 L40.5641332,28.367 C39.8589966,28.367 39.2255946,28.0806313 38.7326095,27.5386341 C38.2564133,27.027377 38,26.3608013 38,25.6278916 C38,25.074569 38.1770473,24.5147749 38.5128266,24.0132252 C38.5647198,23.9355659 38.6211918,23.8643782 38.6852951,23.7980442 L45.6878207,16.4479145 L39.5262697,16.4479145 C38.6822426,16.4479145 38,15.7247123 38,14.8300123 C38,13.9353124 38.6822426,13.2121101 39.5262697,13.2121101 L46.8874687,13.2121101 C47.5895528,13.2121101 48.24127,13.5114221 48.7235713,14.0534193 C49.1906098,14.5760017 49.4378655,15.23287 49.4378655,15.9528365 C49.4378655,16.5013053 49.2913436,17.0238877 49.016615,17.4639571 C48.9601431,17.5545596 48.8945135,17.6370727 48.8197262,17.714732 L41.7530973,25.1311956 L47.9115957,25.1311956 C48.7556229,25.1311956 49.4378655,25.8560158 49.4378655,26.7490978 C49.4378655,27.6421798 48.7540966,28.367 47.9100695,28.367 Z" id="Shape"></path>
                <path d="M61.4953965,19.5122213 L55.619258,19.5122213 C54.9828035,19.5122213 54.386032,19.2436495 53.9373087,18.7550431 C53.497743,18.2809977 53.2626975,17.6710486 53.2626975,16.9963834 C53.2626975,16.48998 53.4214295,15.9803408 53.7205784,15.5257103 C53.7739979,15.4464331 53.8335224,15.3703917 53.899152,15.3008219 L58.9724726,9.97630576 L54.7889672,9.97630576 C53.9449401,9.97630576 53.2626975,9.25310348 53.2626975,8.35840357 C53.2626975,7.46532156 53.9449401,6.74050137 54.7889672,6.74050137 L60.6773159,6.74050137 C61.3183492,6.74050137 61.916647,7.01392684 62.3623177,7.50900492 C62.7942521,7.98952187 63.0216663,8.59299939 63.0216663,9.25633929 C63.0216663,9.76112477 62.8873545,10.2400238 62.6339937,10.6428815 C62.5775218,10.7351019 62.5118922,10.8176149 62.4371049,10.8952742 L57.3103649,16.274799 L61.4953965,16.274799 C62.3394237,16.274799 63.0216663,16.9996192 63.0216663,17.8927012 C63.0216663,18.7857832 62.3394237,19.5122213 61.4953965,19.5122213 Z" id="Shape"></path>
                <path d="M74.9900085,11.1331058 L69.5388633,11.1331058 C68.8503908,11.1331058 68.2061645,10.8839489 67.7247647,10.4244647 C67.2628332,10.0005743 67.0008951,9.4181295 67.0008951,8.79685506 C67.0008951,8.31633811 67.1743406,7.84229277 67.4999934,7.4216382 C67.5583986,7.34559679 67.6238831,7.276027 67.6946772,7.21131091 L71.7883457,3.50469699 L68.7689776,3.50469699 C67.7902492,3.50469699 66.9991252,2.7798768 66.9991252,1.88679479 C66.9991252,0.993712781 67.7902492,0.268892598 68.7689776,0.268892598 L74.2325117,0.268892598 C74.9280637,0.268892598 75.5740598,0.522903243 76.0536898,0.984005368 C76.5156213,1.43216428 76.758091,1.99195843 76.758091,2.60190756 C76.758091,3.07757081 76.6094234,3.52734762 76.3280169,3.90593673 C76.2643022,3.99168555 76.1917383,4.07258066 76.1120949,4.14376835 L71.9671007,7.89406564 L74.9882387,7.89406564 C75.966967,7.89406564 76.758091,8.61888582 76.758091,9.51196783 C76.7598609,10.4082856 75.9687369,11.1331058 74.9900085,11.1331058 Z" id="Shape"></path>
            </g>
        </g>
    </g>
</svg>