<?xml version="1.0" encoding="UTF-8"?>
<svg width="30px" height="40px" viewBox="0 0 30 40" version="1.1" xmlns="http://www.w3.org/2000/svg" xmlns:xlink="http://www.w3.org/1999/xlink">
    <!-- Generator: Sketch 52.1 (67048) - http://www.bohemiancoding.com/sketch -->
    <title>Group 21</title>
    <desc>Created with Sketch.</desc>
    <g id="Page-2" stroke="none" stroke-width="1" fill="none" fill-rule="evenodd">
        <g id="Artboard" transform="translate(-663.000000, -969.000000)">
            <g id="Group-21" transform="translate(663.000000, 969.000000)">
                <ellipse id="Oval" stroke="#000000" stroke-width="1.5" stroke-linecap="round" stroke-linejoin="round" cx="15" cy="15.2380952" rx="7.5" ry="7.61904762"></ellipse>
                <path d="M15,15.7142857 L18.28125,17.6190476" id="Path" stroke="#000000" stroke-linecap="square" stroke-linejoin="round"></path>
                <path d="M14.7515625,15.7142857 L14.7796875,10.4761905" id="Path" stroke="#000000" stroke-linecap="square" stroke-linejoin="round"></path>
                <path d="M1.40625,7.90055851e-14 C0.6539625,0.00238095238 0.0154171875,0.826561905 0,1.4285619 L0,37.6190524 C0.000121875,38.1678143 0.122882812,38.8668143 0.659179688,39.3898619 C1.19547656,39.9129095 1.84881563,39.9998619 2.34375,40.0000048 C2.59558594,39.9952429 2.84640938,39.924719 3.06152344,39.7916714 L15,32.6041476 L26.9384766,39.7916714 C27.1535906,39.924719 27.4044141,39.9975286 27.65625,40.0000048 C28.1511844,39.9998619 28.8045234,39.9129095 29.3408203,39.3898619 C29.8771172,38.8668143 29.9998781,38.1678143 30,37.6190524 L30,1.4285619 C29.999925,0.680609524 29.3300391,7.61904762e-05 28.59375,2.48689958e-14 L1.40625,2.48689958e-14 Z M2.8125,2.85713333 L27.1875,2.85713333 L27.1875,36.6220048 L15.7177734,29.7172429 C15.2859141,29.4569095 14.7140859,29.4569095 14.2822266,29.7172429 L2.8125,36.6220048 L2.8125,2.85713333 Z" id="Shape" fill="#000000" fill-rule="nonzero"></path>
            </g>
        </g>
    </g>
</svg>