<?xml version="1.0" encoding="UTF-8"?>
<svg width="70px" height="70px" viewBox="0 0 70 70" version="1.1" xmlns="http://www.w3.org/2000/svg" xmlns:xlink="http://www.w3.org/1999/xlink">
    <!-- Generator: Sketch 52.1 (67048) - http://www.bohemiancoding.com/sketch -->
    <title>Group 28</title>
    <desc>Created with Sketch.</desc>
    <g id="Page-2" stroke="none" stroke-width="1" fill="none" fill-rule="evenodd">
        <g id="Artboard" transform="translate(-1171.000000, -578.000000)" fill-rule="nonzero">
            <g id="Group-28" transform="translate(1171.000000, 578.000000)">
                <circle id="Oval" fill="#FFFFFF" cx="35" cy="35" r="35"></circle>
                <path d="M40.2618323,37.8864629 L28.637962,37.8864629 C19.8699564,37.8864629 12.7052432,44.518559 12.0038027,52.919214 C11.9536999,53.5087336 12.4046259,54 13.0058605,54 C13.5068894,54 13.9578154,53.6069869 14.0079183,53.1157205 C14.609153,45.6484716 20.922117,39.8515284 28.637962,39.8515284 L40.3119351,39.8515284 C48.0277801,39.8515284 54.3407441,45.6975983 54.9920817,53.0665939 C55.0421846,53.5578603 55.4430077,53.9508734 55.9941395,53.9508734 C56.5953741,53.9508734 57.0463001,53.459607 56.9961973,52.8700873 C56.2446539,44.4694323 49.0298379,37.8864629 40.2618323,37.8864629 Z M34.4498971,31.9421397 C40.9131698,31.9421397 46.1238703,26.7838428 46.1238703,20.4956332 C46.1238703,14.2074236 40.9131698,9 34.4498971,9 C27.9866244,9 22.7759239,14.1582969 22.7759239,20.4956332 C22.7759239,26.8329694 27.9866244,31.9421397 34.4498971,31.9421397 Z M34.4498971,10.9650655 C39.8109063,10.9650655 44.1197547,15.239083 44.1197547,20.4465066 C44.1197547,25.7030568 39.7608034,29.9279476 34.4498971,29.9279476 C29.1389909,29.9279476 24.7800395,25.7030568 24.7800395,20.4956332 C24.7800395,15.239083 29.088888,10.9650655 34.4498971,10.9650655 Z" id="Shape" fill="#000000"></path>
            </g>
        </g>
    </g>
</svg>