<?xml version="1.0" encoding="UTF-8"?>
<svg width="51px" height="96px" viewBox="0 0 51 96" version="1.1" xmlns="http://www.w3.org/2000/svg" xmlns:xlink="http://www.w3.org/1999/xlink">
    <!-- Generator: Sketch 49.3 (51167) - http://www.bohemiancoding.com/sketch -->
    <title>Shape</title>
    <desc>Created with Sketch.</desc>
    <defs></defs>
    <g id="Page-1" stroke="none" stroke-width="1" fill="none" fill-rule="evenodd">
        <path d="M30,22.006 C34.3,22.982 38.34,24.642 42,26.866 L42,26.556 L42,23.618 L42,21.311 C38.395,18.879 34.346,17.057 30,15.989 L30,22.006 Z M21,43.994 C16.7,43.018 12.66,41.358 9,39.134 L9,39.444 L9,42.382 L9,44.689 C12.605,47.121 16.654,48.943 21,50.011 L21,43.994 Z M24,50.619 L24,53.557 L24,59.619 L24,62.557 L24,68.619 L24,71.557 L24,77.619 L24,80.557 L24,86.619 L24,89.557 L24,95.619 L24,96 L27,96 L27,87.381 L27,84.443 L27,78.381 L27,75.443 L27,69.381 L27,66.443 L27,60.381 L27,57.443 L27,51.381 L27,48.443 L27,42.381 L27,39.443 L27,33.381 L27,30.443 L27,24.381 L27,21.443 L27,15.381 L27,12.443 L27,6.381 L27,3.443 L27,0 L24,0 L24,5.619 L24,8.557 L24,14.619 L24,17.557 L24,23.619 L24,26.557 L24,32.619 L24,35.557 L24,41.619 L24,44.557 L24,50.619 Z M21,52.994 L21,59.01 C16.654,57.942 12.605,56.12 9,53.688 L9,51.381 L9,48.443 L9,48.133 C12.66,50.358 16.7,52.018 21,52.994 Z M21,61.994 C16.7,61.018 12.66,59.358 9,57.134 L9,57.444 L9,60.382 L9,62.689 C12.605,65.121 16.654,66.943 21,68.011 L21,61.994 Z M21,70.994 L21,77.011 C16.654,75.943 12.605,74.12 9,71.689 L9,69.382 L9,66.444 L9,66.134 C12.66,68.358 16.7,70.018 21,70.994 Z M21,79.994 C16.7,79.018 12.66,77.358 9,75.134 L9,75.444 L9,78.382 L9,80.689 C12.605,83.121 16.654,84.943 21,86.011 L21,79.994 Z M21,88.994 L21,95.011 C16.654,93.943 12.605,92.12 9,89.689 L9,87.382 L9,84.444 L9,84.134 C12.66,86.358 16.7,88.018 21,88.994 Z M21,0 L9.469,0 C12.955,2.276 16.841,3.989 21,5.011 L21,0 Z M21,7.994 L21,14.011 C16.654,12.943 12.605,11.12 9,8.689 L9,6.381 L9,3.443 L9,3.133 C12.66,5.358 16.7,7.018 21,7.994 Z M21,16.994 C16.7,16.018 12.66,14.358 9,12.134 L9,12.444 L9,15.382 L9,17.689 C12.605,20.121 16.654,21.943 21,23.011 L21,16.994 Z M21,25.994 L21,32.011 C16.654,30.943 12.605,29.121 9,26.689 L9,24.382 L9,21.444 L9,21.134 C12.66,23.358 16.7,25.018 21,25.994 Z M21,34.994 L21,41.011 C16.654,39.943 12.605,38.12 9,35.689 L9,33.382 L9,30.444 L9,30.134 C12.66,32.358 16.7,34.018 21,34.994 Z M6,37.123 L6,33.99 C3.927,34.499 1.922,35.18 0,36.017 L0,41.871 C1.931,41.1 3.936,40.474 6,40.006 L6,37.123 Z M0,45.017 L0,50.871 C1.931,50.1 3.936,49.474 6,49.006 L6,46.123 L6,42.99 C3.927,43.499 1.922,44.18 0,45.017 Z M0,54.017 L0,59.871 C1.931,59.1 3.936,58.474 6,58.006 L6,55.123 L6,51.99 C3.927,52.499 1.922,53.18 0,54.017 Z M6,31.006 L6,28.123 L6,24.99 C3.927,25.499 1.922,26.18 0,27.017 L0,32.871 C1.931,32.101 3.936,31.475 6,31.006 Z M6,22.006 L6,19.123 L6,15.99 C3.927,16.499 1.922,17.18 0,18.017 L0,23.872 C1.931,23.101 3.936,22.474 6,22.006 Z M0,63.017 L0,68.871 C1.931,68.1 3.936,67.474 6,67.006 L6,64.123 L6,60.99 C3.927,61.499 1.922,62.18 0,63.017 Z M0,72.017 L0,77.871 C1.931,77.1 3.936,76.474 6,76.006 L6,73.123 L6,69.99 C3.927,70.499 1.922,71.18 0,72.017 Z M0,81.017 L0,86.871 C1.931,86.1 3.936,85.474 6,85.006 L6,82.123 L6,78.99 C3.927,79.499 1.922,80.18 0,81.017 Z M0,90 C0,93.313 2.688,96 6,96 L6,91.123 L6,87.989 C3.927,88.498 1.922,89.179 0,90.016 L0,90 Z M6,13.006 L6,10.123 L6,6.99 C3.927,7.499 1.922,8.18 0,9.017 L0,14.871 C1.931,14.101 3.936,13.474 6,13.006 Z M6,4.006 L6,1.123 L6,0 C2.687,0 0,2.687 0,6 L0.002,5.871 C1.933,5.1 3.936,4.474 6,4.006 Z M9,96 L14.682,96 C12.705,95.191 10.806,94.231 9,93.134 L9,96 Z M30,13.006 L30,6.989 C34.346,8.057 38.395,9.879 42,12.311 L42,14.618 L42,17.556 L42,17.866 C38.34,15.642 34.3,13.982 30,13.006 Z M30,4.006 C34.3,4.982 38.34,6.642 42,8.866 L42,8.556 L42,5.619 L42,0 L30,0 L30,4.006 Z M30,96 L35.96,96 C37.908,95.154 39.77,94.148 41.53,93 C38.045,90.724 34.158,89.012 30,87.99 L30,96 Z M30,85.006 L30,78.989 C34.346,80.057 38.395,81.88 42,84.311 L42,86.618 L42,89.556 L42,89.866 C38.34,87.642 34.3,85.982 30,85.006 Z M30,76.006 C34.3,76.982 38.34,78.642 42,80.866 L42,80.556 L42,77.618 L42,75.311 C38.395,72.879 34.346,71.057 30,69.989 L30,76.006 Z M30,67.006 L30,60.989 C34.346,62.057 38.395,63.88 42,66.311 L42,68.618 L42,71.556 L42,71.866 C38.34,69.642 34.3,67.982 30,67.006 Z M30,58.006 C34.3,58.982 38.34,60.642 42,62.866 L42,62.556 L42,59.618 L42,57.311 C38.395,54.879 34.346,53.057 30,51.989 L30,58.006 Z M30,49.006 L30,42.989 C34.346,44.057 38.395,45.88 42,48.311 L42,50.618 L42,53.556 L42,53.866 C38.34,51.642 34.3,49.982 30,49.006 Z M30,40.006 C34.3,40.982 38.34,42.642 42,44.866 L42,44.556 L42,41.618 L42,39.311 C38.395,36.879 34.346,35.057 30,33.989 L30,40.006 Z M30,31.006 L30,24.989 C34.346,26.057 38.395,27.88 42,30.311 L42,32.618 L42,35.556 L42,35.866 C38.34,33.642 34.3,31.982 30,31.006 Z M45,28.877 L45,32.01 C47.073,31.501 49.078,30.82 51,29.983 L51,24.129 C49.069,24.9 47.064,25.526 45,25.994 L45,28.877 Z M45,34.994 L45,37.877 L45,41.01 C47.073,40.501 49.078,39.82 51,38.983 L51,33.129 C49.069,33.899 47.064,34.525 45,34.994 Z M45,43.994 L45,46.877 L45,50.01 C47.073,49.501 49.078,48.82 51,47.983 L51,42.128 C49.069,42.899 47.064,43.526 45,43.994 Z M45,52.994 L45,55.877 L45,59.01 C47.073,58.501 49.078,57.82 51,56.983 L51,51.129 C49.069,51.899 47.064,52.525 45,52.994 Z M45,61.994 L45,64.877 L45,68.01 C47.073,67.501 49.078,66.82 51,65.983 L51,60.129 C49.069,60.899 47.064,61.525 45,61.994 Z M51,20.983 L51,15.129 C49.069,15.9 47.064,16.526 45,16.994 L45,19.877 L45,23.01 C47.073,22.501 49.078,21.82 51,20.983 Z M51,11.983 L51,6.129 C49.069,6.9 47.064,7.526 45,7.994 L45,10.877 L45,14.01 C47.073,13.501 49.078,12.82 51,11.983 Z M50.34,3.263 C49.345,1.325 47.328,0 45,0 L45,5.011 C46.837,4.559 48.62,3.973 50.34,3.263 Z M45,70.994 L45,73.877 L45,77.01 C47.073,76.501 49.078,75.82 51,74.983 L51,69.129 C49.069,69.899 47.064,70.526 45,70.994 Z M45,79.994 L45,82.877 L45,86.01 C47.073,85.501 49.078,84.82 51,83.983 L51,78.129 C49.069,78.899 47.064,79.525 45,79.994 Z M45,88.994 L45,90.44 L45,91.877 L45,94.123 L45,95.56 L45,96 C48.312,96 51,93.313 51,90 L51,87.129 C49.069,87.899 47.064,88.525 45,88.994 Z" id="Shape" fill="#000000" fill-rule="nonzero"></path>
    </g>
</svg>