<?xml version="1.0" encoding="UTF-8"?>
<svg width="48px" height="48px" viewBox="0 0 48 48" version="1.1" xmlns="http://www.w3.org/2000/svg" xmlns:xlink="http://www.w3.org/1999/xlink">
    <!-- Generator: Sketch 49.3 (51167) - http://www.bohemiancoding.com/sketch -->
    <title>Group</title>
    <desc>Created with Sketch.</desc>
    <defs></defs>
    <g id="Page-1" stroke="none" stroke-width="1" fill="none" fill-rule="evenodd">
        <g id="Group" fill="#000000" fill-rule="nonzero">
            <rect id="Rectangle-path" x="0.5" y="33.6" width="3" height="13.9"></rect>
            <polygon id="Shape" points="25 39.1 9.2 39.1 9.2 33.6 6.3 33.6 6.3 47.5 9.2 47.5 9.2 42 25 42 25 47.5 28 47.5 28 33.6 25 33.6"></polygon>
            <path d="M44.3,16.9 L44.3,8.3 C44.3,4 40.7,0.5 36.3,0.5 L27.2,0.5 C22.8,0.5 19.2,4 19.2,8.3 L19.2,16.8 C17.2,19.4 16,22.6 16,26 C16,29.8 17.5,33.3 19.9,36 L22.2,36 L22.2,30.5 L28,30.5 L31,30.5 L36.8,30.5 L36.8,40.4 C43.1,38.4 47.6,32.7 47.6,25.9 C47.5,22.6 46.3,19.4 44.3,16.9 Z M31.7,10.8 C28.1,10.8 24.8,12 22.1,14 L22.1,8.3 C22.1,5.6 24.4,3.4 27.2,3.4 L36.3,3.4 C39.1,3.4 41.4,5.6 41.4,8.3 L41.4,14 C38.7,12 35.3,10.8 31.7,10.8 Z" id="Shape"></path>
            <rect id="Rectangle-path" x="30.8" y="33.6" width="3" height="13.9"></rect>
        </g>
    </g>
</svg>