<?xml version="1.0" encoding="UTF-8"?>
<svg width="58px" height="58px" viewBox="0 0 58 58" version="1.1" xmlns="http://www.w3.org/2000/svg" xmlns:xlink="http://www.w3.org/1999/xlink">
    <!-- Generator: Sketch 49.3 (51167) - http://www.bohemiancoding.com/sketch -->
    <title>Shape</title>
    <desc>Created with Sketch.</desc>
    <defs></defs>
    <g id="Page-1" stroke="none" stroke-width="1" fill="none" fill-rule="evenodd">
        <path d="M51.77,11.07 L51.76,11.03 L51.63,10.87 C51.55,10.77 51.47,10.68 51.39,10.59 C51.35,10.55 51.32,10.5 51.28,10.46 C47.96,6.47 43.72,3.5 38.99,1.77 L38.9,1.74 C38.54,1.61 38.17,1.49 37.8,1.37 C37.7,1.34 37.6,1.31 37.5,1.28 C37.16,1.18 36.83,1.08 36.49,0.99 C36.32,0.95 36.16,0.9 35.99,0.86 C35.69,0.79 35.39,0.72 35.09,0.65 C34.87,0.6 34.65,0.56 34.43,0.52 C34.16,0.47 33.89,0.42 33.62,0.38 C33.35,0.34 33.09,0.3 32.82,0.27 C32.59,0.24 32.35,0.21 32.12,0.18 C31.95,0.16 31.77,0.15 31.6,0.13 C31.47,0.12 31.33,0.11 31.2,0.1 C31.18,0.1 31.15,0.1 31.13,0.09 C30.95,0.08 30.76,0.06 30.58,0.05 C30.05,0.02 29.53,0 29,0 C26.45,0 23.99,0.33 21.63,0.95 L21.12,1.09 C21.07,1.1 21.02,1.12 20.97,1.14 C20.53,1.27 20.09,1.41 19.65,1.56 C19.54,1.6 19.43,1.63 19.33,1.67 C18.87,1.83 18.41,2.01 17.96,2.2 C17.9,2.22 17.84,2.25 17.78,2.27 C17.3,2.47 16.83,2.69 16.36,2.91 C16.14,3.02 15.93,3.13 15.72,3.24 C15.47,3.36 15.24,3.48 15,3.61 C14.74,3.76 14.47,3.91 14.21,4.06 C14.05,4.16 13.88,4.26 13.72,4.36 C13.43,4.54 13.13,4.73 12.85,4.92 C12.77,4.97 12.69,5.03 12.61,5.08 C11.15,6.08 9.78,7.21 8.53,8.46 C8.52,8.49 8.49,8.52 8.47,8.54 C7.21,9.8 6.07,11.18 5.06,12.65 C5.02,12.71 4.98,12.77 4.93,12.83 C4.74,13.12 4.55,13.41 4.36,13.71 C4.26,13.87 4.16,14.03 4.07,14.19 C3.91,14.45 3.76,14.71 3.61,14.98 C3.48,15.21 3.36,15.44 3.24,15.67 C3.13,15.89 3.01,16.11 2.9,16.33 C2.67,16.79 2.46,17.26 2.26,17.74 C2.24,17.8 2.21,17.86 2.19,17.92 C2,18.37 1.83,18.83 1.66,19.29 C1.65,19.33 1.63,19.37 1.61,19.41 L1.44,19.88 L1.45,19.89 C0.52,22.77 0,25.82 0,29 C0,29.49 0.01,29.98 0.04,30.47 C0.04,30.5 0.04,30.54 0.05,30.57 C0.06,30.72 0.07,30.88 0.08,31.03 C0.1,31.33 0.12,31.63 0.15,31.93 C0.16,31.99 0.16,32.05 0.17,32.11 C0.19,32.3 0.22,32.48 0.24,32.67 C0.27,32.91 0.3,33.15 0.33,33.39 C0.34,33.46 0.36,33.54 0.37,33.61 C0.37,33.62 0.37,33.62 0.37,33.63 C0.4,33.84 0.44,34.05 0.48,34.26 C0.51,34.45 0.55,34.64 0.58,34.82 C0.59,34.89 0.61,34.95 0.62,35.02 C0.63,35.05 0.63,35.08 0.64,35.11 C0.69,35.34 0.74,35.58 0.8,35.81 C0.83,35.95 0.86,36.08 0.9,36.22 C0.92,36.29 0.94,36.36 0.96,36.43 C0.97,36.46 0.98,36.49 0.98,36.52 C1.05,36.79 1.13,37.07 1.21,37.34 C1.24,37.43 1.26,37.52 1.29,37.6 C1.31,37.67 1.34,37.73 1.36,37.8 C1.36,37.8 1.36,37.81 1.36,37.81 C1.63,38.67 1.94,39.52 2.3,40.35 L2.39,40.58 L2.4,40.58 C4.18,44.68 6.91,48.34 10.46,51.29 C10.5,51.33 10.55,51.36 10.59,51.4 C10.69,51.48 10.77,51.56 10.87,51.64 L11.03,51.77 L11.07,51.78 C16.01,55.67 22.24,58 29,58 C44.99,58 58,44.99 58,29 C58,22.24 55.67,16.01 51.77,11.07 Z M51,20 C51,37.09 37.09,51 20,51 C17.3,51 14.61,50.64 11.99,49.94 C9.09,47.58 6.69,44.62 4.97,41.27 C7.1,41.75 9.29,42 11.5,42 C27.77,42 41,28.77 41,12.5 C41,9.7 40.6,6.94 39.83,4.27 C43.79,6.01 47.25,8.67 49.95,11.98 C50.64,14.61 51,17.3 51,20 Z M30.93,2.08 C30.95,2.08 30.96,2.08 30.98,2.08 C31.12,2.09 31.27,2.1 31.41,2.12 C31.99,2.17 32.58,2.24 33.15,2.33 C33.2,2.34 33.24,2.34 33.29,2.35 C33.32,2.35 33.34,2.36 33.37,2.36 C34,2.46 34.62,2.59 35.24,2.74 C35.31,2.76 35.39,2.77 35.46,2.79 C36.09,2.95 36.72,3.13 37.35,3.33 C37.38,3.34 37.42,3.35 37.45,3.36 C38.48,6.29 39,9.37 39,12.5 C39,27.66 26.66,40 11.5,40 C8.92,40 6.37,39.64 3.9,38.93 C3.84,38.77 3.77,38.61 3.71,38.44 C3.67,38.33 3.63,38.23 3.59,38.12 C3.48,37.82 3.38,37.51 3.28,37.2 C3.25,37.09 3.21,36.98 3.18,36.88 C3.18,36.88 3.18,36.88 3.18,36.88 C3.08,36.58 3,36.27 2.91,35.96 C2.87,35.8 2.83,35.64 2.79,35.48 C2.72,35.21 2.66,34.94 2.6,34.66 C2.6,34.65 2.6,34.64 2.59,34.63 C2.55,34.43 2.51,34.23 2.47,34.03 C2.43,33.81 2.39,33.59 2.35,33.36 C2.34,33.32 2.34,33.28 2.33,33.24 C2.29,33.01 2.26,32.77 2.23,32.53 C2.21,32.37 2.19,32.2 2.17,32.04 C2.16,31.97 2.15,31.9 2.15,31.83 C2.12,31.54 2.1,31.25 2.08,30.97 C2.07,30.88 2.06,30.78 2.06,30.69 C2.05,30.6 2.05,30.51 2.04,30.42 C2.01,29.95 2,29.48 2,29 C2,26.49 2.35,24.07 2.99,21.76 C4.59,23.22 6.71,24 9.15,24 C12.92,24 16.89,22.19 20.04,19.04 C22.64,16.44 24.35,13.23 24.85,10.02 C25.3,7.15 24.74,4.57 23.28,2.62 C25.13,2.22 27.04,2 29,2 C29.64,2 30.29,2.03 30.93,2.08 Z M3.77,19.39 C3.91,19.03 4.05,18.67 4.21,18.31 C4.29,18.13 4.37,17.95 4.46,17.77 C4.57,17.53 4.69,17.28 4.8,17.04 C4.91,16.82 5.02,16.6 5.14,16.38 C5.24,16.2 5.33,16.02 5.43,15.84 C5.57,15.59 5.72,15.33 5.87,15.08 C5.93,14.98 6,14.88 6.06,14.78 C6.93,13.39 7.91,12.08 9.01,10.87 C9.02,10.86 9.03,10.85 9.03,10.84 C9.31,10.53 9.6,10.23 9.89,9.93 C9.91,9.91 9.92,9.9 9.94,9.88 C11.39,8.44 13,7.16 14.74,6.07 C14.88,6 15,5.92 15.13,5.84 C15.37,5.7 15.61,5.56 15.85,5.42 C16.04,5.31 16.24,5.21 16.43,5.1 C16.64,5 16.85,4.9 17.06,4.79 C17.32,4.66 17.59,4.53 17.86,4.41 C18.01,4.34 18.17,4.27 18.32,4.2 C19.23,3.81 20.17,3.46 21.14,3.17 C22.67,4.73 23.29,7.05 22.88,9.71 C22.44,12.51 20.93,15.32 18.63,17.62 C15.88,20.36 12.34,22 9.15,22 C7.11,22 5.38,21.34 4.13,20.1 C3.98,19.95 3.84,19.79 3.69,19.6 C3.72,19.53 3.75,19.46 3.77,19.39 Z M29,56 C24.37,56 20.01,54.83 16.19,52.76 C17.46,52.91 18.73,53 20,53 C38.2,53 53,38.2 53,20 C53,18.73 52.91,17.46 52.76,16.19 C54.83,20.01 56,24.37 56,29 C56,43.89 43.89,56 29,56 Z" id="Shape" fill="#000000" fill-rule="nonzero"></path>
    </g>
</svg>