<?xml version="1.0" encoding="UTF-8"?>
<svg width="96px" height="59px" viewBox="0 0 96 59" version="1.1" xmlns="http://www.w3.org/2000/svg" xmlns:xlink="http://www.w3.org/1999/xlink">
    <!-- Generator: Sketch 49.3 (51167) - http://www.bohemiancoding.com/sketch -->
    <title>Group</title>
    <desc>Created with Sketch.</desc>
    <defs></defs>
    <g id="Page-1" stroke="none" stroke-width="1" fill="none" fill-rule="evenodd">
        <g id="Group" fill="#000000" fill-rule="nonzero">
            <path d="M95.264,39.603 C95.264,29.229 86.855,20.821 76.481,20.821 C74.587,20.821 72.76,21.104 71.036,21.626 L66.914,10.946 C66.172,8.726 64.938,7.737 62.469,7.737 L30.579,7.737 C30.842,6.77 31.091,5.809 31.476,4.357 C31.741,3.358 33.387,3.53 34.206,3.53 L39.565,3.53 L39.565,0.836 L34.206,0.836 C31.961,0.836 29.658,0.372 28.877,3.414 C28.489,4.924 27.965,6.81 27.732,7.643 C27.704,7.709 27.678,7.78 27.658,7.859 L24.24,20.429 L23.958,21.405 C22.466,21.024 20.903,20.821 19.292,20.821 C8.918,20.821 0.51,29.23 0.51,39.603 C0.51,49.975 8.919,58.385 19.292,58.385 C29.665,58.385 38.074,49.975 38.074,39.603 C38.074,31.799 33.314,25.108 26.54,22.272 L27.895,17.67 L42.966,34.522 C42.348,35.756 41.977,36.743 41.977,38.225 C41.977,41.804 44.693,44.767 49.261,44.767 C49.879,44.767 50.246,44.767 51.112,44.645 L52.346,47.73 C51.112,48.223 50.99,48.346 50.99,48.593 C50.99,48.84 51.112,48.963 51.853,49.58 L55.309,49.58 C55.68,49.087 55.926,48.716 55.926,48.469 C55.926,48.223 55.926,47.976 54.321,47.73 L52.964,44.027 C54.568,42.916 54.817,42.544 55.802,40.817 L57.742,40.818 C58.368,50.625 66.515,58.385 76.48,58.385 C86.854,58.385 95.264,49.975 95.264,39.603 Z M35.351,39.603 C35.351,48.471 28.162,55.663 19.293,55.663 C10.423,55.663 3.234,48.472 3.234,39.603 C3.234,30.734 10.423,23.545 19.293,23.545 C20.641,23.545 21.949,23.713 23.2,24.026 L19.864,35.567 C19.676,35.541 19.487,35.522 19.293,35.522 C17.038,35.522 15.211,37.349 15.211,39.603 C15.211,41.857 17.038,43.684 19.293,43.684 C21.546,43.684 23.374,41.857 23.374,39.603 C23.374,38.52 22.949,37.54 22.261,36.808 L25.765,24.906 C31.409,27.396 35.351,33.037 35.351,39.603 Z M28.823,14.698 L29.858,10.599 L62.715,10.328 L51.483,30.941 C50.247,30.695 49.754,30.695 49.385,30.695 C49.138,30.695 48.643,30.695 47.656,30.818 L46.544,27.856 C47.902,27.61 48.149,27.361 48.149,27.114 C48.149,26.868 47.902,26.374 47.656,26.005 L44.077,26.005 C43.212,26.498 43.212,26.498 43.212,26.745 C43.212,26.992 43.582,27.238 44.94,27.856 L46.175,31.312 C45.433,31.559 45.31,31.805 44.693,32.174 L28.823,14.698 Z M49.226,42.091 C46.756,42.091 44.782,40.115 44.782,37.77 C44.782,35.547 46.756,33.574 49.226,33.574 C51.695,33.574 53.546,35.548 53.546,37.894 C53.546,40.115 51.694,42.091 49.226,42.091 Z M54.075,32.671 L64.567,12.796 L68.423,22.634 C62.51,25.446 58.306,31.258 57.763,38.101 L56.42,38.101 C56.297,35.509 55.802,34.273 54.075,32.671 Z M72.688,38.102 L60.494,38.102 C61.022,32.412 64.518,27.582 69.421,25.179 L73.851,36.485 C73.34,36.915 72.939,37.47 72.688,38.102 Z M60.473,40.817 L72.583,40.818 C73.102,42.478 74.649,43.683 76.48,43.683 C78.734,43.683 80.562,41.856 80.562,39.602 C80.562,37.348 78.734,35.521 76.48,35.521 C76.453,35.521 76.426,35.524 76.401,35.525 L72.02,24.177 C73.438,23.767 74.932,23.544 76.481,23.544 C85.35,23.544 92.541,30.733 92.541,39.602 C92.541,48.47 85.351,55.662 76.481,55.662 C68.021,55.662 61.095,49.118 60.473,40.817 Z" id="Shape"></path>
            <path d="M70.244,3.233 C70.244,1.876 69.504,1.382 68.639,1.382 L60.863,1.382 C56.544,1.382 56.42,1.875 56.051,4.838 L68.887,4.838 C69.996,4.838 70.244,4.591 70.244,3.233 Z" id="Shape"></path>
        </g>
    </g>
</svg>