<?xml version="1.0" encoding="UTF-8"?>
<svg width="71px" height="72px" viewBox="0 0 71 72" version="1.1" xmlns="http://www.w3.org/2000/svg" xmlns:xlink="http://www.w3.org/1999/xlink">
    <!-- Generator: Sketch 49.3 (51167) - http://www.bohemiancoding.com/sketch -->
    <title>Group 2</title>
    <desc>Created with Sketch.</desc>
    <defs></defs>
    <g id="Page-1" stroke="none" stroke-width="1" fill="none" fill-rule="evenodd">
        <g id="Group-2" transform="translate(1.000000, 1.000000)" stroke="#000000" stroke-width="2">
            <path d="M27.814,42.495 C27.814,42.495 21.097,34.898 11.64,38.36 C2.183,41.823 0.572,52.024 1.046,55.878 C1.511,59.651 3.63,69.263 12.776,69.624 C21.922,69.987 23.286,69.661 23.942,69.585 C27.055,69.233 36.764,69.399 39.647,68.694 C42.352,68.032 57.545,62.932 67.446,50.555 C68.686,49.006 68.221,46.448 67.835,45.518 C67.446,44.586 58.456,21.257 50.782,13.506 C43.108,5.754 43.546,5.144 34.659,2.267 C29.157,0.484 27.995,0.019 27.452,0.096 C26.909,0.173 22.181,7.073 21.948,7.847 C21.715,8.621 21.405,10.792 22.102,12.266 C22.799,13.738 23.725,14.105 24.981,14.719 C25.208,14.83 25.747,15.521 27.917,14.59 C30.087,13.66 29.776,12.963 30.94,13.35 C32.102,13.738 33.497,14.358 34.737,14.358 C35.977,14.358 36.288,13.661 37.45,13.738 C38.614,13.816 43.108,16.606 43.651,19.319 C44.194,22.032 44.116,36.837 44.116,36.837 C44.116,36.837 45.511,41.798 45.821,42.339 C46.132,42.882 42.565,39.239 39.466,38.931 C36.366,38.62 33.728,38.568 30.165,40.869 C29.097,41.558 28.071,42.807 28.071,42.807 L27.814,42.495 Z" id="Shape"></path>
            <path d="M28,62.683 C35.982,66.933 46.75,62.933 50.5,56.933" id="Shape"></path>
        </g>
    </g>
</svg>